<svg width="249" height="88" viewBox="0 0 249 88" fill="none" xmlns="http://www.w3.org/2000/svg">
<path d="M239.1 58.6008C241.062 50.6713 245.79 28.0001 249.001 0.751465H203.913H98.8867V95.9056C107.717 96.0858 190.293 95.7975 210.201 93.2023C217.961 92.1908 232.143 83.4707 239.1 58.6008Z" fill="white"/>
<path d="M9.56487 58.6008C7.73872 50.6713 3.33939 28.0001 0.351166 0.751465H42.3109H140.051V95.9056C131.833 96.0858 54.9859 95.7975 36.4589 93.2023C29.2374 92.1908 16.0394 83.4707 9.56487 58.6008Z" fill="white"/>
<path fill-rule="evenodd" clip-rule="evenodd" d="M143.685 71.0452L143.813 70.4447C143.883 70.1117 143.671 69.841 143.335 69.841C142.962 69.841 142.634 70.1117 142.562 70.4447L141.829 73.8913C141.756 74.2254 141.97 74.495 142.303 74.495C142.678 74.495 143.006 74.2254 143.077 73.8913L143.202 73.3302H144.987L144.855 73.9568C144.658 74.8913 143.735 75.6479 142.799 75.6479H141.341C140.403 75.6479 139.807 74.8913 140.005 73.9568L140.779 70.3279C140.978 69.3956 141.898 68.6379 142.834 68.6379H144.294C145.231 68.6379 145.828 69.3956 145.629 70.3279L145.484 71.0452H143.685ZM147.02 75.6533C146.082 75.6533 145.484 74.9033 145.683 73.9688C145.903 72.9284 145.927 72.6238 146.366 72.3017C147.059 71.7963 149.071 71.4174 149.323 71.1805C149.473 71.0386 149.535 70.591 149.548 70.5266L149.607 70.2679C149.658 70.0364 149.471 69.8497 149.144 69.8497C148.841 69.8497 148.446 70.0364 148.384 70.3377L148.233 71.0452L146.309 71.0463L146.453 70.353C146.652 69.4207 147.575 68.663 148.51 68.663H150.212C151.148 68.663 151.746 69.4207 151.546 70.353L150.62 74.709C150.39 75.6544 149.766 75.6544 149.766 75.6544L147.02 75.6533ZM149.065 72.8028L148.799 74.066C148.724 74.3411 148.406 74.4896 148.159 74.4896C147.665 74.4896 147.579 74.1216 147.627 73.8891L147.801 73.0922C147.825 72.9732 147.936 72.7319 148.215 72.6129C148.496 72.4928 148.677 72.4611 148.752 72.4459C149.03 72.3902 149.11 72.5561 149.065 72.8028ZM162.858 71.3465H161.644L161.88 70.2559C161.953 69.9403 162.258 69.7788 162.638 69.7788C162.869 69.7788 163.154 69.9895 163.093 70.2559L162.995 70.7133L162.858 71.3465ZM154.3 72.579L152.614 80.4602H150.597L153.236 68.0855L153.379 67.4883C153.577 66.5538 154.499 65.7896 155.435 65.7896H155.742L154.626 71.0255H156.333L156.947 68.0877L157.09 67.4905C157.29 66.556 158.209 65.7918 159.145 65.7918H159.454L158.332 71.0299H159.68L159.838 70.3257C160.036 69.3945 160.958 68.6357 161.894 68.6357H163.595C164.531 68.6357 165.129 69.3945 164.931 70.3257L164.549 72.1249C164.549 72.1249 164.506 72.2766 164.295 72.424C164.123 72.5474 163.897 72.579 163.897 72.579H161.4L161.126 73.8804C161.044 74.2668 161.353 74.4645 161.582 74.4612C162.001 74.4579 162.24 74.2625 162.312 73.9361L162.445 73.3302H164.295L164.166 73.9415C163.967 74.876 163.039 75.6326 162.104 75.6326H160.402C159.465 75.6326 158.868 74.876 159.066 73.9415L159.358 72.5692L158.016 72.5681L156.324 80.4624H154.308L155.992 72.5692L154.3 72.579ZM161.287 66.0778C161.916 66.1106 163.894 66.747 163.893 67.3868C163.893 67.5527 163.759 67.6892 163.589 67.6892H161.287C161.118 67.6892 160.984 67.5527 160.984 67.3868V66.3802C160.984 66.2143 161.118 66.0778 161.287 66.0778ZM80.5592 34.0499H87.7261L81.5918 62.617H74.4238L80.5592 34.0499ZM165.36 37.2868C165.36 35.4724 166.835 34.0029 168.653 34.0029C170.473 34.0029 171.948 35.4724 171.948 37.2868C171.948 39.1002 170.473 40.5707 168.653 40.5707C166.835 40.5707 165.36 39.1002 165.36 37.2868ZM89.2335 35.4691C89.5087 34.1503 89.0382 34.0553 88.7221 34.0411L90.5899 34.04C93.7547 34.0346 95.3549 36.0652 94.8833 38.7465L94.2348 41.4878C93.7935 43.4114 92.3185 44.311 89.7547 44.811C91.9883 45.5021 93.2551 47.6899 92.7015 50.2871L91.3301 56.9172C90.6578 60.0733 87.5459 62.6138 84.3811 62.6203L82.5791 62.617C83.233 62.617 83.5384 61.9828 83.7078 61.1923L89.2335 35.4691ZM157.063 34.0499H163.516L157.38 62.617H150.927L157.063 34.0499ZM129.91 42.9944H136.053L131.82 62.617H125.634L129.91 42.9944ZM97.7989 62.6203C94.6351 62.6258 92.6141 60.0995 93.2874 56.9434L96.2904 42.9813L102.721 42.9856L98.8121 61.1869C98.6427 61.9751 98.6761 62.6138 99.3343 62.6138L97.7989 62.6203ZM111.182 42.9889L104.724 42.9846L100.818 61.1869C100.647 61.9751 100.343 62.617 99.6915 62.617L101.286 62.6203C104.451 62.6138 107.563 60.0733 108.234 56.9172L111.182 42.9889ZM118.021 62.617H116.549C117.201 62.617 117.507 61.9828 117.677 61.1923L121.275 44.4136C121.574 43.1319 121.078 42.9769 120.764 42.9769L122.287 42.9747C125.453 42.9693 127.495 45.4355 126.823 48.5906L125.071 56.9172C124.399 60.0733 121.288 62.6138 118.122 62.6203L117.023 62.6225L118.021 62.617ZM140.476 62.617H133.859L137.754 44.4136C137.923 43.6254 137.897 42.9835 137.245 42.9835L138.99 42.9791C142.155 42.9725 144.182 45.4409 143.51 48.596L140.476 62.617ZM148.161 62.6203C144.997 62.6258 142.976 60.0995 143.65 56.9434L145.401 48.6091C146.075 45.4519 149.164 42.9758 152.329 42.9704L153.89 42.9769C153.237 42.9769 152.929 43.6243 152.76 44.4136L149.163 61.1923C148.992 61.9828 149.026 62.617 149.678 62.617L148.161 62.6203ZM114.679 62.6203C111.513 62.6258 109.492 60.0995 110.166 56.9434L111.917 48.6091C112.589 45.4519 115.679 42.9758 118.845 42.9704L120.405 42.9769C119.754 42.9769 119.446 43.6243 119.276 44.4136L115.678 61.1923C115.509 61.9828 115.541 62.617 116.193 62.617L114.679 62.6203ZM164.004 42.9944H170.816L166.538 62.617H159.725L164.004 42.9944ZM171.356 60.2513C171.356 59.9183 171.137 59.7644 170.658 59.7644H169.905L169.581 61.8332H169.949L170.085 60.9773H170.311L170.811 61.8332H171.228L170.684 60.9565C171.093 60.9227 171.356 60.6498 171.356 60.2513ZM170.995 60.2862C170.995 60.5581 170.78 60.7327 170.452 60.7327H170.125L170.235 60.0406H170.561C170.741 60.0406 170.851 60.0537 170.904 60.081C170.961 60.1104 170.995 60.1891 170.995 60.2862ZM171.989 60.7993C171.989 61.6356 171.308 62.3146 170.469 62.3146C169.63 62.3146 168.947 61.6356 168.947 60.7993C168.947 59.9576 169.63 59.2796 170.469 59.2796C171.308 59.2796 171.989 59.9576 171.989 60.7993ZM172.27 60.7993C172.27 59.8037 171.462 58.998 170.469 58.998C169.471 58.998 168.666 59.8037 168.666 60.7993C168.666 61.7895 169.471 62.5952 170.469 62.5952C171.462 62.5952 172.27 61.7895 172.27 60.7993Z" fill="#ED1C24"/>
</svg>
