<svg width="359" height="279" viewBox="0 0 359 279" fill="none" xmlns="http://www.w3.org/2000/svg">
<rect x="0.108398" y="0.0991211" width="359.729" height="278.114" fill="#C42126"/>
<path d="M156.03 196.768C156.03 198.108 155.09 198.888 153.55 198.888H150.47V194.548H153.47C154.99 194.548 156.03 195.388 156.03 196.768ZM155.67 190.708C155.67 191.988 154.77 192.688 153.29 192.688H150.47V188.708H153.29C154.77 188.708 155.67 189.448 155.67 190.708ZM158.31 197.008C158.31 195.348 157.11 193.868 155.63 193.608C156.97 193.128 157.99 192.108 157.99 190.428C157.99 188.468 156.43 186.848 153.49 186.848H148.19V200.748H153.75C156.59 200.748 158.31 199.128 158.31 197.008ZM168.167 191.008C168.167 192.388 167.367 193.368 165.587 193.368H163.067V188.708H165.587C167.367 188.708 168.167 189.608 168.167 191.008ZM160.787 186.848V200.748H163.067V195.188H164.807L168.007 200.748H170.727L167.287 194.988C169.627 194.408 170.507 192.648 170.507 191.008C170.507 188.748 168.887 186.848 165.587 186.848H160.787ZM173.424 200.748H175.704V186.848H173.424V200.748ZM187.838 186.828V197.188L180.978 186.828H178.698V200.748H180.978V190.368L187.838 200.748H190.118V186.828H187.838ZM197.652 186.848H193.112V200.748H197.652C202.112 200.748 205.032 198.128 205.032 193.848C205.032 189.548 202.112 186.848 197.652 186.848ZM195.392 198.888V188.708H197.652C200.932 188.708 202.692 190.668 202.692 193.848C202.692 197.008 200.932 198.888 197.652 198.888H195.392ZM214.971 186.828H207.291V200.748H214.971V198.888H209.571V194.628H214.371V192.768H209.571V188.688H214.971V186.828ZM227.16 196.808C227.16 191.728 219.8 193.688 219.8 190.548C219.8 189.208 220.82 188.568 222.14 188.608C223.58 188.648 224.4 189.508 224.48 190.448H227C226.8 188.068 224.92 186.668 222.26 186.668C219.42 186.668 217.48 188.188 217.48 190.628C217.48 195.748 224.86 193.568 224.86 196.928C224.86 198.108 223.96 198.968 222.36 198.968C220.78 198.968 219.98 198.048 219.88 196.908H217.44C217.44 199.368 219.58 200.888 222.36 200.888C225.46 200.888 227.16 198.888 227.16 196.808Z" fill="white"/>
<path d="M178.819 139.945C179.145 139.945 179.415 139.675 179.415 139.349V135.231C179.415 134.905 179.145 134.635 178.819 134.635H169.152C168.826 134.635 168.556 134.905 168.556 135.231V139.349C168.556 139.675 168.826 139.945 169.152 139.945H178.819ZM169.749 135.827H178.223V138.753L169.749 138.753V135.827Z" fill="white"/>
<path d="M208.869 124.761L202.827 117.185C202.716 117.042 202.541 116.962 202.358 116.962H165.71C165.527 116.962 165.36 117.042 165.241 117.185L159.199 124.761C159.056 124.944 159.032 125.182 159.128 125.389C159.231 125.596 159.438 125.723 159.668 125.723H185.902C186.085 125.723 186.252 125.643 186.372 125.5L191.945 118.512L197.517 125.5C197.629 125.643 197.804 125.723 197.987 125.723H208.409C208.64 125.723 208.847 125.588 208.95 125.389C209.036 125.183 209.012 124.936 208.869 124.761H208.869ZM185.616 124.538H160.908L165.996 118.155H190.704L185.616 124.538ZM198.264 124.538L193.176 118.155H202.072L207.16 124.538H198.264Z" fill="white"/>
<path d="M167.125 110.666C167.228 110.801 167.379 110.88 167.546 110.897C167.713 110.912 167.88 110.857 167.999 110.738L171.036 107.907V115.165C171.036 115.492 171.307 115.762 171.632 115.762C171.958 115.762 172.228 115.491 172.228 115.165V106.564V106.548V103.002C172.228 102.676 171.958 102.406 171.632 102.406C171.306 102.406 171.036 102.676 171.036 103.002V106.285L167.665 109.426L162.863 103.121L170.543 95.4499C171.41 94.5832 172.562 94.1063 173.779 94.1063H177.801C177.936 94.1063 178.04 94.2018 178.064 94.3208C178.469 97.2944 181.037 99.5361 184.034 99.5361C187.031 99.5361 189.599 97.2944 189.996 94.3292C190.02 94.1941 190.124 94.1067 190.259 94.1067H194.281C195.506 94.1067 196.65 94.5836 197.517 95.4502L205.197 103.122L200.395 109.426L197.024 106.286V103.002C197.024 102.676 196.754 102.406 196.428 102.406C196.102 102.406 195.832 102.677 195.832 103.002V106.548V106.556V115.166C195.832 115.492 196.102 115.762 196.428 115.762C196.754 115.762 197.024 115.492 197.024 115.166V107.908L200.061 110.738C200.18 110.849 200.347 110.913 200.514 110.897C200.681 110.881 200.832 110.801 200.935 110.666L206.453 103.424C206.636 103.185 206.612 102.852 206.397 102.637L198.367 94.6074C197.278 93.5182 195.823 92.9139 194.289 92.9139H190.266C189.543 92.9139 188.931 93.4388 188.827 94.1619C188.509 96.5467 186.45 98.3434 184.042 98.3434C181.633 98.3434 179.574 96.5467 179.248 94.1539C179.137 93.4384 178.532 92.9136 177.809 92.9136H173.786C172.244 92.9136 170.797 93.5178 169.708 94.607L161.656 102.645C161.441 102.859 161.425 103.193 161.6 103.431L167.125 110.666Z" fill="white"/>
<path d="M187.515 104.179C187.189 104.179 186.919 104.45 186.919 104.775V108.687C186.919 108.877 187.014 109.06 187.173 109.172L189.924 111.096C190.027 111.167 190.147 111.207 190.266 111.207C190.385 111.207 190.505 111.167 190.608 111.096L193.358 109.172C193.517 109.06 193.613 108.877 193.613 108.687V104.775C193.613 104.449 193.342 104.179 193.017 104.179H187.515ZM192.412 108.377L190.258 109.887L188.104 108.377V105.372H192.413L192.412 108.377Z" fill="white"/>
<path d="M202.357 126.924C202.031 126.924 201.761 127.194 201.761 127.52V141.209C201.761 141.758 201.316 142.203 200.768 142.203H192.532V121.382C192.532 121.056 192.261 120.786 191.935 120.786C191.609 120.786 191.339 121.057 191.339 121.382V142.203H167.299C166.751 142.203 166.306 141.758 166.306 141.209V127.52C166.306 127.194 166.035 126.924 165.709 126.924C165.383 126.923 165.113 127.186 165.113 127.52V141.209C165.113 142.418 166.091 143.395 167.299 143.395H200.776C201.985 143.395 202.962 142.417 202.962 141.209V127.52C202.954 127.186 202.692 126.923 202.358 126.923L202.357 126.924Z" fill="white"/>
</svg>
