<svg width="361" height="279" viewBox="0 0 361 279" fill="none" xmlns="http://www.w3.org/2000/svg">
<rect x="0.621094" y="0.0991211" width="359.729" height="278.114" fill="#D39B0B"/>
<path d="M121.984 189.978H125.704V202.018H127.984V189.978H131.684V188.118H121.984V189.978ZM141.373 192.278C141.373 193.658 140.573 194.638 138.793 194.638H136.273V189.978H138.793C140.573 189.978 141.373 190.878 141.373 192.278ZM133.993 188.118V202.018H136.273V196.458H138.013L141.213 202.018H143.933L140.493 196.258C142.833 195.678 143.713 193.918 143.713 192.278C143.713 190.018 142.093 188.118 138.793 188.118H133.993ZM156.01 202.018H158.41L153.43 188.098H150.79L145.81 202.018H148.19L149.19 199.178H155.01L156.01 202.018ZM154.37 197.318H149.83L152.11 190.858L154.37 197.318ZM169.715 188.098V198.458L162.855 188.098H160.575V202.018H162.855V191.638L169.715 202.018H171.995V188.098H169.715ZM184.37 198.078C184.37 192.998 177.01 194.958 177.01 191.818C177.01 190.478 178.03 189.838 179.35 189.878C180.79 189.918 181.61 190.778 181.69 191.718H184.21C184.01 189.338 182.13 187.938 179.47 187.938C176.63 187.938 174.69 189.458 174.69 191.898C174.69 197.018 182.07 194.838 182.07 198.198C182.07 199.378 181.17 200.238 179.57 200.238C177.99 200.238 177.19 199.318 177.09 198.178H174.65C174.65 200.638 176.79 202.158 179.57 202.158C182.67 202.158 184.37 200.158 184.37 198.078ZM189.34 194.518V189.978H191.86C193.64 189.978 194.44 190.818 194.44 192.258C194.44 193.658 193.64 194.518 191.86 194.518H189.34ZM196.78 192.258C196.78 189.998 195.16 188.118 191.86 188.118H187.06V202.018H189.34V196.378H191.86C195.48 196.378 196.78 194.238 196.78 192.258ZM212.394 195.038C212.394 190.878 209.254 187.938 205.294 187.938C201.374 187.938 198.194 190.878 198.194 195.038C198.194 199.218 201.374 202.158 205.294 202.158C209.254 202.158 212.394 199.218 212.394 195.038ZM200.534 195.038C200.534 191.898 202.534 189.938 205.294 189.938C208.054 189.938 210.054 191.898 210.054 195.038C210.054 198.178 208.054 200.178 205.294 200.178C202.534 200.178 200.534 198.178 200.534 195.038ZM222.018 192.278C222.018 193.658 221.218 194.638 219.438 194.638H216.918V189.978H219.438C221.218 189.978 222.018 190.878 222.018 192.278ZM214.638 188.118V202.018H216.918V196.458H218.658L221.858 202.018H224.578L221.138 196.258C223.478 195.678 224.358 193.918 224.358 192.278C224.358 190.018 222.738 188.118 219.438 188.118H214.638ZM226.555 189.978H230.275V202.018H232.555V189.978H236.255V188.118H226.555V189.978ZM246.244 188.098H238.564V202.018H246.244V200.158H240.844V195.898H245.644V194.038H240.844V189.958H246.244V188.098Z" fill="white"/>
<path d="M182.738 144.195C183.644 144.195 184.437 143.799 185.002 143.063C197.683 126.59 201.533 119.061 201.533 110.852C201.476 100.549 193.098 92.1143 182.738 92.1143C172.378 92.1143 164 100.549 164 110.852C164 119.061 167.849 126.59 180.53 143.063C181.04 143.799 181.832 144.195 182.738 144.195H182.738ZM182.738 93.2464C192.475 93.2464 200.344 101.172 200.344 110.852C200.344 118.777 196.551 126.137 184.04 142.384C183.757 142.836 183.248 143.063 182.738 143.063C182.229 143.063 181.719 142.836 181.38 142.384C168.925 126.136 165.076 118.777 165.076 110.852C165.133 101.172 173.001 93.246 182.738 93.246V93.2464Z" fill="white"/>
<path d="M191.795 111.078C191.795 106.097 187.719 102.021 182.738 102.021C177.756 102.021 173.68 106.096 173.68 111.078C173.68 116.06 177.756 120.136 182.738 120.136C187.719 120.136 191.795 116.06 191.795 111.078ZM174.812 111.078C174.812 106.719 178.379 103.153 182.738 103.153C187.097 103.153 190.663 106.72 190.663 111.078C190.663 115.437 187.096 119.004 182.738 119.004C178.378 119.004 174.812 115.437 174.812 111.078Z" fill="white"/>
</svg>
