<svg width="361" height="279" viewBox="0 0 361 279" fill="none" xmlns="http://www.w3.org/2000/svg">
<rect x="0.450195" y="0.0991211" width="359.729" height="278.114" fill="#673567"/>
<path d="M113.568 202.018H115.848V188.118H113.568V202.018ZM127.981 188.098V198.458L121.121 188.098H118.841V202.018H121.121V191.638L127.981 202.018H130.261V188.098H127.981ZM133.255 202.018H135.535V195.938H140.135V194.078H135.535V189.978H141.435V188.118H133.255V202.018ZM156.988 195.038C156.988 190.878 153.848 187.938 149.888 187.938C145.968 187.938 142.788 190.878 142.788 195.038C142.788 199.218 145.968 202.158 149.888 202.158C153.848 202.158 156.988 199.218 156.988 195.038ZM145.128 195.038C145.128 191.898 147.128 189.938 149.888 189.938C152.648 189.938 154.648 191.898 154.648 195.038C154.648 198.178 152.648 200.178 149.888 200.178C147.128 200.178 145.128 198.178 145.128 195.038ZM166.612 192.278C166.612 193.658 165.812 194.638 164.032 194.638H161.512V189.978H164.032C165.812 189.978 166.612 190.878 166.612 192.278ZM159.232 188.118V202.018H161.512V196.458H163.252L166.452 202.018H169.172L165.732 196.258C168.072 195.678 168.952 193.918 168.952 192.278C168.952 190.018 167.332 188.118 164.032 188.118H159.232ZM171.868 202.018H174.148V192.498L178.408 202.018H179.988L184.228 192.498V202.018H186.508V188.118H184.068L179.208 199.018L174.328 188.118H171.868V202.018ZM198.885 202.018H201.285L196.305 188.098H193.665L188.685 202.018H191.065L192.065 199.178H197.885L198.885 202.018ZM197.245 197.318H192.705L194.985 190.858L197.245 197.318ZM202.69 195.038C202.69 198.938 205.45 201.738 208.99 202.098V204.338H210.09C210.79 204.338 211.21 204.478 211.21 205.078C211.21 205.678 210.79 205.818 210.09 205.818H207.91V207.258H210.55C211.97 207.258 213.09 206.438 213.09 205.078C213.09 203.698 211.97 202.978 210.49 202.978V202.118C213.09 201.898 215.27 200.478 216.25 197.978H213.51C212.77 199.458 211.45 200.158 209.79 200.158C207.03 200.158 205.03 198.178 205.03 195.038C205.03 191.898 207.03 189.938 209.79 189.938C211.45 189.938 212.77 190.638 213.51 192.118H216.25C215.19 189.398 212.69 187.938 209.79 187.938C205.87 187.938 202.69 190.878 202.69 195.038ZM232.359 195.038C232.359 190.878 229.219 187.938 225.259 187.938C221.339 187.938 218.159 190.878 218.159 195.038C218.159 199.218 221.339 202.158 225.259 202.158C229.219 202.158 232.359 199.218 232.359 195.038ZM220.499 195.038C220.499 191.898 222.499 189.938 225.259 189.938C228.019 189.938 230.019 191.898 230.019 195.038C230.019 198.178 228.019 200.178 225.259 200.178C222.499 200.178 220.499 198.178 220.499 195.038ZM221.999 186.958H223.279C223.359 186.378 223.699 186.098 224.139 186.098C224.939 186.098 225.379 186.998 226.459 186.998C227.619 186.998 228.499 186.238 228.719 184.658H227.439C227.359 185.238 227.019 185.498 226.579 185.498C225.779 185.498 225.339 184.618 224.259 184.618C223.099 184.618 222.219 185.378 221.999 186.958ZM242.283 188.098H234.603V202.018H242.283V200.158H236.883V195.898H241.683V194.038H236.883V189.958H242.283V188.098ZM254.471 198.078C254.471 192.998 247.111 194.958 247.111 191.818C247.111 190.478 248.131 189.838 249.451 189.878C250.891 189.918 251.711 190.778 251.791 191.718H254.311C254.111 189.338 252.231 187.938 249.571 187.938C246.731 187.938 244.791 189.458 244.791 191.898C244.791 197.018 252.171 194.838 252.171 198.198C252.171 199.378 251.271 200.238 249.671 200.238C248.091 200.238 247.291 199.318 247.191 198.178H244.751C244.751 200.638 246.891 202.158 249.671 202.158C252.771 202.158 254.471 200.158 254.471 198.078Z" fill="white"/>
<path d="M185.96 91.9342L185.961 91.9349C171.576 92.0223 159.902 103.75 159.902 118.155C159.902 122.671 161.073 127.121 163.291 131.043L159.141 142.602L159.141 142.602C159.078 142.776 159.116 142.97 159.237 143.109H159.237C159.359 143.248 159.546 143.309 159.728 143.269L159.729 143.269L172.373 140.478C176.505 143.028 181.254 144.375 186.122 144.375C200.581 144.375 212.343 132.613 212.343 118.155C212.343 103.696 200.58 91.9342 186.122 91.9342H185.96ZM186.121 143.36C181.372 143.359 176.741 142.026 172.728 139.503C172.645 139.45 172.553 139.425 172.461 139.425C172.401 139.425 172.342 139.437 172.286 139.457L160.407 142.079L164.293 131.256C164.38 131.103 164.385 130.91 164.292 130.749C162.084 126.93 160.917 122.575 160.917 118.155C160.917 104.257 172.224 92.95 186.121 92.95C200.02 92.95 211.326 104.257 211.326 118.155C211.326 132.052 200.019 143.359 186.121 143.359L186.121 143.36Z" fill="white" stroke="white" stroke-width="0.2"/>
<path d="M185.378 103.178C183.639 103.178 182.225 104.592 182.225 106.331C182.225 108.069 183.639 109.483 185.378 109.483C187.116 109.483 188.53 108.069 188.53 106.331C188.53 104.592 187.116 103.178 185.378 103.178ZM185.378 108.467C184.199 108.467 183.241 107.509 183.241 106.331C183.241 105.152 184.199 104.194 185.378 104.194C186.556 104.194 187.515 105.152 187.515 106.331C187.515 107.509 186.556 108.467 185.378 108.467Z" fill="white" stroke="white" stroke-width="0.2"/>
<path d="M187.651 111.99H183.803C183.523 111.99 183.296 112.217 183.296 112.498V132.385C183.296 132.666 183.523 132.893 183.803 132.893H187.651C187.932 132.893 188.159 132.666 188.159 132.385V112.498C188.159 112.217 187.932 111.99 187.651 111.99ZM187.143 131.877H184.311V113.006H187.143V131.877Z" fill="white" stroke="white" stroke-width="0.2"/>
</svg>
