<svg width="361" height="279" viewBox="0 0 361 279" fill="none" xmlns="http://www.w3.org/2000/svg">
<rect x="0.280273" y="0.0991211" width="359.729" height="278.114" fill="#127177"/>
<path d="M112.368 189.978H116.088V202.018H118.368V189.978H122.068V188.118H112.368V189.978ZM131.757 192.278C131.757 193.658 130.957 194.638 129.177 194.638H126.657V189.978H129.177C130.957 189.978 131.757 190.878 131.757 192.278ZM124.377 188.118V202.018H126.657V196.458H128.397L131.597 202.018H134.317L130.877 196.258C133.217 195.678 134.097 193.918 134.097 192.278C134.097 190.018 132.477 188.118 129.177 188.118H124.377ZM146.394 202.018H148.794L143.814 188.098H141.174L136.194 202.018H138.574L139.574 199.178H145.394L146.394 202.018ZM144.754 197.318H140.214L142.494 190.858L144.754 197.318ZM160.099 188.098V198.458L153.239 188.098H150.959V202.018H153.239V191.638L160.099 202.018H162.379V188.098H160.099ZM174.753 198.078C174.753 192.998 167.393 194.958 167.393 191.818C167.393 190.478 168.413 189.838 169.733 189.878C171.173 189.918 171.993 190.778 172.073 191.718H174.593C174.393 189.338 172.513 187.938 169.853 187.938C167.013 187.938 165.073 189.458 165.073 191.898C165.073 197.018 172.453 194.838 172.453 198.198C172.453 199.378 171.553 200.238 169.953 200.238C168.373 200.238 167.573 199.318 167.473 198.178H165.033C165.033 200.638 167.173 202.158 169.953 202.158C173.053 202.158 174.753 200.158 174.753 198.078ZM179.724 194.518V189.978H182.244C184.024 189.978 184.824 190.818 184.824 192.258C184.824 193.658 184.024 194.518 182.244 194.518H179.724ZM187.164 192.258C187.164 189.998 185.544 188.118 182.244 188.118H177.444V202.018H179.724V196.378H182.244C185.864 196.378 187.164 194.238 187.164 192.258ZM202.778 195.038C202.778 190.878 199.638 187.938 195.678 187.938C191.758 187.938 188.578 190.878 188.578 195.038C188.578 199.218 191.758 202.158 195.678 202.158C199.638 202.158 202.778 199.218 202.778 195.038ZM190.918 195.038C190.918 191.898 192.918 189.938 195.678 189.938C198.438 189.938 200.438 191.898 200.438 195.038C200.438 198.178 198.438 200.178 195.678 200.178C192.918 200.178 190.918 198.178 190.918 195.038ZM212.402 192.278C212.402 193.658 211.602 194.638 209.822 194.638H207.302V189.978H209.822C211.602 189.978 212.402 190.878 212.402 192.278ZM205.022 188.118V202.018H207.302V196.458H209.042L212.242 202.018H214.962L211.522 196.258C213.862 195.678 214.742 193.918 214.742 192.278C214.742 190.018 213.122 188.118 209.822 188.118H205.022ZM216.938 189.978H220.658V202.018H222.938V189.978H226.638V188.118H216.938V189.978ZM236.628 188.098H228.948V202.018H236.628V200.158H231.228V195.898H236.028V194.038H231.228V189.958H236.628V188.098ZM248.816 198.078C248.816 192.998 241.456 194.958 241.456 191.818C241.456 190.478 242.476 189.838 243.796 189.878C245.236 189.918 246.056 190.778 246.136 191.718H248.656C248.456 189.338 246.576 187.938 243.916 187.938C241.076 187.938 239.136 189.458 239.136 191.898C239.136 197.018 246.516 194.838 246.516 198.198C246.516 199.378 245.616 200.238 244.016 200.238C242.436 200.238 241.636 199.318 241.536 198.178H239.096C239.096 200.638 241.236 202.158 244.016 202.158C247.116 202.158 248.816 200.158 248.816 198.078Z" fill="white"/>
<path d="M202.671 136.42H156.088C155.817 136.42 155.598 136.2 155.598 135.929V131.026C155.598 130.755 155.817 130.536 156.088 130.536H202.671C202.942 130.536 203.161 130.755 203.161 131.026V135.929C203.161 136.2 202.942 136.42 202.671 136.42ZM156.578 135.439H202.181V131.516H156.578V135.439Z" fill="white"/>
<path d="M194.703 115.58H164.056C163.785 115.58 163.565 115.36 163.565 115.089V101.605C163.565 101.334 163.785 101.115 164.056 101.115H194.703C194.974 101.115 195.193 101.334 195.193 101.605V115.089C195.193 115.36 194.974 115.58 194.703 115.58ZM164.547 114.599H194.213V102.095H164.547V114.599Z" fill="white"/>
<path d="M178.766 115.58C178.495 115.58 178.275 115.36 178.275 115.089V106.508C178.275 106.237 178.495 106.018 178.766 106.018C179.037 106.018 179.256 106.237 179.256 106.508V115.089C179.256 115.36 179.037 115.58 178.766 115.58Z" fill="white"/>
<path d="M166.509 126.613C164.886 126.613 163.566 125.293 163.566 123.671C163.566 122.049 164.886 120.729 166.509 120.729C168.131 120.729 169.451 122.049 169.451 123.671C169.451 125.293 168.131 126.613 166.509 126.613ZM166.509 121.71C165.427 121.71 164.547 122.59 164.547 123.671C164.547 124.752 165.427 125.632 166.509 125.632C167.59 125.632 168.47 124.752 168.47 123.671C168.47 122.59 167.59 121.71 166.509 121.71Z" fill="white"/>
<path d="M193.476 126.613C191.854 126.613 190.534 125.293 190.534 123.671C190.534 122.049 191.854 120.729 193.476 120.729C195.098 120.729 196.418 122.049 196.418 123.671C196.418 125.293 195.098 126.613 193.476 126.613ZM193.476 121.71C192.395 121.71 191.515 122.59 191.515 123.671C191.515 124.752 192.395 125.632 193.476 125.632C194.558 125.632 195.438 124.752 195.438 123.671C195.438 122.59 194.558 121.71 193.476 121.71Z" fill="white"/>
<path d="M166.508 145.001C164.21 145.001 162.34 143.131 162.34 140.833V135.929C162.34 135.658 162.559 135.439 162.83 135.439H170.185C170.456 135.439 170.676 135.658 170.676 135.929V140.833C170.676 143.131 168.806 145.001 166.508 145.001H166.508ZM163.321 136.42V140.833C163.321 142.59 164.75 144.02 166.508 144.02C168.265 144.02 169.695 142.59 169.695 140.833V136.42H163.321Z" fill="white"/>
<path d="M193.477 145.001C191.179 145.001 189.309 143.131 189.309 140.833V135.929C189.309 135.658 189.528 135.439 189.799 135.439H197.154C197.425 135.439 197.645 135.658 197.645 135.929V140.833C197.645 143.131 195.775 145.001 193.477 145.001H193.477ZM190.289 136.42V140.833C190.289 142.59 191.719 144.02 193.477 144.02C195.234 144.02 196.664 142.59 196.664 140.833V136.42H190.289Z" fill="white"/>
<path d="M187.347 97.1921H171.41C171.139 97.1921 170.92 96.9728 170.92 96.7018C170.92 96.4308 171.139 96.2114 171.41 96.2114H187.347C187.618 96.2114 187.837 96.4308 187.837 96.7018C187.837 96.9728 187.618 97.1921 187.347 97.1921Z" fill="white"/>
<path d="M204.51 145.001H155.475C155.204 145.001 154.984 144.781 154.984 144.51C154.984 144.239 155.204 144.02 155.475 144.02H204.51C204.781 144.02 205 144.239 205 144.51C205 144.781 204.781 145.001 204.51 145.001Z" fill="white"/>
<path d="M172.637 126.613C172.366 126.613 172.146 126.394 172.146 126.123V119.993C172.146 119.722 172.366 119.503 172.637 119.503C172.908 119.503 173.127 119.722 173.127 119.993V126.123C173.127 126.394 172.908 126.613 172.637 126.613Z" fill="white"/>
<path d="M176.315 126.613C176.044 126.613 175.824 126.394 175.824 126.123V119.993C175.824 119.722 176.044 119.503 176.315 119.503C176.586 119.503 176.805 119.722 176.805 119.993V126.123C176.805 126.394 176.586 126.613 176.315 126.613Z" fill="white"/>
<path d="M179.991 126.613C179.72 126.613 179.501 126.394 179.501 126.123V119.993C179.501 119.722 179.72 119.503 179.991 119.503C180.262 119.503 180.482 119.722 180.482 119.993V126.123C180.482 126.394 180.262 126.613 179.991 126.613Z" fill="white"/>
<path d="M183.669 126.613C183.398 126.613 183.179 126.394 183.179 126.123V119.993C183.179 119.722 183.398 119.503 183.669 119.503C183.94 119.503 184.159 119.722 184.159 119.993V126.123C184.159 126.394 183.94 126.613 183.669 126.613Z" fill="white"/>
<path d="M187.347 126.613C187.076 126.613 186.856 126.394 186.856 126.123V119.993C186.856 119.722 187.076 119.503 187.347 119.503C187.618 119.503 187.837 119.722 187.837 119.993V126.123C187.837 126.394 187.618 126.613 187.347 126.613Z" fill="white"/>
<path d="M200.832 131.517H157.927C157.656 131.517 157.437 131.297 157.437 131.026V117.357C157.437 116.555 157.749 115.801 158.316 115.233L159.296 114.254C159.678 113.872 159.888 113.364 159.888 112.824V101.79C159.888 96.0103 164.59 91.3086 170.37 91.3086H188.39C194.169 91.3086 198.871 96.0102 198.871 101.79V112.824C198.871 113.364 199.081 113.872 199.463 114.254L200.443 115.234C201.011 115.801 201.323 116.556 201.323 117.358V131.027C201.323 131.298 201.103 131.517 200.832 131.517L200.832 131.517ZM158.417 130.536H200.341V117.357C200.341 116.816 200.131 116.308 199.749 115.926L198.769 114.947C198.202 114.379 197.89 113.625 197.89 112.823L197.889 101.789C197.889 96.5509 193.627 92.2887 188.389 92.2887H170.369C165.13 92.2887 160.868 96.5508 160.868 101.789V112.823C160.868 113.625 160.556 114.38 159.989 114.947L159.009 115.927C158.627 116.308 158.416 116.817 158.416 117.357L158.417 130.536Z" fill="white"/>
</svg>
