<svg width="42" height="43" viewBox="0 0 42 43" fill="none" xmlns="http://www.w3.org/2000/svg">
<g opacity="0.9">
<path d="M14.9224 19.8027C14.9774 19.9195 15.0948 19.9918 15.2213 19.992M14.9224 19.8027C14.9224 19.8027 14.9223 19.8026 14.9223 19.8026L15.2213 19.992M14.9224 19.8027C14.8129 19.5721 13.4982 16.7663 12.5081 13.2966C12.013 11.5613 11.5983 9.65736 11.4568 7.82473C11.3155 5.99325 11.4464 4.22515 12.0496 2.76661M14.9224 19.8027L12.0496 2.76661M15.2213 19.992L15.2213 19.9921C15.2314 19.9921 15.2463 19.9911 15.2475 19.991L15.2476 19.9911L15.2525 19.9907C15.3908 19.9775 15.507 19.8796 15.5419 19.7444C15.8814 18.4355 16.8728 17.2977 17.7957 16.4794C18.7163 15.663 19.5556 15.1761 19.5715 15.167L19.5723 15.1665L19.5734 15.1659C19.6103 15.1441 20.4357 14.6569 21.5798 14.2559C22.7432 13.8481 24.2195 13.5354 25.5281 13.8748C25.663 13.9109 25.8059 13.8569 25.8844 13.7425C25.9642 13.6279 25.9627 13.4756 25.8815 13.3624C25.734 13.1555 23.9219 10.6413 21.3714 8.08778C20.0961 6.81099 18.6343 5.52237 17.1019 4.5072C15.5706 3.49282 13.9623 2.74707 12.3946 2.56433C12.244 2.54491 12.1053 2.63108 12.0496 2.76661M15.2213 19.992L12.0496 2.76661M17.5003 15.8485C16.663 16.5669 15.7207 17.5678 15.1864 18.7674C14.6558 17.5357 13.6083 14.9368 12.8756 12.0476C12.1038 9.00413 11.6878 5.66269 12.5692 3.25588C15.1001 3.65643 17.8174 5.64544 20.1013 7.8005C22.2695 9.84626 24.031 12.0258 24.8491 13.0886C23.5405 12.9719 22.2076 13.308 21.1731 13.6896C20.0809 14.0924 19.3111 14.5497 19.2368 14.5949C19.1597 14.6391 18.3844 15.0899 17.5003 15.8485Z" fill="white" stroke="white" stroke-width="0.2"/>
<path d="M5.59609 23.4037C5.54587 23.362 5.50798 23.3056 5.48924 23.2402C3.33263 15.7342 5.2601 10.5245 7.26298 7.47422C9.43211 4.1707 12.0751 2.67013 12.1939 2.60403L5.59609 23.4037ZM5.59609 23.4037L5.4845 23.4801H5.80739C5.92166 23.4801 6.02831 23.4211 6.08868 23.3227L6.07779 23.3161L6.10521 23.2973M5.59609 23.4037L6.07729 23.3164L6.08834 23.3233C6.08922 23.3219 6.09485 23.313 6.10521 23.2973M6.10521 23.2973C6.10855 23.2922 6.11239 23.2864 6.11672 23.28M6.10521 23.2973L6.13046 23.28H6.11672M6.11672 23.28H6.01903L15.1427 19.9829C15.1427 19.9829 15.1427 19.9829 15.1426 19.9829M6.11672 23.28C6.26773 23.0548 7.01886 21.9972 8.37018 21.0903C9.87753 20.0787 12.1323 19.2538 15.1426 19.9829M15.1426 19.9829C15.2667 20.0131 15.3972 19.9687 15.4775 19.8701C15.558 19.7713 15.5744 19.6347 15.52 19.5197L15.4296 19.5624L15.52 19.5197C15.4952 19.4672 14.2072 16.7189 13.2128 13.2904C12.7156 11.5761 12.2927 9.69454 12.1371 7.89656C11.9814 6.09719 12.0943 4.39043 12.6607 3.02019C12.6608 3.02015 12.6608 3.02012 12.6608 3.02008L15.1426 19.9829ZM6.0188 23.28H5.99727H6.0188ZM5.94776 22.4075C4.15013 15.4941 5.94751 10.6931 7.8046 7.85622L7.72094 7.80145L7.80461 7.85622C9.18478 5.74775 10.7988 4.3847 11.7353 3.7024C11.0393 6.32755 11.5391 9.68089 12.3256 12.6368C13.0981 15.5402 14.1524 18.0784 14.6483 19.2019C9.87536 18.3444 6.97142 21.1625 5.94776 22.4075Z" fill="white" stroke="white" stroke-width="0.2"/>
<path d="M25.343 13.7462C25.4053 13.8342 25.5066 13.8852 25.6121 13.8852M25.343 13.7462C25.3429 13.7462 25.3429 13.7461 25.3429 13.7461L25.4245 13.6883M25.343 13.7462C25.343 13.7463 25.343 13.7463 25.343 13.7463L25.4245 13.6883M25.343 13.7462C25.3064 13.6951 23.5321 11.2346 21.022 8.70006C19.7658 7.43175 18.3274 6.14693 16.8321 5.13637C15.3356 4.125 13.7894 3.39338 12.3168 3.22176L12.3166 3.22175C12.1773 3.2053 12.0629 3.10261 12.0319 2.9649L12.0317 2.96435C12.0016 2.8271 12.0613 2.68518 12.1811 2.61111M25.6121 13.8852L25.4245 13.6883M25.6121 13.8852C25.6302 13.8852 25.6497 13.8839 25.6713 13.8797C25.7965 13.8572 25.8973 13.7649 25.9314 13.6424L25.9314 13.6423C27.5812 7.68983 33.0272 7.36815 33.2544 7.35762C33.3856 7.35162 33.4999 7.26825 33.5476 7.14702L33.5478 7.14642C33.5948 7.02458 33.566 6.88633 33.4739 6.79329L33.4737 6.79311C27.965 1.25773 22.4742 0.406127 18.8352 0.672943C14.8932 0.96081 12.2961 2.53997 12.1811 2.61111M25.6121 13.8852L33.4028 6.86365C27.9171 1.35136 22.4561 0.507728 18.8424 0.772678C14.9227 1.05892 12.3414 2.62952 12.2337 2.69616M25.4245 13.6883C25.354 13.5895 18.3097 3.81948 12.3284 3.12244C12.2311 3.11096 12.1511 3.03922 12.1294 2.94293C12.1084 2.84696 12.1501 2.74781 12.2337 2.69616M12.1811 2.61111L12.2337 2.69616M12.1811 2.61111C12.1811 2.61111 12.1811 2.61111 12.1811 2.61111L12.2337 2.69616M32.5226 6.78869C30.937 7.07713 27.0618 8.24339 25.4895 12.8308C24.7489 11.8512 23.044 9.69519 20.8829 7.60776C18.6825 5.48239 15.9951 3.41423 13.3621 2.74559C14.4091 2.26087 16.3756 1.51698 18.8837 1.33382L18.8764 1.23409L18.8837 1.33382C22.2721 1.08628 27.3484 1.84742 32.5226 6.78869Z" fill="white" stroke="white" stroke-width="0.2"/>
<path d="M13.6557 2.50304C12.9251 2.81822 12.5017 3.07444 12.4766 3.08963C12.4759 3.09004 12.4755 3.09027 12.4754 3.09033M13.6557 2.50304L11.3456 3.86239C11.3574 3.85627 11.3687 3.84909 11.3793 3.84086C12.0271 3.34349 12.4627 3.09766 12.4668 3.09543C12.4682 3.09438 12.4698 3.09353 12.4714 3.09265C12.4727 3.09193 12.4741 3.0912 12.4754 3.09033M13.6557 2.50304C13.7138 2.47785 13.7555 2.42174 13.7769 2.3618M13.6557 2.50304L13.7629 2.17114M12.4754 3.09033L12.5181 3.16383L12.5254 3.17644M12.4754 3.09033L12.5254 3.17644M10.9887 3.69641L10.9024 3.74686C10.9211 3.77883 10.9411 3.8086 10.9667 3.84521L10.9667 3.84523C11.0058 3.90106 11.0606 3.94322 11.1234 3.96683L12.5254 3.17646L12.5224 3.17873M10.9887 3.69641L10.9025 3.74709C10.4317 2.9461 10.7004 1.91178 11.5008 1.44155C11.8883 1.21322 12.3416 1.14943 12.778 1.26325C13.2133 1.3764 13.579 1.65251 13.8067 2.04015L13.7205 2.09079M10.9887 3.69641C10.5459 2.94301 10.7987 1.96996 11.5515 1.52774C11.9162 1.31285 12.3422 1.2529 12.7528 1.36003C13.1625 1.46652 13.5062 1.72605 13.7205 2.09079M10.9887 3.69641L13.7629 2.17114M13.7205 2.09079L13.8063 2.0395C13.8239 2.06901 13.839 2.09855 13.8528 2.12732C13.8913 2.20511 13.9034 2.30772 13.8707 2.39642L13.7769 2.3618M13.7205 2.09079C13.7361 2.11694 13.7498 2.14372 13.7629 2.17114M13.7769 2.3618L13.8711 2.39537C13.8437 2.47234 13.7866 2.55525 13.6955 2.59477L13.6953 2.59486C12.9864 2.90066 12.5698 3.1501 12.5289 3.1748C12.5263 3.17649 12.524 3.17781 12.5224 3.17873M13.7769 2.3618C13.7989 2.30218 13.7912 2.22789 13.7629 2.17114M12.5224 3.17873C12.5224 3.17875 12.5223 3.17876 12.5223 3.17878L12.5185 3.18085C12.5179 3.18117 12.5188 3.18073 12.52 3.18001C12.5211 3.17935 12.523 3.17816 12.5254 3.17644M12.5224 3.17873L12.5208 3.17993L12.5142 3.18348C12.5142 3.18347 12.5142 3.18351 12.514 3.1836C12.5031 3.1898 12.0751 3.43272 11.4402 3.92018L12.5254 3.17644M12.6368 1.80701C12.8376 1.85927 13.0167 1.96358 13.158 2.10903L12.6368 1.80701ZM12.6368 1.80701C12.5858 1.79366 12.5343 1.78408 12.4826 1.77812L12.6368 1.80701ZM12.6368 1.80701L12.6368 1.80701L12.6368 1.80701ZM12.3527 1.8707H12.3611C12.4447 1.87137 12.529 1.88215 12.6114 1.90375L12.6116 1.90379C12.7831 1.94841 12.9368 2.03446 13.0611 2.15372C12.5391 2.39697 12.236 2.57818 12.1869 2.60809C12.137 2.63634 11.8314 2.81264 11.3651 3.15042C11.2534 2.71969 11.4344 2.24839 11.8365 2.01218L11.8365 2.01218C11.9959 1.91849 12.1733 1.8707 12.3527 1.8707Z" fill="white" stroke="white" stroke-width="0.2"/>
<path d="M28.449 30.0412H28.2071C28.0943 30.0412 27.984 29.9837 27.9218 29.8786L27.9218 29.8787L27.9726 29.8486M28.449 30.0412L28.3756 29.9946C28.3757 29.9945 28.3757 29.9945 28.3757 29.9945C28.3227 30.0263 28.2644 30.0408 28.2071 30.0409C28.207 30.0409 28.2069 30.0409 28.2068 30.0409V29.9415L28.1365 30.012L28.1362 30.0117L27.9726 29.8486M28.449 30.0412L28.3919 29.9842M28.449 30.0412L28.3919 29.9842M27.9726 29.8486L27.9725 29.8485M27.9726 29.8486L27.9856 29.8409M28.3919 29.9842C28.5359 29.8868 28.5814 29.6928 28.4914 29.541L28.4914 29.541L19.6878 14.713C19.6878 14.713 19.6877 14.7129 19.6877 14.7129C19.5942 14.5552 19.3913 14.5033 19.234 14.5971L19.234 14.5971C19.0772 14.6905 19.0248 14.8932 19.1181 15.0506L19.1182 15.0506L27.9217 29.8786L28.3919 29.9842ZM27.9725 29.8485L28.2068 29.9412C28.2067 29.9412 28.2066 29.9412 28.2065 29.9412C28.1325 29.941 28.0605 29.9056 28.0162 29.8409H27.9856M27.9725 29.8485L27.9855 29.8409M27.9725 29.8485L27.9648 29.8409H27.9855M27.9856 29.8409L28.0078 29.8277L27.9855 29.8409M27.9856 29.8409H27.9855" fill="white" stroke="white" stroke-width="0.2"/>
<path d="M20.7765 41.9629V41.9628C20.9356 41.9627 21.0747 41.8486 21.1026 41.688L21.1028 41.6868L21.1029 41.6862C21.103 41.6857 21.1031 41.6848 21.1034 41.6835L21.1051 41.6737L21.1119 41.6374C21.1179 41.6059 21.127 41.5601 21.1395 41.501C21.1644 41.3827 21.2029 41.2111 21.2578 40.9939C21.3677 40.5595 21.5433 39.9429 21.8073 39.206C22.3354 37.7319 23.2169 35.7783 24.6331 33.8394C27.2378 30.274 32.249 26.0184 41.3369 26.0184C41.5201 26.0184 41.6681 25.8699 41.6681 25.6872C41.6681 25.504 41.5196 25.3561 41.3369 25.3561C31.9702 25.3561 26.7854 29.7633 24.0871 33.4646C21.1691 37.4667 20.4578 41.5295 20.4497 41.5768L20.4496 41.577C20.419 41.7574 20.5411 41.9282 20.7211 41.9583L20.7212 41.9583C20.7403 41.9615 20.7586 41.9629 20.7765 41.9629ZM24.1679 33.5235C26.8509 29.8432 32.0077 25.4561 41.3369 25.4561C41.4645 25.4561 41.5681 25.5594 41.5681 25.6872C41.5681 25.8147 41.4648 25.9184 41.3369 25.9184C32.2117 25.9184 27.1724 30.1939 24.5524 33.7804C21.7058 37.6775 21.0104 41.6314 21.0041 41.6709C20.9848 41.7821 20.8891 41.8614 20.7791 41.8628L24.1679 33.5235Z" fill="white" stroke="white" stroke-width="0.2"/>
<path d="M22.7971 36.388H0.661815C0.478646 36.388 0.330664 36.2395 0.330664 36.0568C0.330664 35.8742 0.478646 35.7257 0.661815 35.7257H22.7975C22.98 35.7257 23.1285 35.8735 23.1286 36.0566C23.1286 36.0567 23.1286 36.0568 23.1286 36.0568H23.0286C23.0289 36.1846 22.9252 36.2878 22.7975 36.288L22.7971 36.388ZM22.7971 36.388C22.7972 36.388 22.7974 36.388 22.7975 36.388H22.7971Z" fill="white" stroke="white" stroke-width="0.2"/>
<path d="M0.661497 38.0727H1.47038C1.65319 38.0727 1.80231 37.9258 1.80185 37.7416L1.70185 37.7419H1.80185C1.80185 37.5587 1.65337 37.4107 1.4707 37.4107H0.661815C0.478646 37.4107 0.330664 37.5592 0.330664 37.7419C0.330664 37.9247 0.478736 38.0727 0.661497 38.0727Z" fill="white" stroke="white" stroke-width="0.2"/>
<path d="M18.1061 38.0726H19.618C19.8006 38.0726 19.9491 37.9246 19.9491 37.7414C19.9491 37.5582 19.8006 37.4103 19.618 37.4103H18.1061C17.923 37.4103 17.775 37.5583 17.775 37.7414C17.775 37.9246 17.9234 38.0726 18.1061 38.0726ZM15.081 38.0726H16.5935C16.7766 38.0726 16.9247 37.9245 16.9247 37.7414C16.9247 37.5582 16.7762 37.4103 16.5935 37.4103H15.081C14.8979 37.4103 14.7498 37.5583 14.7498 37.7414C14.7498 37.9246 14.8983 38.0726 15.081 38.0726ZM12.0572 38.0726H13.569C13.7521 38.0726 13.9002 37.9245 13.9002 37.7414C13.9002 37.5582 13.7517 37.4103 13.569 37.4103H12.0572C11.8741 37.4103 11.726 37.5583 11.726 37.7414C11.726 37.9246 11.8745 38.0726 12.0572 38.0726ZM9.03237 38.0726H10.5449C10.7276 38.0726 10.876 37.9246 10.876 37.7414C10.876 37.5582 10.7276 37.4103 10.5449 37.4103H9.03237C8.84929 37.4103 8.70122 37.5583 8.70122 37.7414C8.70122 37.9246 8.8497 38.0726 9.03237 38.0726ZM6.00855 38.0726H7.52042C7.70309 38.0726 7.85157 37.9246 7.85157 37.7414C7.85157 37.5582 7.70309 37.4103 7.52042 37.4103H6.00855C5.82547 37.4103 5.6774 37.5583 5.6774 37.7414C5.6774 37.9246 5.82588 38.0726 6.00855 38.0726ZM2.98408 38.0726H4.49595C4.67862 38.0726 4.8271 37.9246 4.8271 37.7414C4.8271 37.5582 4.67862 37.4103 4.49595 37.4103H2.98408C2.801 37.4103 2.65293 37.5583 2.65293 37.7414C2.65293 37.9246 2.80141 38.0726 2.98408 38.0726Z" fill="white" stroke="white" stroke-width="0.2"/>
<path d="M21.1296 38.0726H21.9385C22.1215 38.0726 22.2696 37.9245 22.2696 37.7414C22.2696 37.5582 22.1211 37.4103 21.9385 37.4103H21.1296C20.9465 37.4103 20.7984 37.5583 20.7984 37.7414C20.7984 37.9246 20.9469 38.0726 21.1296 38.0726Z" fill="white" stroke="white" stroke-width="0.2"/>
<mask id="path-11-outside-1_1180_2950" maskUnits="userSpaceOnUse" x="-0.569336" y="38.5122" width="3" height="2" fill="black">
<rect fill="white" x="-0.569336" y="38.5122" width="3" height="2"/>
<path d="M1.81757 39.9748H0.661815C0.533964 39.9748 0.430664 39.8709 0.430664 39.7434C0.430664 39.6158 0.533964 39.5122 0.661815 39.5122H1.81724C1.94478 39.5122 2.04839 39.6155 2.04839 39.7434C2.04871 39.8715 1.94509 39.9748 1.81756 39.9748H1.81757Z"/>
</mask>
<path d="M1.81757 39.9748H0.661815C0.533964 39.9748 0.430664 39.8709 0.430664 39.7434C0.430664 39.6158 0.533964 39.5122 0.661815 39.5122H1.81724C1.94478 39.5122 2.04839 39.6155 2.04839 39.7434C2.04871 39.8715 1.94509 39.9748 1.81756 39.9748H1.81757Z" fill="white"/>
<path d="M2.04839 39.7434H1.84839L1.8484 39.7439L2.04839 39.7434ZM1.81757 39.7748H0.661815V40.1748H1.81757V39.7748ZM0.661815 39.7748C0.644959 39.7748 0.630664 39.761 0.630664 39.7434H0.230664C0.230664 39.9808 0.422969 40.1748 0.661815 40.1748V39.7748ZM0.630664 39.7434C0.630664 39.7261 0.6446 39.7122 0.661815 39.7122V39.3122C0.423327 39.3122 0.230664 39.5055 0.230664 39.7434H0.630664ZM0.661815 39.7122H1.81724V39.3122H0.661815V39.7122ZM1.81724 39.7122C1.8345 39.7122 1.84839 39.7261 1.84839 39.7434H2.24839C2.24839 39.5049 2.05505 39.3122 1.81724 39.3122V39.7122ZM1.8484 39.7439C1.84844 39.7611 1.83473 39.7748 1.81756 39.7748V40.1748C2.05546 40.1748 2.24899 39.982 2.24839 39.7429L1.8484 39.7439ZM1.81756 40.1748H1.81757V39.7748H1.81756V40.1748Z" fill="white" mask="url(#path-11-outside-1_1180_2950)"/>
<mask id="path-13-outside-2_1180_2950" maskUnits="userSpaceOnUse" x="3.19043" y="38.5127" width="15" height="2" fill="black">
<rect fill="white" x="3.19043" y="38.5127" width="15" height="2"/>
<path d="M17.4411 39.975H14.8372C14.7097 39.975 14.6061 39.8717 14.6061 39.7438C14.6061 39.616 14.7094 39.5127 14.8372 39.5127H17.4411C17.5687 39.5127 17.6723 39.616 17.6723 39.7438C17.6723 39.8717 17.569 39.975 17.4411 39.975ZM12.2336 39.975H9.62974C9.50221 39.975 9.39859 39.8717 9.39859 39.7438C9.39859 39.616 9.50189 39.5127 9.62974 39.5127H12.2336C12.3612 39.5127 12.4648 39.616 12.4648 39.7438C12.4648 39.8717 12.3612 39.975 12.2336 39.975ZM7.02578 39.975H4.42158C4.29405 39.975 4.19043 39.8717 4.19043 39.7438C4.19043 39.616 4.29373 39.5127 4.42158 39.5127H7.02546C7.15299 39.5127 7.25661 39.616 7.25661 39.7438C7.25693 39.8717 7.15331 39.975 7.02578 39.975H7.02578Z"/>
</mask>
<path d="M17.4411 39.975H14.8372C14.7097 39.975 14.6061 39.8717 14.6061 39.7438C14.6061 39.616 14.7094 39.5127 14.8372 39.5127H17.4411C17.5687 39.5127 17.6723 39.616 17.6723 39.7438C17.6723 39.8717 17.569 39.975 17.4411 39.975ZM12.2336 39.975H9.62974C9.50221 39.975 9.39859 39.8717 9.39859 39.7438C9.39859 39.616 9.50189 39.5127 9.62974 39.5127H12.2336C12.3612 39.5127 12.4648 39.616 12.4648 39.7438C12.4648 39.8717 12.3612 39.975 12.2336 39.975ZM7.02578 39.975H4.42158C4.29405 39.975 4.19043 39.8717 4.19043 39.7438C4.19043 39.616 4.29373 39.5127 4.42158 39.5127H7.02546C7.15299 39.5127 7.25661 39.616 7.25661 39.7438C7.25693 39.8717 7.15331 39.975 7.02578 39.975H7.02578Z" fill="white"/>
<path d="M7.25661 39.7438H7.05661L7.05661 39.7443L7.25661 39.7438ZM17.4411 39.775H14.8372V40.175H17.4411V39.775ZM14.8372 39.775C14.82 39.775 14.8061 39.7611 14.8061 39.7438H14.4061C14.4061 39.9823 14.5994 40.175 14.8372 40.175V39.775ZM14.8061 39.7438C14.8061 39.7265 14.8199 39.7127 14.8372 39.7127V39.3127C14.5989 39.3127 14.4061 39.5055 14.4061 39.7438H14.8061ZM14.8372 39.7127H17.4411V39.3127H14.8372V39.7127ZM17.4411 39.7127C17.4584 39.7127 17.4723 39.7266 17.4723 39.7438H17.8723C17.8723 39.5054 17.6789 39.3127 17.4411 39.3127V39.7127ZM17.4723 39.7438C17.4723 39.7612 17.4585 39.775 17.4411 39.775V40.175C17.6794 40.175 17.8723 39.9822 17.8723 39.7438H17.4723ZM12.2336 39.775H9.62974V40.175H12.2336V39.775ZM9.62974 39.775C9.61249 39.775 9.59859 39.7611 9.59859 39.7438H9.19859C9.19859 39.9823 9.39193 40.175 9.62974 40.175V39.775ZM9.59859 39.7438C9.59859 39.7265 9.61235 39.7127 9.62974 39.7127V39.3127C9.39143 39.3127 9.19859 39.5055 9.19859 39.7438H9.59859ZM9.62974 39.7127H12.2336V39.3127H9.62974V39.7127ZM12.2336 39.7127C12.2509 39.7127 12.2648 39.7266 12.2648 39.7438H12.6648C12.6648 39.5054 12.4714 39.3127 12.2336 39.3127V39.7127ZM12.2648 39.7438C12.2648 39.7611 12.2509 39.775 12.2336 39.775V40.175C12.4714 40.175 12.6648 39.9823 12.6648 39.7438H12.2648ZM7.02578 39.775H4.42158V40.175H7.02578V39.775ZM4.42158 39.775C4.40433 39.775 4.39043 39.7611 4.39043 39.7438H3.99043C3.99043 39.9823 4.18377 40.175 4.42158 40.175V39.775ZM4.39043 39.7438C4.39043 39.7265 4.40419 39.7127 4.42158 39.7127V39.3127C4.18327 39.3127 3.99043 39.5055 3.99043 39.7438H4.39043ZM4.42158 39.7127H7.02546V39.3127H4.42158V39.7127ZM7.02546 39.7127C7.04271 39.7127 7.05661 39.7266 7.05661 39.7438H7.45661C7.45661 39.5054 7.26327 39.3127 7.02546 39.3127V39.7127ZM7.05661 39.7443C7.05665 39.7611 7.04313 39.775 7.02578 39.775V40.175C7.26349 40.175 7.4572 39.9823 7.45661 39.7433L7.05661 39.7443ZM7.02578 40.175H7.02578V39.775H7.02578V40.175Z" fill="white" mask="url(#path-13-outside-2_1180_2950)"/>
<path d="M20.0446 40.075H21.2001C21.3833 40.075 21.5317 39.927 21.5312 39.7436L21.4312 39.7438H21.5312C21.5312 39.5607 21.3827 39.4127 21.2001 39.4127H20.0446C19.8615 39.4127 19.7135 39.5608 19.7135 39.7438C19.7135 39.927 19.862 40.075 20.0446 40.075Z" fill="white" stroke="white" stroke-width="0.2"/>
<path d="M0.661497 41.9629H1.47038C1.65328 41.9629 1.80231 41.8156 1.80185 41.6318L1.70185 41.632H1.80185C1.80185 41.4489 1.65337 41.3009 1.4707 41.3009H0.661815C0.478644 41.3009 0.330664 41.4494 0.330664 41.632C0.330664 41.8148 0.478737 41.9629 0.661497 41.9629Z" fill="white" stroke="white" stroke-width="0.2"/>
<path d="M15.2529 41.6315C15.2529 41.4484 15.1044 41.3004 14.9217 41.3004H13.2402C13.0571 41.3004 12.909 41.4485 12.909 41.6315C12.909 41.8147 13.0575 41.9627 13.2402 41.9627H14.9217C15.1049 41.9627 15.2532 41.8148 15.2529 41.6315ZM15.2529 41.6315H15.1529L15.2529 41.6313C15.2529 41.6314 15.2529 41.6315 15.2529 41.6315ZM11.8902 41.6315C11.8902 41.4484 11.7417 41.3004 11.559 41.3004H9.87747C9.69439 41.3004 9.54632 41.4485 9.54632 41.6315C9.54632 41.8147 9.6948 41.9627 9.87747 41.9627H11.559C11.7414 41.9627 11.8905 41.815 11.8902 41.6315ZM11.8902 41.6315H11.7902L11.8902 41.6313C11.8902 41.6314 11.8902 41.6315 11.8902 41.6315ZM5.16378 41.6314C5.16371 41.4483 5.01526 41.3004 4.83263 41.3004H3.15107C2.96799 41.3004 2.81992 41.4485 2.81992 41.6315C2.81992 41.8147 2.9684 41.9627 3.15107 41.9627H4.83263C5.01585 41.9627 5.16417 41.8148 5.16378 41.6314ZM5.16378 41.6314C5.16378 41.6314 5.16378 41.6313 5.16378 41.6313L5.06378 41.6315H5.16378C5.16378 41.6315 5.16378 41.6315 5.16378 41.6314ZM16.6035 41.9627H18.2851C18.4678 41.9627 18.6162 41.8147 18.6162 41.6315C18.6162 41.4484 18.4678 41.3004 18.2851 41.3004H16.6035C16.4205 41.3004 16.2724 41.4485 16.2724 41.6315C16.2724 41.8147 16.4209 41.9627 16.6035 41.9627ZM6.51443 41.9627H8.19599C8.37907 41.9627 8.52714 41.8146 8.52714 41.6315C8.52714 41.4484 8.37866 41.3004 8.19599 41.3004H6.51443C6.33136 41.3004 6.18328 41.4485 6.18328 41.6315C6.18328 41.8147 6.33176 41.9627 6.51443 41.9627Z" fill="white" stroke="white" stroke-width="0.2"/>
<path d="M19.9675 41.9627H20.7764C20.9588 41.9627 21.108 41.8149 21.1075 41.6313L21.0075 41.6315H21.1075C21.1075 41.4484 20.959 41.3004 20.7764 41.3004H19.9675C19.7844 41.3004 19.6363 41.4485 19.6363 41.6315C19.6363 41.8147 19.7848 41.9627 19.9675 41.9627Z" fill="white" stroke="white" stroke-width="0.2"/>
</g>
</svg>
