<svg width="224" height="89" viewBox="0 0 224 89" fill="none" xmlns="http://www.w3.org/2000/svg">
<g filter="url(#filter0_d_1180_2832)">
<rect x="13" y="13.1875" width="190" height="54" rx="27" fill="#121212"/>
<path d="M52.0652 39.6893C52.0515 37.1181 53.1124 35.1804 55.2549 33.7516C54.0567 31.8666 52.2438 30.8299 49.8541 30.6301C47.5914 30.434 45.1159 32.0777 44.2094 32.0777C43.2515 32.0777 41.0609 30.6979 39.3373 30.6979C35.7803 30.7582 32 33.8119 32 40.0248C32 41.8607 32.3056 43.757 32.9167 45.7099C33.7339 48.281 36.6798 54.5805 39.7528 54.4788C41.3597 54.4373 42.4961 53.2271 44.5871 53.2271C46.6163 53.2271 47.667 54.4788 49.4592 54.4788C52.5597 54.4298 55.224 48.7032 56 46.1246C51.8421 43.9719 52.0652 39.8212 52.0652 39.6893ZM48.4567 28.1909C50.1974 25.9214 50.0395 23.8555 49.988 23.1128C48.4498 23.2108 46.6712 24.2626 45.6584 25.5557C44.5425 26.9431 43.8867 28.6584 44.0275 30.5924C45.6893 30.7319 47.2069 29.7931 48.4567 28.1909Z" fill="white"/>
<path d="M73.026 26.8875H75.591C76.257 26.8875 76.845 27.0225 77.355 27.2925C77.865 27.5565 78.261 27.9285 78.543 28.4085C78.825 28.8825 78.966 29.4255 78.966 30.0375C78.966 30.6495 78.825 31.1955 78.543 31.6755C78.261 32.1495 77.865 32.5215 77.355 32.7915C76.845 33.0555 76.257 33.1875 75.591 33.1875H73.026V26.8875ZM75.555 32.6115C76.107 32.6115 76.59 32.5035 77.004 32.2875C77.418 32.0655 77.739 31.7625 77.967 31.3785C78.195 30.9885 78.309 30.5415 78.309 30.0375C78.309 29.5335 78.195 29.0895 77.967 28.7055C77.739 28.3155 77.418 28.0125 77.004 27.7965C76.59 27.5745 76.107 27.4635 75.555 27.4635H73.692V32.6115H75.555ZM83.2155 33.2415C82.5915 33.2415 82.0245 33.1035 81.5145 32.8275C81.0105 32.5455 80.6145 32.1615 80.3265 31.6755C80.0445 31.1895 79.9035 30.6435 79.9035 30.0375C79.9035 29.4315 80.0445 28.8855 80.3265 28.3995C80.6145 27.9135 81.0105 27.5325 81.5145 27.2565C82.0245 26.9745 82.5915 26.8335 83.2155 26.8335C83.8395 26.8335 84.4005 26.9715 84.8985 27.2475C85.4025 27.5235 85.7985 27.9075 86.0865 28.3995C86.3745 28.8855 86.5185 29.4315 86.5185 30.0375C86.5185 30.6435 86.3745 31.1925 86.0865 31.6845C85.7985 32.1705 85.4025 32.5515 84.8985 32.8275C84.4005 33.1035 83.8395 33.2415 83.2155 33.2415ZM83.2155 32.6475C83.7135 32.6475 84.1635 32.5365 84.5655 32.3145C84.9675 32.0865 85.2825 31.7745 85.5105 31.3785C85.7385 30.9765 85.8525 30.5295 85.8525 30.0375C85.8525 29.5455 85.7385 29.1015 85.5105 28.7055C85.2825 28.3035 84.9675 27.9915 84.5655 27.7695C84.1635 27.5415 83.7135 27.4275 83.2155 27.4275C82.7175 27.4275 82.2645 27.5415 81.8565 27.7695C81.4545 27.9915 81.1365 28.3035 80.9025 28.7055C80.6745 29.1015 80.5605 29.5455 80.5605 30.0375C80.5605 30.5295 80.6745 30.9765 80.9025 31.3785C81.1365 31.7745 81.4545 32.0865 81.8565 32.3145C82.2645 32.5365 82.7175 32.6475 83.2155 32.6475ZM96.467 26.8875L94.343 33.1875H93.641L91.796 27.8145L89.942 33.1875H89.249L87.125 26.8875H87.809L89.627 32.3055L91.508 26.8875H92.129L93.983 32.3325L95.828 26.8875H96.467ZM102.953 26.8875V33.1875H102.404L98.3541 28.0755V33.1875H97.6881V26.8875H98.2371L102.296 31.9995V26.8875H102.953ZM105.009 26.8875H105.675V32.6115H109.203V33.1875H105.009V26.8875ZM112.94 33.2415C112.316 33.2415 111.749 33.1035 111.239 32.8275C110.735 32.5455 110.339 32.1615 110.051 31.6755C109.769 31.1895 109.628 30.6435 109.628 30.0375C109.628 29.4315 109.769 28.8855 110.051 28.3995C110.339 27.9135 110.735 27.5325 111.239 27.2565C111.749 26.9745 112.316 26.8335 112.94 26.8335C113.564 26.8335 114.125 26.9715 114.623 27.2475C115.127 27.5235 115.523 27.9075 115.811 28.3995C116.099 28.8855 116.243 29.4315 116.243 30.0375C116.243 30.6435 116.099 31.1925 115.811 31.6845C115.523 32.1705 115.127 32.5515 114.623 32.8275C114.125 33.1035 113.564 33.2415 112.94 33.2415ZM112.94 32.6475C113.438 32.6475 113.888 32.5365 114.29 32.3145C114.692 32.0865 115.007 31.7745 115.235 31.3785C115.463 30.9765 115.577 30.5295 115.577 30.0375C115.577 29.5455 115.463 29.1015 115.235 28.7055C115.007 28.3035 114.692 27.9915 114.29 27.7695C113.888 27.5415 113.438 27.4275 112.94 27.4275C112.442 27.4275 111.989 27.5415 111.581 27.7695C111.179 27.9915 110.861 28.3035 110.627 28.7055C110.399 29.1015 110.285 29.5455 110.285 30.0375C110.285 30.5295 110.399 30.9765 110.627 31.3785C110.861 31.7745 111.179 32.0865 111.581 32.3145C111.989 32.5365 112.442 32.6475 112.94 32.6475ZM121.599 31.5045H118.089L117.333 33.1875H116.64L119.52 26.8875H120.177L123.057 33.1875H122.355L121.599 31.5045ZM121.356 30.9645L119.844 27.5805L118.332 30.9645H121.356ZM124.099 26.8875H126.664C127.33 26.8875 127.918 27.0225 128.428 27.2925C128.938 27.5565 129.334 27.9285 129.616 28.4085C129.898 28.8825 130.039 29.4255 130.039 30.0375C130.039 30.6495 129.898 31.1955 129.616 31.6755C129.334 32.1495 128.938 32.5215 128.428 32.7915C127.918 33.0555 127.33 33.1875 126.664 33.1875H124.099V26.8875ZM126.628 32.6115C127.18 32.6115 127.663 32.5035 128.077 32.2875C128.491 32.0655 128.812 31.7625 129.04 31.3785C129.268 30.9885 129.382 30.5415 129.382 30.0375C129.382 29.5335 129.268 29.0895 129.04 28.7055C128.812 28.3155 128.491 28.0125 128.077 27.7965C127.663 27.5745 127.18 27.4635 126.628 27.4635H124.765V32.6115H126.628ZM136.644 33.2415C136.02 33.2415 135.453 33.1035 134.943 32.8275C134.439 32.5455 134.043 32.1615 133.755 31.6755C133.473 31.1895 133.332 30.6435 133.332 30.0375C133.332 29.4315 133.473 28.8855 133.755 28.3995C134.043 27.9135 134.439 27.5325 134.943 27.2565C135.453 26.9745 136.02 26.8335 136.644 26.8335C137.268 26.8335 137.829 26.9715 138.327 27.2475C138.831 27.5235 139.227 27.9075 139.515 28.3995C139.803 28.8855 139.947 29.4315 139.947 30.0375C139.947 30.6435 139.803 31.1925 139.515 31.6845C139.227 32.1705 138.831 32.5515 138.327 32.8275C137.829 33.1035 137.268 33.2415 136.644 33.2415ZM136.644 32.6475C137.142 32.6475 137.592 32.5365 137.994 32.3145C138.396 32.0865 138.711 31.7745 138.939 31.3785C139.167 30.9765 139.281 30.5295 139.281 30.0375C139.281 29.5455 139.167 29.1015 138.939 28.7055C138.711 28.3035 138.396 27.9915 137.994 27.7695C137.592 27.5415 137.142 27.4275 136.644 27.4275C136.146 27.4275 135.693 27.5415 135.285 27.7695C134.883 27.9915 134.565 28.3035 134.331 28.7055C134.103 29.1015 133.989 29.5455 133.989 30.0375C133.989 30.5295 134.103 30.9765 134.331 31.3785C134.565 31.7745 134.883 32.0865 135.285 32.3145C135.693 32.5365 136.146 32.6475 136.644 32.6475ZM146.705 26.8875V33.1875H146.156L142.106 28.0755V33.1875H141.44V26.8875H141.989L146.048 31.9995V26.8875H146.705ZM152.341 27.4635H150.127V26.8875H155.221V27.4635H153.007V33.1875H152.341V27.4635ZM161.55 26.8875V33.1875H160.893V30.2805H156.951V33.1875H156.285V26.8875H156.951V29.6955H160.893V26.8875H161.55ZM168.061 32.6115V33.1875H163.606V26.8875H167.926V27.4635H164.272V29.7045H167.53V30.2715H164.272V32.6115H168.061Z" fill="white"/>
<path d="M77.7106 41.3985C79.3573 41.3985 80.6219 41.7937 81.5046 42.5841C82.3872 43.3614 82.8285 44.5404 82.8285 46.1212V52.1875H79.9435V50.8636C79.3639 51.8516 78.2837 52.3456 76.7029 52.3456C75.8861 52.3456 75.1748 52.2073 74.5688 51.9306C73.976 51.654 73.5215 51.272 73.2054 50.7845C72.8892 50.2971 72.7311 49.7438 72.7311 49.1247C72.7311 48.1367 73.1 47.3595 73.8377 46.793C74.5886 46.2266 75.7412 45.9433 77.2957 45.9433H79.7459C79.7459 45.2715 79.5417 44.7577 79.1334 44.4021C78.725 44.0332 78.1124 43.8488 77.2957 43.8488C76.7292 43.8488 76.1694 43.941 75.6161 44.1254C75.076 44.2967 74.6149 44.5338 74.2329 44.8368L73.1263 42.6829C73.7059 42.2746 74.3975 41.9584 75.2011 41.7345C76.0179 41.5105 76.8544 41.3985 77.7106 41.3985ZM77.4735 50.2708C78.0005 50.2708 78.4681 50.1522 78.8765 49.9151C79.2849 49.6648 79.5747 49.3025 79.7459 48.8283V47.7415H77.6316C76.367 47.7415 75.7346 48.1565 75.7346 48.9864C75.7346 49.3816 75.8861 49.6977 76.1891 49.9349C76.5053 50.1588 76.9334 50.2708 77.4735 50.2708ZM91.902 41.3985C92.89 41.3985 93.7858 41.6291 94.5894 42.0901C95.4061 42.538 96.045 43.1769 96.5061 44.0069C96.9672 44.8236 97.1977 45.7787 97.1977 46.8721C97.1977 47.9654 96.9672 48.9271 96.5061 49.757C96.045 50.5738 95.4061 51.2127 94.5894 51.6737C93.7858 52.1216 92.89 52.3456 91.902 52.3456C90.5452 52.3456 89.4781 51.9174 88.7009 51.0612V56.0209H85.6183V41.5566H88.5626V42.7817C89.3266 41.8596 90.4398 41.3985 91.902 41.3985ZM91.3685 49.8163C92.1589 49.8163 92.8044 49.5528 93.305 49.0259C93.8187 48.4858 94.0756 47.7678 94.0756 46.8721C94.0756 45.9763 93.8187 45.2649 93.305 44.738C92.8044 44.1979 92.1589 43.9278 91.3685 43.9278C90.5781 43.9278 89.926 44.1979 89.4123 44.738C88.9117 45.2649 88.6614 45.9763 88.6614 46.8721C88.6614 47.7678 88.9117 48.4858 89.4123 49.0259C89.926 49.5528 90.5781 49.8163 91.3685 49.8163ZM105.545 41.3985C106.533 41.3985 107.429 41.6291 108.232 42.0901C109.049 42.538 109.688 43.1769 110.149 44.0069C110.61 44.8236 110.841 45.7787 110.841 46.8721C110.841 47.9654 110.61 48.9271 110.149 49.757C109.688 50.5738 109.049 51.2127 108.232 51.6737C107.429 52.1216 106.533 52.3456 105.545 52.3456C104.188 52.3456 103.121 51.9174 102.344 51.0612V56.0209H99.2612V41.5566H102.205V42.7817C102.97 41.8596 104.083 41.3985 105.545 41.3985ZM105.011 49.8163C105.802 49.8163 106.447 49.5528 106.948 49.0259C107.462 48.4858 107.719 47.7678 107.719 46.8721C107.719 45.9763 107.462 45.2649 106.948 44.738C106.447 44.1979 105.802 43.9278 105.011 43.9278C104.221 43.9278 103.569 44.1979 103.055 44.738C102.555 45.2649 102.304 45.9763 102.304 46.8721C102.304 47.7678 102.555 48.4858 103.055 49.0259C103.569 49.5528 104.221 49.8163 105.011 49.8163ZM122.077 52.3456C121.194 52.3456 120.331 52.2402 119.488 52.0294C118.645 51.8055 117.973 51.5288 117.473 51.1995L118.5 48.9864C118.974 49.2894 119.547 49.5397 120.219 49.7373C120.891 49.9217 121.55 50.0139 122.195 50.0139C123.499 50.0139 124.152 49.6912 124.152 49.0457C124.152 48.7427 123.974 48.5253 123.618 48.3936C123.262 48.2618 122.716 48.1499 121.978 48.0577C121.109 47.9259 120.391 47.7744 119.824 47.6032C119.258 47.4319 118.764 47.1289 118.342 46.6942C117.934 46.2595 117.73 45.6404 117.73 44.8368C117.73 44.1649 117.921 43.5721 118.303 43.0584C118.698 42.5314 119.264 42.1231 120.002 41.8333C120.753 41.5434 121.635 41.3985 122.65 41.3985C123.401 41.3985 124.145 41.4842 124.883 41.6554C125.634 41.8135 126.253 42.0374 126.74 42.3273L125.713 44.5206C124.777 43.9937 123.756 43.7302 122.65 43.7302C121.991 43.7302 121.497 43.8224 121.168 44.0069C120.838 44.1913 120.674 44.4284 120.674 44.7182C120.674 45.0476 120.852 45.2781 121.207 45.4098C121.563 45.5416 122.129 45.6667 122.907 45.7853C123.776 45.9302 124.488 46.0882 125.041 46.2595C125.594 46.4176 126.075 46.714 126.483 47.1487C126.892 47.5834 127.096 48.1894 127.096 48.9666C127.096 49.6253 126.898 50.2115 126.503 50.7253C126.108 51.239 125.528 51.6408 124.764 51.9306C124.013 52.2073 123.117 52.3456 122.077 52.3456ZM135.854 51.6737C135.551 51.8977 135.176 52.0689 134.728 52.1875C134.293 52.2929 133.832 52.3456 133.345 52.3456C132.08 52.3456 131.099 52.0228 130.401 51.3773C129.716 50.7318 129.373 49.7834 129.373 48.5319V44.1649H127.733V41.7937H129.373V39.2052H132.456V41.7937H135.104V44.1649H132.456V48.4924C132.456 48.9403 132.568 49.2894 132.792 49.5397C133.029 49.7768 133.358 49.8953 133.78 49.8953C134.267 49.8953 134.682 49.7636 135.025 49.5001L135.854 51.6737ZM142.315 52.3456C141.196 52.3456 140.188 52.115 139.292 51.654C138.409 51.1797 137.718 50.5277 137.217 49.6977C136.717 48.8678 136.466 47.9259 136.466 46.8721C136.466 45.8182 136.717 44.8763 137.217 44.0464C137.718 43.2165 138.409 42.571 139.292 42.1099C140.188 41.6357 141.196 41.3985 142.315 41.3985C143.435 41.3985 144.436 41.6357 145.319 42.1099C146.201 42.571 146.893 43.2165 147.394 44.0464C147.894 44.8763 148.145 45.8182 148.145 46.8721C148.145 47.9259 147.894 48.8678 147.394 49.6977C146.893 50.5277 146.201 51.1797 145.319 51.654C144.436 52.115 143.435 52.3456 142.315 52.3456ZM142.315 49.8163C143.106 49.8163 143.751 49.5528 144.252 49.0259C144.766 48.4858 145.022 47.7678 145.022 46.8721C145.022 45.9763 144.766 45.2649 144.252 44.738C143.751 44.1979 143.106 43.9278 142.315 43.9278C141.525 43.9278 140.873 44.1979 140.359 44.738C139.845 45.2649 139.588 45.9763 139.588 46.8721C139.588 47.7678 139.845 48.4858 140.359 49.0259C140.873 49.5528 141.525 49.8163 142.315 49.8163ZM153.149 42.9596C153.518 42.4458 154.012 42.0572 154.631 41.7937C155.264 41.5303 155.988 41.3985 156.805 41.3985V44.244C156.462 44.2176 156.232 44.2045 156.113 44.2045C155.231 44.2045 154.539 44.4548 154.038 44.9553C153.538 45.4428 153.288 46.1805 153.288 47.1685V52.1875H150.205V41.5566H153.149V42.9596ZM168.955 46.9116C168.955 46.9511 168.935 47.2277 168.895 47.7415H160.853C160.998 48.4002 161.341 48.9205 161.881 49.3025C162.421 49.6846 163.093 49.8756 163.896 49.8756C164.449 49.8756 164.937 49.7965 165.358 49.6385C165.793 49.4672 166.195 49.2037 166.564 48.8481L168.204 50.6265C167.203 51.7725 165.74 52.3456 163.817 52.3456C162.618 52.3456 161.558 52.115 160.636 51.654C159.714 51.1797 159.002 50.5277 158.502 49.6977C158.001 48.8678 157.751 47.9259 157.751 46.8721C157.751 45.8314 157.995 44.8961 158.482 44.0661C158.983 43.223 159.661 42.571 160.517 42.1099C161.387 41.6357 162.355 41.3985 163.422 41.3985C164.463 41.3985 165.405 41.6225 166.248 42.0704C167.091 42.5183 167.749 43.1638 168.224 44.0069C168.711 44.8368 168.955 45.805 168.955 46.9116ZM163.442 43.7302C162.744 43.7302 162.157 43.9278 161.683 44.323C161.209 44.7182 160.919 45.2583 160.814 45.9433H166.05C165.945 45.2715 165.655 44.738 165.181 44.3428C164.706 43.9344 164.127 43.7302 163.442 43.7302Z" fill="white"/>
</g>
<defs>
<filter id="filter0_d_1180_2832" x="0" y="0.1875" width="224" height="88" filterUnits="userSpaceOnUse" color-interpolation-filters="sRGB">
<feFlood flood-opacity="0" result="BackgroundImageFix"/>
<feColorMatrix in="SourceAlpha" type="matrix" values="0 0 0 0 0 0 0 0 0 0 0 0 0 0 0 0 0 0 127 0" result="hardAlpha"/>
<feMorphology radius="2" operator="dilate" in="SourceAlpha" result="effect1_dropShadow_1180_2832"/>
<feOffset dx="4" dy="4"/>
<feGaussianBlur stdDeviation="7.5"/>
<feComposite in2="hardAlpha" operator="out"/>
<feColorMatrix type="matrix" values="0 0 0 0 0 0 0 0 0 0 0 0 0 0 0 0 0 0 0.15 0"/>
<feBlend mode="normal" in2="BackgroundImageFix" result="effect1_dropShadow_1180_2832"/>
<feBlend mode="normal" in="SourceGraphic" in2="effect1_dropShadow_1180_2832" result="shape"/>
</filter>
</defs>
</svg>
