<svg width="224" height="89" viewBox="0 0 224 89" fill="none" xmlns="http://www.w3.org/2000/svg">
<g filter="url(#filter0_d_1180_2837)">
<rect x="13" y="13.9702" width="190" height="54" rx="27" fill="#121212"/>
<path d="M73.026 26.6702H75.591C76.257 26.6702 76.845 26.8052 77.355 27.0752C77.865 27.3392 78.261 27.7112 78.543 28.1912C78.825 28.6652 78.966 29.2082 78.966 29.8202C78.966 30.4322 78.825 30.9782 78.543 31.4582C78.261 31.9322 77.865 32.3042 77.355 32.5742C76.845 32.8382 76.257 32.9702 75.591 32.9702H73.026V26.6702ZM75.555 32.3942C76.107 32.3942 76.59 32.2862 77.004 32.0702C77.418 31.8482 77.739 31.5452 77.967 31.1612C78.195 30.7712 78.309 30.3242 78.309 29.8202C78.309 29.3162 78.195 28.8722 77.967 28.4882C77.739 28.0982 77.418 27.7952 77.004 27.5792C76.59 27.3572 76.107 27.2462 75.555 27.2462H73.692V32.3942H75.555ZM83.2155 33.0242C82.5915 33.0242 82.0245 32.8862 81.5145 32.6102C81.0105 32.3282 80.6145 31.9442 80.3265 31.4582C80.0445 30.9722 79.9035 30.4262 79.9035 29.8202C79.9035 29.2142 80.0445 28.6682 80.3265 28.1822C80.6145 27.6962 81.0105 27.3152 81.5145 27.0392C82.0245 26.7572 82.5915 26.6162 83.2155 26.6162C83.8395 26.6162 84.4005 26.7542 84.8985 27.0302C85.4025 27.3062 85.7985 27.6902 86.0865 28.1822C86.3745 28.6682 86.5185 29.2142 86.5185 29.8202C86.5185 30.4262 86.3745 30.9752 86.0865 31.4672C85.7985 31.9532 85.4025 32.3342 84.8985 32.6102C84.4005 32.8862 83.8395 33.0242 83.2155 33.0242ZM83.2155 32.4302C83.7135 32.4302 84.1635 32.3192 84.5655 32.0972C84.9675 31.8692 85.2825 31.5572 85.5105 31.1612C85.7385 30.7592 85.8525 30.3122 85.8525 29.8202C85.8525 29.3282 85.7385 28.8842 85.5105 28.4882C85.2825 28.0862 84.9675 27.7742 84.5655 27.5522C84.1635 27.3242 83.7135 27.2102 83.2155 27.2102C82.7175 27.2102 82.2645 27.3242 81.8565 27.5522C81.4545 27.7742 81.1365 28.0862 80.9025 28.4882C80.6745 28.8842 80.5605 29.3282 80.5605 29.8202C80.5605 30.3122 80.6745 30.7592 80.9025 31.1612C81.1365 31.5572 81.4545 31.8692 81.8565 32.0972C82.2645 32.3192 82.7175 32.4302 83.2155 32.4302ZM96.467 26.6702L94.343 32.9702H93.641L91.796 27.5972L89.942 32.9702H89.249L87.125 26.6702H87.809L89.627 32.0882L91.508 26.6702H92.129L93.983 32.1152L95.828 26.6702H96.467ZM102.953 26.6702V32.9702H102.404L98.3541 27.8582V32.9702H97.6881V26.6702H98.2371L102.296 31.7822V26.6702H102.953ZM105.009 26.6702H105.675V32.3942H109.203V32.9702H105.009V26.6702ZM112.94 33.0242C112.316 33.0242 111.749 32.8862 111.239 32.6102C110.735 32.3282 110.339 31.9442 110.051 31.4582C109.769 30.9722 109.628 30.4262 109.628 29.8202C109.628 29.2142 109.769 28.6682 110.051 28.1822C110.339 27.6962 110.735 27.3152 111.239 27.0392C111.749 26.7572 112.316 26.6162 112.94 26.6162C113.564 26.6162 114.125 26.7542 114.623 27.0302C115.127 27.3062 115.523 27.6902 115.811 28.1822C116.099 28.6682 116.243 29.2142 116.243 29.8202C116.243 30.4262 116.099 30.9752 115.811 31.4672C115.523 31.9532 115.127 32.3342 114.623 32.6102C114.125 32.8862 113.564 33.0242 112.94 33.0242ZM112.94 32.4302C113.438 32.4302 113.888 32.3192 114.29 32.0972C114.692 31.8692 115.007 31.5572 115.235 31.1612C115.463 30.7592 115.577 30.3122 115.577 29.8202C115.577 29.3282 115.463 28.8842 115.235 28.4882C115.007 28.0862 114.692 27.7742 114.29 27.5522C113.888 27.3242 113.438 27.2102 112.94 27.2102C112.442 27.2102 111.989 27.3242 111.581 27.5522C111.179 27.7742 110.861 28.0862 110.627 28.4882C110.399 28.8842 110.285 29.3282 110.285 29.8202C110.285 30.3122 110.399 30.7592 110.627 31.1612C110.861 31.5572 111.179 31.8692 111.581 32.0972C111.989 32.3192 112.442 32.4302 112.94 32.4302ZM121.599 31.2872H118.089L117.333 32.9702H116.64L119.52 26.6702H120.177L123.057 32.9702H122.355L121.599 31.2872ZM121.356 30.7472L119.844 27.3632L118.332 30.7472H121.356ZM124.099 26.6702H126.664C127.33 26.6702 127.918 26.8052 128.428 27.0752C128.938 27.3392 129.334 27.7112 129.616 28.1912C129.898 28.6652 130.039 29.2082 130.039 29.8202C130.039 30.4322 129.898 30.9782 129.616 31.4582C129.334 31.9322 128.938 32.3042 128.428 32.5742C127.918 32.8382 127.33 32.9702 126.664 32.9702H124.099V26.6702ZM126.628 32.3942C127.18 32.3942 127.663 32.2862 128.077 32.0702C128.491 31.8482 128.812 31.5452 129.04 31.1612C129.268 30.7712 129.382 30.3242 129.382 29.8202C129.382 29.3162 129.268 28.8722 129.04 28.4882C128.812 28.0982 128.491 27.7952 128.077 27.5792C127.663 27.3572 127.18 27.2462 126.628 27.2462H124.765V32.3942H126.628ZM136.644 33.0242C136.02 33.0242 135.453 32.8862 134.943 32.6102C134.439 32.3282 134.043 31.9442 133.755 31.4582C133.473 30.9722 133.332 30.4262 133.332 29.8202C133.332 29.2142 133.473 28.6682 133.755 28.1822C134.043 27.6962 134.439 27.3152 134.943 27.0392C135.453 26.7572 136.02 26.6162 136.644 26.6162C137.268 26.6162 137.829 26.7542 138.327 27.0302C138.831 27.3062 139.227 27.6902 139.515 28.1822C139.803 28.6682 139.947 29.2142 139.947 29.8202C139.947 30.4262 139.803 30.9752 139.515 31.4672C139.227 31.9532 138.831 32.3342 138.327 32.6102C137.829 32.8862 137.268 33.0242 136.644 33.0242ZM136.644 32.4302C137.142 32.4302 137.592 32.3192 137.994 32.0972C138.396 31.8692 138.711 31.5572 138.939 31.1612C139.167 30.7592 139.281 30.3122 139.281 29.8202C139.281 29.3282 139.167 28.8842 138.939 28.4882C138.711 28.0862 138.396 27.7742 137.994 27.5522C137.592 27.3242 137.142 27.2102 136.644 27.2102C136.146 27.2102 135.693 27.3242 135.285 27.5522C134.883 27.7742 134.565 28.0862 134.331 28.4882C134.103 28.8842 133.989 29.3282 133.989 29.8202C133.989 30.3122 134.103 30.7592 134.331 31.1612C134.565 31.5572 134.883 31.8692 135.285 32.0972C135.693 32.3192 136.146 32.4302 136.644 32.4302ZM146.705 26.6702V32.9702H146.156L142.106 27.8582V32.9702H141.44V26.6702H141.989L146.048 31.7822V26.6702H146.705ZM152.341 27.2462H150.127V26.6702H155.221V27.2462H153.007V32.9702H152.341V27.2462ZM161.55 26.6702V32.9702H160.893V30.0632H156.951V32.9702H156.285V26.6702H156.951V29.4782H160.893V26.6702H161.55ZM168.061 32.3942V32.9702H163.606V26.6702H167.926V27.2462H164.272V29.4872H167.53V30.0542H164.272V32.3942H168.061Z" fill="white"/>
<path d="M79.7064 41.1813C80.6944 41.1813 81.5902 41.4118 82.3938 41.8729C83.2105 42.3207 83.8494 42.9597 84.3105 43.7896C84.7715 44.6063 85.0021 45.5614 85.0021 46.6548C85.0021 47.7482 84.7715 48.7098 84.3105 49.5397C83.8494 50.3565 83.2105 50.9954 82.3938 51.4565C81.5902 51.9043 80.6944 52.1283 79.7064 52.1283C78.3495 52.1283 77.2825 51.7002 76.5053 50.8439V55.8037H73.4227V41.3393H76.367V42.5645C77.131 41.6423 78.2442 41.1813 79.7064 41.1813ZM79.1729 49.599C79.9633 49.599 80.6088 49.3355 81.1094 48.8086C81.6231 48.2685 81.88 47.5506 81.88 46.6548C81.88 45.759 81.6231 45.0476 81.1094 44.5207C80.6088 43.9806 79.9633 43.7105 79.1729 43.7105C78.3825 43.7105 77.7304 43.9806 77.2166 44.5207C76.7161 45.0476 76.4658 45.759 76.4658 46.6548C76.4658 47.5506 76.7161 48.2685 77.2166 48.8086C77.7304 49.3355 78.3825 49.599 79.1729 49.599ZM87.0656 37.3083H90.1482V51.9702H87.0656V37.3083ZM97.297 41.1813C98.9436 41.1813 100.208 41.5765 101.091 42.3669C101.974 43.1441 102.415 44.3231 102.415 45.9039V51.9702H99.5298V50.6463C98.9502 51.6343 97.87 52.1283 96.2892 52.1283C95.4725 52.1283 94.7611 51.99 94.1551 51.7133C93.5623 51.4367 93.1078 51.0547 92.7917 50.5673C92.4755 50.0798 92.3174 49.5266 92.3174 48.9074C92.3174 47.9194 92.6863 47.1422 93.424 46.5757C94.1749 46.0093 95.3276 45.7261 96.882 45.7261H99.3322C99.3322 45.0542 99.1281 44.5405 98.7197 44.1848C98.3113 43.8159 97.6988 43.6315 96.882 43.6315C96.3156 43.6315 95.7557 43.7237 95.2024 43.9081C94.6623 44.0794 94.2012 44.3165 93.8192 44.6195L92.7126 42.4657C93.2923 42.0573 93.9839 41.7411 94.7874 41.5172C95.6042 41.2932 96.4407 41.1813 97.297 41.1813ZM97.0598 50.0535C97.5868 50.0535 98.0544 49.9349 98.4628 49.6978C98.8712 49.4475 99.161 49.0853 99.3322 48.611V47.5242H97.2179C95.9533 47.5242 95.321 47.9392 95.321 48.7691C95.321 49.1643 95.4725 49.4805 95.7754 49.7176C96.0916 49.9415 96.5197 50.0535 97.0598 50.0535ZM115.564 41.3393L110.762 52.6223C110.274 53.8474 109.668 54.7103 108.944 55.2109C108.233 55.7114 107.37 55.9617 106.355 55.9617C105.802 55.9617 105.255 55.8761 104.715 55.7049C104.175 55.5336 103.734 55.2965 103.391 54.9935L104.518 52.8001C104.755 53.0109 105.025 53.1756 105.328 53.2941C105.644 53.4127 105.954 53.472 106.257 53.472C106.678 53.472 107.021 53.3666 107.284 53.1558C107.548 52.9582 107.785 52.6223 107.995 52.1481L108.035 52.0493L103.431 41.3393H106.612L109.596 48.5517L112.6 41.3393H115.564ZM125.994 52.1283C125.111 52.1283 124.249 52.0229 123.405 51.8121C122.562 51.5882 121.891 51.3115 121.39 50.9822L122.417 48.7691C122.892 49.0721 123.465 49.3224 124.137 49.52C124.808 49.7044 125.467 49.7966 126.113 49.7966C127.417 49.7966 128.069 49.4739 128.069 48.8284C128.069 48.5254 127.891 48.308 127.535 48.1763C127.18 48.0446 126.633 47.9326 125.895 47.8404C125.026 47.7086 124.308 47.5571 123.741 47.3859C123.175 47.2146 122.681 46.9117 122.259 46.4769C121.851 46.0422 121.647 45.4231 121.647 44.6195C121.647 43.9477 121.838 43.3549 122.22 42.8411C122.615 42.3142 123.182 41.9058 123.919 41.616C124.67 41.3262 125.553 41.1813 126.567 41.1813C127.318 41.1813 128.062 41.2669 128.8 41.4381C129.551 41.5962 130.17 41.8202 130.657 42.11L129.63 44.3033C128.695 43.7764 127.674 43.5129 126.567 43.5129C125.908 43.5129 125.414 43.6051 125.085 43.7896C124.756 43.974 124.591 44.2111 124.591 44.5009C124.591 44.8303 124.769 45.0608 125.125 45.1925C125.48 45.3243 126.047 45.4494 126.824 45.568C127.693 45.7129 128.405 45.871 128.958 46.0422C129.511 46.2003 129.992 46.4967 130.401 46.9314C130.809 47.3661 131.013 47.9721 131.013 48.7493C131.013 49.408 130.815 49.9942 130.42 50.508C130.025 51.0217 129.445 51.4235 128.681 51.7133C127.931 51.99 127.035 52.1283 125.994 52.1283ZM139.772 51.4565C139.469 51.6804 139.093 51.8517 138.645 51.9702C138.211 52.0756 137.75 52.1283 137.262 52.1283C135.998 52.1283 135.016 51.8055 134.318 51.1601C133.633 50.5146 133.29 49.5661 133.29 48.3146V43.9477H131.65V41.5765H133.29V38.9879H136.373V41.5765H139.021V43.9477H136.373V48.2751C136.373 48.723 136.485 49.0721 136.709 49.3224C136.946 49.5595 137.275 49.6781 137.697 49.6781C138.184 49.6781 138.599 49.5463 138.942 49.2829L139.772 51.4565ZM146.233 52.1283C145.113 52.1283 144.105 51.8978 143.209 51.4367C142.327 50.9625 141.635 50.3104 141.135 49.4805C140.634 48.6505 140.384 47.7086 140.384 46.6548C140.384 45.6009 140.634 44.659 141.135 43.8291C141.635 42.9992 142.327 42.3537 143.209 41.8926C144.105 41.4184 145.113 41.1813 146.233 41.1813C147.352 41.1813 148.354 41.4184 149.236 41.8926C150.119 42.3537 150.81 42.9992 151.311 43.8291C151.812 44.659 152.062 45.6009 152.062 46.6548C152.062 47.7086 151.812 48.6505 151.311 49.4805C150.81 50.3104 150.119 50.9625 149.236 51.4367C148.354 51.8978 147.352 52.1283 146.233 52.1283ZM146.233 49.599C147.023 49.599 147.669 49.3355 148.169 48.8086C148.683 48.2685 148.94 47.5506 148.94 46.6548C148.94 45.759 148.683 45.0476 148.169 44.5207C147.669 43.9806 147.023 43.7105 146.233 43.7105C145.442 43.7105 144.79 43.9806 144.276 44.5207C143.763 45.0476 143.506 45.759 143.506 46.6548C143.506 47.5506 143.763 48.2685 144.276 48.8086C144.79 49.3355 145.442 49.599 146.233 49.599ZM157.066 42.7423C157.435 42.2285 157.929 41.8399 158.548 41.5765C159.181 41.313 159.905 41.1813 160.722 41.1813V44.0267C160.38 44.0003 160.149 43.9872 160.03 43.9872C159.148 43.9872 158.456 44.2375 157.956 44.7381C157.455 45.2255 157.205 45.9632 157.205 46.9512V51.9702H154.122V41.3393H157.066V42.7423ZM172.872 46.6943C172.872 46.7338 172.852 47.0105 172.813 47.5242H164.77C164.915 48.1829 165.258 48.7032 165.798 49.0853C166.338 49.4673 167.01 49.6583 167.813 49.6583C168.367 49.6583 168.854 49.5793 169.276 49.4212C169.71 49.2499 170.112 48.9865 170.481 48.6308L172.121 50.4092C171.12 51.5553 169.658 52.1283 167.734 52.1283C166.536 52.1283 165.475 51.8978 164.553 51.4367C163.631 50.9625 162.92 50.3104 162.419 49.4805C161.918 48.6505 161.668 47.7086 161.668 46.6548C161.668 45.6141 161.912 44.6788 162.399 43.8489C162.9 43.0058 163.578 42.3537 164.435 41.8926C165.304 41.4184 166.272 41.1813 167.339 41.1813C168.38 41.1813 169.322 41.4052 170.165 41.8531C171.008 42.301 171.667 42.9465 172.141 43.7896C172.628 44.6195 172.872 45.5877 172.872 46.6943ZM167.359 43.5129C166.661 43.5129 166.075 43.7105 165.6 44.1057C165.126 44.5009 164.836 45.041 164.731 45.7261H169.967C169.862 45.0542 169.572 44.5207 169.098 44.1255C168.624 43.7171 168.044 43.5129 167.359 43.5129Z" fill="white"/>
<path d="M32 28.0661V55.4183C32.0002 55.4777 32.0167 55.5356 32.0476 55.585C32.0785 55.6343 32.1223 55.6728 32.1736 55.6956C32.2249 55.7184 32.2813 55.7245 32.3358 55.7132C32.3903 55.7019 32.4405 55.6736 32.4801 55.632L45.8095 41.7429L32.4801 27.8524C32.4405 27.8107 32.3903 27.7825 32.3358 27.7712C32.2813 27.7598 32.2249 27.766 32.1736 27.7888C32.1223 27.8116 32.0785 27.8501 32.0476 27.8994C32.0167 27.9487 32.0002 28.0067 32 28.0661Z" fill="white"/>
<path d="M51.3332 36.0613L34.596 26.1039L34.5856 26.0975C34.2972 25.9285 34.0233 26.3497 34.2594 26.5949L47.3795 40.1418L51.3332 36.0613Z" fill="white"/>
<path d="M34.2602 56.8898C34.0227 57.1349 34.2967 57.5561 34.5863 57.387L34.5968 57.3807L51.3332 47.4243L47.3794 43.3428L34.2602 56.8898Z" fill="white"/>
<path d="M58.0698 39.9639L53.3777 37.1548L48.9658 41.7436L53.3777 46.3302L58.0698 43.5233C59.3461 42.7566 59.3461 40.7306 58.0698 39.9639Z" fill="white"/>
</g>
<defs>
<filter id="filter0_d_1180_2837" x="0" y="0.970215" width="224" height="88" filterUnits="userSpaceOnUse" color-interpolation-filters="sRGB">
<feFlood flood-opacity="0" result="BackgroundImageFix"/>
<feColorMatrix in="SourceAlpha" type="matrix" values="0 0 0 0 0 0 0 0 0 0 0 0 0 0 0 0 0 0 127 0" result="hardAlpha"/>
<feMorphology radius="2" operator="dilate" in="SourceAlpha" result="effect1_dropShadow_1180_2837"/>
<feOffset dx="4" dy="4"/>
<feGaussianBlur stdDeviation="7.5"/>
<feComposite in2="hardAlpha" operator="out"/>
<feColorMatrix type="matrix" values="0 0 0 0 0 0 0 0 0 0 0 0 0 0 0 0 0 0 0.15 0"/>
<feBlend mode="normal" in2="BackgroundImageFix" result="effect1_dropShadow_1180_2837"/>
<feBlend mode="normal" in="SourceGraphic" in2="effect1_dropShadow_1180_2837" result="shape"/>
</filter>
</defs>
</svg>
