<svg width="37" height="51" viewBox="0 0 37 51" fill="none" xmlns="http://www.w3.org/2000/svg">
<path d="M18.1626 51L17.0449 49.7425C16.3463 49.0438 0 29.7616 0 18.1644C0 8.10411 8.1033 0 18.1626 0C28.2219 0 36.3252 8.10411 36.3252 18.1644C36.3252 29.7616 19.9788 49.0438 19.2803 49.8822L18.1626 51ZM18.1626 2.79452C9.64014 2.79452 2.79424 9.6411 2.79424 18.1644C2.79424 27.1068 14.5301 42.1973 18.1626 46.6685C21.7951 42.1973 33.5309 27.1068 33.5309 18.1644C33.5309 9.6411 26.685 2.79452 18.1626 2.79452Z" fill="#A1A1A1"/>
<path d="M18.1614 25.1499C14.2494 25.1499 11.1758 22.0759 11.1758 18.1635C11.1758 14.2512 14.2494 11.1772 18.1614 11.1772C22.0733 11.1772 25.147 14.2512 25.147 18.1635C25.147 22.0759 22.0733 25.1499 18.1614 25.1499ZM18.1614 13.9718C15.7863 13.9718 13.97 15.7882 13.97 18.1635C13.97 20.5389 15.7863 22.3553 18.1614 22.3553C20.5365 22.3553 22.3528 20.5389 22.3528 18.1635C22.3528 15.7882 20.5365 13.9718 18.1614 13.9718Z" fill="#A1A1A1"/>
</svg>
