<svg width="27" height="27" viewBox="0 0 27 27" fill="none" xmlns="http://www.w3.org/2000/svg">
<path d="M26.1351 24.6428L17.7985 16.3062C19.0921 14.6337 19.7919 12.5889 19.7919 10.4381C19.7919 7.86357 18.7872 5.44956 16.9702 3.62943C15.1533 1.80929 12.7329 0.807739 10.1616 0.807739C7.59029 0.807739 5.16986 1.8125 3.35294 3.62943C1.53281 5.44635 0.53125 7.86357 0.53125 10.4381C0.53125 13.0094 1.53602 15.4298 3.35294 17.2467C5.16986 19.0669 7.58708 20.0684 10.1616 20.0684C12.3124 20.0684 14.354 19.3686 16.0265 18.0781L24.3631 26.4116C24.3876 26.4361 24.4166 26.4555 24.4485 26.4687C24.4805 26.4819 24.5147 26.4888 24.5493 26.4888C24.5839 26.4888 24.6181 26.4819 24.6501 26.4687C24.682 26.4555 24.7111 26.4361 24.7355 26.4116L26.1351 25.0152C26.1596 24.9908 26.179 24.9617 26.1922 24.9298C26.2055 24.8978 26.2123 24.8636 26.2123 24.829C26.2123 24.7944 26.2055 24.7602 26.1922 24.7283C26.179 24.6963 26.1596 24.6673 26.1351 24.6428ZM15.2464 15.5229C13.8853 16.8808 12.0812 17.6287 10.1616 17.6287C8.24194 17.6287 6.43786 16.8808 5.07677 15.5229C3.71889 14.1618 2.97094 12.3577 2.97094 10.4381C2.97094 8.51843 3.71889 6.71114 5.07677 5.35326C6.43786 3.99538 8.24194 3.24743 10.1616 3.24743C12.0812 3.24743 13.8885 3.99217 15.2464 5.35326C16.6043 6.71435 17.3522 8.51843 17.3522 10.4381C17.3522 12.3577 16.6043 14.165 15.2464 15.5229Z" fill="#F8F8F8"/>
</svg>
