<svg width="339" height="83" viewBox="0 0 339 83" fill="none" xmlns="http://www.w3.org/2000/svg">
<path d="M40.6418 0.779541C18.2337 0.779541 0 18.9649 0 41.3224C0 63.6799 18.2337 81.8652 40.6418 81.8652C63.05 81.8652 81.2837 63.6799 81.2837 41.3224C81.2837 18.9649 63.05 0.779541 40.6418 0.779541ZM40.6418 79.1647C19.7266 79.1647 2.71199 62.188 2.71199 41.3224C2.71199 20.4568 19.7266 3.48004 40.6418 3.48004C61.5571 3.48004 78.5717 20.4568 78.5717 41.3224C78.5717 62.188 61.5571 79.1647 40.6418 79.1647Z" fill="#A1A1A1"/>
<path d="M49.5128 18.5652H42.7505C34.1381 18.4792 33.0381 23.7968 33.0381 29.5518V33.7365H29.2362C29.0644 33.7136 28.8895 33.7306 28.7253 33.786C28.5611 33.8415 28.4119 33.9339 28.2893 34.0562C28.1667 34.1785 28.0741 34.3273 28.0185 34.4912C27.9629 34.655 27.946 34.8294 27.9689 35.0008V42.5865C27.946 42.758 27.9629 42.9324 28.0185 43.0962C28.0741 43.26 28.1667 43.4088 28.2893 43.5311C28.4119 43.6534 28.5611 43.7459 28.7253 43.8013C28.8895 43.8568 29.0644 43.8737 29.2362 43.8508H33.0381V62.815C33.0169 62.9868 33.0354 63.1611 33.0922 63.3246C33.1489 63.4881 33.2423 63.6365 33.3653 63.7585C33.4883 63.8805 33.6376 63.9728 33.8019 64.0284C33.9661 64.084 34.1409 64.1014 34.3129 64.0793H42.0561C42.8038 64.1653 43.4095 63.561 43.1713 62.815L43.1763 43.8508H49.5128C49.6846 43.8737 49.8594 43.8568 50.0236 43.8013C50.1878 43.7459 50.337 43.6534 50.4596 43.5311C50.5822 43.4088 50.6749 43.26 50.7305 43.0962C50.786 42.9324 50.803 42.758 50.78 42.5865V35.0008C50.803 34.8294 50.786 34.655 50.7305 34.4912C50.6749 34.3273 50.5822 34.1785 50.4596 34.0562C50.337 33.9339 50.1878 33.8415 50.0236 33.786C49.8594 33.7306 49.6846 33.7136 49.5128 33.7365H43.1687L43.1763 29.9437C43.4222 28.3279 43.4222 28.5909 44.9252 28.6794H49.4595C49.8118 28.601 50.187 28.644 50.4506 28.3886C50.7142 28.1332 50.8662 27.7843 50.7775 27.4151V19.8294C50.8009 19.6581 50.7843 19.4838 50.7291 19.3199C50.6738 19.1561 50.5814 19.0072 50.459 18.8848C50.3366 18.7624 50.1875 18.6699 50.0234 18.6145C49.8593 18.559 49.6845 18.5422 49.5128 18.5652ZM48.1568 26.0093L44.9784 25.8879C41.0422 25.8879 40.7127 28.0195 40.7127 30.2016L40.7026 34.9958C40.7023 35.1733 40.737 35.3492 40.8049 35.5133C40.8728 35.6774 40.9724 35.8265 41.0981 35.9522C41.2238 36.0778 41.3732 36.1775 41.5375 36.2455C41.7019 36.3135 41.8781 36.3486 42.0561 36.3486H48.2455V41.2337H42.0611C41.7019 41.2337 41.3574 41.3759 41.1032 41.6291C40.849 41.8822 40.7058 42.2257 40.7051 42.584L40.7026 61.5508H35.5726V42.5865C35.5726 41.8406 35.0632 41.2363 34.3129 41.2363H30.5035V36.3511H34.3129C34.4908 36.3514 34.6669 36.3167 34.8313 36.249C34.9957 36.1813 35.1451 36.0819 35.271 35.9566C35.5245 35.7012 35.5701 35.3574 35.5701 34.9983V29.5492C35.5701 23.8802 36.7183 21.1797 42.748 21.1797H48.1542V26.0093H48.1568Z" fill="#A1A1A1"/>
<path d="M169.237 25.3464C165.737 25.3464 162.315 26.3531 159.405 28.2393C156.494 30.1255 154.226 32.8064 152.886 35.943C151.547 39.0796 151.196 42.531 151.879 45.8608C152.562 49.1906 154.248 52.2492 156.723 54.6499C159.198 57.0505 162.351 58.6854 165.784 59.3477C169.217 60.01 172.776 59.6701 176.01 58.3709C179.244 57.0717 182.008 54.8715 183.953 52.0486C185.897 49.2258 186.935 45.907 186.935 42.512C186.93 37.961 185.064 33.5978 181.746 30.3798C178.428 27.1617 173.929 25.3516 169.237 25.3464ZM169.237 56.5565C166.373 56.5565 163.574 55.7328 161.192 54.1896C158.811 52.6464 156.955 50.4529 155.859 47.8866C154.763 45.3203 154.476 42.4964 155.035 39.772C155.594 37.0476 156.973 34.5451 158.998 32.581C161.023 30.6168 163.603 29.2792 166.412 28.7373C169.221 28.1954 172.133 28.4735 174.778 29.5365C177.424 30.5995 179.686 32.3996 181.277 34.7092C182.868 37.0188 183.717 39.7342 183.717 42.512C183.713 46.2355 182.186 49.8054 179.471 52.4384C176.757 55.0714 173.076 56.5524 169.237 56.5565ZM186.935 5.05981H151.539C145.994 5.06591 140.677 7.20519 136.756 11.0083C132.835 14.8115 130.629 19.9679 130.623 25.3464V59.6775C130.629 65.056 132.835 70.2124 136.756 74.0156C140.677 77.8187 145.994 79.958 151.539 79.9641H186.935C192.481 79.958 197.797 77.8187 201.718 74.0156C205.639 70.2124 207.845 65.056 207.851 59.6775V25.3464C207.845 19.9679 205.639 14.8115 201.718 11.0083C197.797 7.20519 192.481 5.06591 186.935 5.05981ZM204.633 59.6775C204.628 64.2285 202.762 68.5917 199.444 71.8097C196.126 75.0278 191.627 76.8379 186.935 76.8431H151.539C146.847 76.8379 142.348 75.0278 139.03 71.8097C135.713 68.5917 133.846 64.2285 133.841 59.6775V25.3464C133.846 20.7954 135.713 16.4323 139.03 13.2142C142.348 9.99616 146.847 8.18599 151.539 8.18083H186.935C191.627 8.18599 196.126 9.99616 199.444 13.2142C202.762 16.4323 204.628 20.7954 204.633 25.3464V59.6775ZM193.371 22.2254C193.371 22.8427 193.182 23.4461 192.829 23.9593C192.475 24.4726 191.972 24.8726 191.384 25.1088C190.796 25.345 190.149 25.4069 189.525 25.2864C188.901 25.166 188.328 24.8688 187.878 24.4323C187.428 23.9958 187.121 23.4397 186.997 22.8343C186.873 22.2288 186.937 21.6013 187.18 21.031C187.424 20.4607 187.836 19.9733 188.365 19.6304C188.894 19.2874 189.517 19.1044 190.153 19.1044C191.006 19.1054 191.824 19.4346 192.427 20.0196C193.03 20.6047 193.37 21.398 193.371 22.2254Z" fill="#A1A1A1"/>
<path d="M297.951 0.780029C275.477 0.780029 257.189 19.0187 257.189 41.4417C257.189 63.8646 275.477 82.1033 297.951 82.1033C320.426 82.1033 338.713 63.8646 338.713 41.4417C338.713 19.0187 320.426 0.780029 297.951 0.780029ZM297.951 79.3949C276.974 79.3949 259.909 62.3684 259.909 41.4417C259.909 20.5149 276.974 3.48844 297.951 3.48844C318.928 3.48844 335.993 20.5149 335.993 41.4417C335.993 62.3684 318.928 79.3949 297.951 79.3949Z" fill="#A1A1A1"/>
<path d="M320.307 28.88C320.589 28.3593 320.821 27.8134 321.001 27.2494C321.084 26.9878 321.086 26.7072 321.006 26.4446C320.926 26.182 320.768 25.9498 320.553 25.7787C320.338 25.6075 320.076 25.5055 319.801 25.486C319.527 25.4665 319.253 25.5305 319.016 25.6696C317.713 26.4415 316.303 27.0166 314.832 27.3762C313.045 25.7679 310.725 24.8763 308.319 24.8733C307.011 24.8743 305.718 25.1386 304.515 25.6504C303.313 26.1622 302.226 26.911 301.321 27.8518C300.416 28.7926 299.71 29.9061 299.247 31.1255C298.783 32.3449 298.571 33.6452 298.623 34.9483C292.906 34.2303 287.686 31.3444 284.045 26.8893C283.905 26.7205 283.727 26.5878 283.525 26.5025C283.323 26.4171 283.104 26.3817 282.885 26.3991C282.666 26.4165 282.455 26.4863 282.269 26.6026C282.084 26.7188 281.929 26.8781 281.818 27.0668C280.984 28.4943 280.531 30.1111 280.502 31.763C280.472 33.4149 280.868 35.0467 281.65 36.5028C281.458 36.5351 281.274 36.6021 281.106 36.7006C280.901 36.8313 280.731 37.0116 280.614 37.2248C280.497 37.4379 280.435 37.6771 280.435 37.9203C280.435 40.7985 281.719 43.4409 283.788 45.2363L283.699 45.325C283.543 45.5013 283.435 45.7152 283.387 45.9455C283.339 46.1759 283.352 46.4147 283.424 46.6386C283.856 47.9814 284.576 49.2139 285.535 50.2499C286.494 51.2858 287.669 52.1002 288.976 52.6359C286.291 53.9428 283.286 54.4524 280.318 54.1042C280.013 54.0732 279.706 54.144 279.446 54.3055C279.186 54.4671 278.986 54.7102 278.879 54.9968C278.777 55.2856 278.775 55.6005 278.874 55.8905C278.973 56.1805 279.168 56.4286 279.426 56.5944C283.46 59.1773 288.153 60.5496 292.947 60.5478C308.657 60.5478 318.047 47.8178 318.047 35.5112L318.045 35.0954C319.567 33.9096 320.89 32.4885 321.962 30.8858C322.124 30.6435 322.204 30.3555 322.19 30.0645C322.175 29.7734 322.067 29.4947 321.881 29.2697C321.696 29.0446 321.442 28.8852 321.159 28.815C320.875 28.7448 320.577 28.7676 320.307 28.88ZM315.871 33.3304C315.687 33.4627 315.538 33.639 315.44 33.8433C315.341 34.0475 315.296 34.2731 315.307 34.4994C315.322 34.8342 315.33 35.174 315.33 35.5087C315.33 46.4839 306.959 57.837 292.95 57.837C290.451 57.8382 287.97 57.4198 285.611 56.5995C288.436 56.0593 291.091 54.8505 293.351 53.0747C293.571 52.9016 293.732 52.665 293.812 52.3971C293.892 52.1293 293.888 51.8433 293.799 51.5782C293.71 51.3132 293.541 51.0821 293.315 50.9165C293.089 50.7508 292.818 50.6588 292.538 50.6529C291.442 50.632 290.366 50.3545 289.397 49.8426C288.428 49.3308 287.594 48.599 286.96 47.7062C287.604 47.6631 288.234 47.5566 288.847 47.3918C289.143 47.3126 289.404 47.1355 289.587 46.8895C289.769 46.6434 289.863 46.3428 289.852 46.0368C289.842 45.7308 289.727 45.4374 289.528 45.2045C289.329 44.9716 289.056 44.813 288.755 44.7545C287.517 44.5033 286.371 43.9211 285.439 43.0702C284.507 42.2192 283.825 41.1316 283.465 39.9237C284.141 40.0936 284.835 40.1925 285.529 40.2153C286.127 40.2127 286.681 39.8476 286.866 39.2745C287.052 38.7014 286.833 38.0699 286.327 37.7352C285.131 36.9402 284.21 35.7963 283.69 34.4597C283.17 33.123 283.077 31.6589 283.422 30.2671C287.838 34.7868 293.8 37.4782 300.118 37.8037C300.566 37.8062 300.957 37.6464 301.229 37.3193C301.501 36.9922 301.605 36.5586 301.509 36.1427C301.161 34.6491 301.316 33.0828 301.951 31.6862C302.586 30.2896 303.664 29.1406 305.019 28.417C306.374 27.6934 307.931 27.4356 309.448 27.6834C310.965 27.9312 312.357 28.6708 313.411 29.7878C313.568 29.9558 313.766 30.0809 313.986 30.1515C314.206 30.222 314.44 30.2356 314.666 30.191C315.086 30.1073 315.5 30.011 315.909 29.8994C315.725 30.0372 315.533 30.165 315.335 30.2823C315.071 30.4434 314.871 30.6892 314.766 30.9794C314.661 31.2695 314.658 31.5866 314.758 31.8783C314.859 32.1701 315.055 32.4192 315.316 32.5845C315.577 32.7498 315.887 32.8215 316.194 32.7877L316.657 32.7294C316.402 32.9388 316.14 33.1392 315.871 33.3304Z" fill="#A1A1A1"/>
</svg>
