<svg width="305" height="486" viewBox="0 0 305 486" fill="none" xmlns="http://www.w3.org/2000/svg">
<g filter="url(#filter0_d_1119_3772)">
<path d="M17 16.1284H272V321.597H17V16.1284Z" fill="#4A3FCA"/>
<path d="M271.999 320.907H17V447.154C17 448.825 18.9281 449.759 20.2396 448.723L33.9354 437.906C34.6608 437.333 35.6844 437.332 36.4111 437.903L52.1928 450.31C52.918 450.88 53.9391 450.881 54.6645 450.311L70.4563 437.903C71.1831 437.332 72.2067 437.333 72.932 437.906L88.6238 450.307C89.3476 450.879 90.3687 450.882 91.0956 450.314L106.977 437.9C107.706 437.33 108.729 437.334 109.453 437.909L125.055 450.304C125.777 450.878 126.798 450.883 127.526 450.317L143.498 437.897C144.227 437.329 145.251 437.336 145.973 437.913L161.485 450.301C162.206 450.877 163.227 450.884 163.957 450.32L180.018 437.894C180.75 437.328 181.773 437.337 182.494 437.916L199.142 451.282L216.539 437.891C217.272 437.327 218.296 437.338 219.015 437.919L234.347 450.294C235.065 450.874 236.086 450.887 236.819 450.326L253.06 437.888C253.794 437.325 254.818 437.34 255.536 437.923L268.74 448.636C270.047 449.697 272 448.767 272 447.083L271.999 320.907Z" fill="#30288C"/>
<rect x="81.874" y="352.438" width="124" height="45" rx="22.5" stroke="white" stroke-width="2"/>
<path d="M108.931 374.036C108.931 377.33 111.343 379.646 114.51 379.646C116.953 379.646 118.939 378.354 119.68 376.085H117.142C116.622 377.156 115.677 377.676 114.495 377.676C112.572 377.676 111.201 376.258 111.201 374.036C111.201 371.798 112.572 370.395 114.495 370.395C115.677 370.395 116.622 370.915 117.142 371.971H119.68C118.939 369.718 116.953 368.409 114.51 368.409C111.343 368.409 108.931 370.742 108.931 374.036ZM129.996 375.186C129.996 372.428 128.026 370.679 125.504 370.679C122.983 370.679 121.013 372.428 121.013 375.186C121.013 377.928 122.92 379.694 125.441 379.694C127.978 379.694 129.996 377.928 129.996 375.186ZM123.25 375.186C123.25 373.437 124.306 372.602 125.473 372.602C126.639 372.602 127.726 373.437 127.726 375.186C127.726 376.92 126.607 377.771 125.441 377.771C124.259 377.771 123.25 376.92 123.25 375.186ZM143.828 379.552H146.035V374.43C146.035 372.018 144.553 370.695 142.457 370.695C141.181 370.695 140.03 371.372 139.463 372.365C138.864 371.278 137.745 370.695 136.39 370.695C135.302 370.695 134.372 371.152 133.821 371.877V370.821H131.614V379.552H133.821V374.729C133.821 373.342 134.593 372.617 135.791 372.617C136.957 372.617 137.729 373.342 137.729 374.729V379.552H139.936V374.729C139.936 373.342 140.708 372.617 141.89 372.617C143.056 372.617 143.828 373.342 143.828 374.729V379.552ZM150.335 372.082V370.821H148.128V383.712H150.335V378.307C150.871 379.016 151.848 379.694 153.219 379.694C155.457 379.694 157.206 377.881 157.206 375.155C157.206 372.428 155.457 370.679 153.219 370.679C151.863 370.679 150.855 371.341 150.335 372.082ZM154.952 375.155C154.952 376.81 153.833 377.755 152.636 377.755C151.454 377.755 150.335 376.841 150.335 375.186C150.335 373.531 151.454 372.617 152.636 372.617C153.833 372.617 154.952 373.5 154.952 375.155ZM161.016 375.202C161.016 373.516 161.804 373.011 163.112 373.011H163.695V370.695C162.482 370.695 161.567 371.278 161.016 372.176V370.821H158.809V379.552H161.016V375.202ZM164.614 375.155C164.614 377.881 166.379 379.694 168.585 379.694C169.972 379.694 170.965 379.032 171.485 378.275V379.552H173.707V370.821H171.485V372.066C170.965 371.341 170.004 370.679 168.601 370.679C166.379 370.679 164.614 372.428 164.614 375.155ZM171.485 375.186C171.485 376.841 170.382 377.755 169.168 377.755C167.986 377.755 166.868 376.81 166.868 375.155C166.868 373.5 167.986 372.617 169.168 372.617C170.382 372.617 171.485 373.531 171.485 375.186ZM178.069 375.202C178.069 373.516 178.857 373.011 180.165 373.011H180.748V370.695C179.534 370.695 178.62 371.278 178.069 372.176V370.821H175.862V379.552H178.069V375.202Z" fill="white"/>
<path d="M63.0175 80.7411C63.0175 81.8911 62.2585 82.4891 60.9475 82.4891H58.0495V78.9241H60.9015C62.2125 78.9241 63.0175 79.5911 63.0175 80.7411ZM62.6265 74.3701C62.6265 75.4741 61.9135 76.0491 60.6255 76.0491H58.0495V72.6681H60.6255C61.9135 72.6681 62.6265 73.2661 62.6265 74.3701ZM66.9965 81.2701C66.9965 79.4301 65.7775 77.7741 63.8915 77.3831C65.4555 76.9231 66.6285 75.6581 66.6285 73.7031C66.6285 71.1501 64.6735 69.5171 61.3845 69.5171H54.1165V85.6631H61.6375C65.0415 85.6631 66.9965 83.9381 66.9965 81.2701ZM69.9676 85.6631H73.9006V69.5171H69.9676V85.6631ZM77.4408 69.5171V85.6631H86.5258V82.6271H81.3738V69.5171H77.4408ZM99.1427 85.6631H103.076V69.5171H99.1427V75.8421H93.0247V69.5171H89.0917V85.6631H93.0247V79.0161H99.1427V85.6631ZM116.495 69.5171H106.605V85.6631H116.495V82.5121H110.538V78.9701H115.805V75.9341H110.538V72.6681H116.495V69.5171ZM118.864 72.6681H123.142V85.6631H127.075V72.6681H131.353V69.5171H118.864V72.6681ZM143.907 69.5171H134.017V85.6631H143.907V82.5121H137.95V78.9701H143.217V75.9341H137.95V72.6681H143.907V69.5171ZM158.764 69.5171H152.715V85.6631H158.764C163.916 85.6631 167.228 82.3741 167.228 77.5901C167.228 72.7831 163.916 69.5171 158.764 69.5171ZM156.648 82.2591V72.8751H158.511C161.478 72.8751 163.226 74.6231 163.226 77.5901C163.226 80.5571 161.478 82.2591 158.511 82.2591H156.648ZM170.116 85.6631H174.049V69.5171H170.116V85.6631ZM188.606 85.6631H192.769L186.927 69.5171H182.373L176.531 85.6631H180.648L181.614 82.8111H187.64L188.606 85.6631ZM181.775 65.8831V68.5971L187.318 66.2741V63.2151L181.775 65.8831ZM186.628 79.7751H182.649L184.627 73.8641L186.628 79.7751ZM203.77 74.7611C203.77 76.0261 203.08 76.7851 201.608 76.7851H199.17V72.7831H201.608C203.08 72.7831 203.77 73.5651 203.77 74.7611ZM195.237 69.5171V85.6631H199.17V79.5681H200.113L203.471 85.6631H207.91L204.184 79.2691C206.668 78.5331 207.772 76.6241 207.772 74.6001C207.772 71.7941 205.794 69.5171 201.838 69.5171H195.237ZM210.931 85.6631H214.864V69.5171H210.931V85.6631ZM234.297 77.5441C234.297 72.6911 230.64 69.2871 226.04 69.2871C221.463 69.2871 217.737 72.6911 217.737 77.5441C217.737 82.3971 221.463 85.8241 226.04 85.8241C230.617 85.8241 234.297 82.3971 234.297 77.5441ZM221.762 77.5441C221.762 74.6691 223.418 72.8521 226.04 72.8521C228.616 72.8521 230.295 74.6691 230.295 77.5441C230.295 80.3731 228.616 82.2361 226.04 82.2361C223.418 82.2361 221.762 80.3731 221.762 77.5441Z" fill="white"/>
<path d="M73.1188 249.538H74.5908V237.97H71.5828V239.298H73.1188V249.538ZM84.0135 242.402V237.698H82.5575V249.538H84.0135V247.922C84.5575 248.882 85.6935 249.682 87.2935 249.682C89.6455 249.682 91.4535 247.842 91.4535 245.122C91.4535 242.386 89.6615 240.626 87.2935 240.626C85.7415 240.626 84.5735 241.426 84.0135 242.402ZM89.9655 245.122C89.9655 247.186 88.6055 248.402 86.9895 248.402C85.4055 248.402 84.0135 247.202 84.0135 245.138C84.0135 243.106 85.4055 241.89 86.9895 241.89C88.6055 241.89 89.9655 243.058 89.9655 245.122ZM93.85 249.538H95.306V240.77H93.85V249.538ZM94.602 239.346C95.13 239.346 95.562 238.914 95.562 238.354C95.562 237.794 95.13 237.362 94.602 237.362C94.042 237.362 93.61 237.794 93.61 238.354C93.61 238.914 94.042 239.346 94.602 239.346ZM98.2675 249.538H99.7235V237.698H98.2675V249.538ZM102.685 249.538H104.141V244.69C104.141 242.802 105.165 241.874 106.653 241.874C108.125 241.874 109.101 242.786 109.101 244.578V249.538H110.541V244.37C110.541 241.858 108.989 240.61 107.037 240.61C105.805 240.61 104.717 241.106 104.141 242.034V237.698H102.685V249.538ZM117.127 241.858C118.631 241.858 119.911 242.802 119.895 244.514H114.359C114.519 242.802 115.703 241.858 117.127 241.858ZM121.223 246.834H119.655C119.335 247.778 118.503 248.45 117.191 248.45C115.703 248.45 114.455 247.474 114.343 245.698H121.351C121.383 245.394 121.399 245.138 121.399 244.818C121.399 242.418 119.735 240.626 117.191 240.626C114.631 240.626 112.855 242.37 112.855 245.138C112.855 247.922 114.695 249.682 117.191 249.682C119.367 249.682 120.775 248.434 121.223 246.834ZM124.121 247.138C124.121 248.898 125.001 249.538 126.553 249.538H127.865V248.306H126.793C125.897 248.306 125.577 248.002 125.577 247.138V241.97H127.865V240.77H125.577V238.562H124.121V240.77H122.985V241.97H124.121V247.138ZM133.837 241.858C135.341 241.858 136.621 242.802 136.605 244.514H131.069C131.229 242.802 132.413 241.858 133.837 241.858ZM137.933 246.834H136.365C136.045 247.778 135.213 248.45 133.901 248.45C132.413 248.45 131.165 247.474 131.053 245.698H138.061C138.093 245.394 138.109 245.138 138.109 244.818C138.109 242.418 136.445 240.626 133.901 240.626C131.341 240.626 129.565 242.37 129.565 245.138C129.565 247.922 131.405 249.682 133.901 249.682C136.077 249.682 137.485 248.434 137.933 246.834ZM146.713 242.386V240.77H145.257V253.698H146.713V247.922C147.257 248.818 148.393 249.682 149.993 249.682C152.345 249.682 154.153 247.842 154.153 245.122C154.153 242.386 152.345 240.626 149.993 240.626C148.393 240.626 147.241 241.458 146.713 242.386ZM152.665 245.122C152.665 247.186 151.305 248.402 149.689 248.402C148.105 248.402 146.713 247.202 146.713 245.138C146.713 243.106 148.105 241.89 149.689 241.89C151.305 241.89 152.665 243.058 152.665 245.122ZM156.005 245.122C156.005 247.842 157.813 249.682 160.149 249.682C161.765 249.682 162.901 248.85 163.429 247.906V249.538H164.901V240.77H163.429V242.37C162.917 241.458 161.797 240.626 160.165 240.626C157.813 240.626 156.005 242.386 156.005 245.122ZM163.429 245.138C163.429 247.202 162.053 248.402 160.453 248.402C158.853 248.402 157.493 247.186 157.493 245.122C157.493 243.058 158.853 241.89 160.453 241.89C162.053 241.89 163.429 243.106 163.429 245.138ZM169.298 244.77C169.298 242.738 170.354 242.114 171.746 242.114H172.13V240.61C170.738 240.61 169.794 241.218 169.298 242.194V240.77H167.842V249.538H169.298V244.77ZM173.747 245.122C173.747 247.842 175.555 249.682 177.891 249.682C179.507 249.682 180.643 248.85 181.171 247.906V249.538H182.643V240.77H181.171V242.37C180.659 241.458 179.539 240.626 177.907 240.626C175.555 240.626 173.747 242.386 173.747 245.122ZM181.171 245.138C181.171 247.202 179.795 248.402 178.195 248.402C176.595 248.402 175.235 247.186 175.235 245.122C175.235 243.058 176.595 241.89 178.195 241.89C179.795 241.89 181.171 243.106 181.171 245.138ZM198.105 240.77H196.649V245.586C196.649 247.474 195.641 248.402 194.137 248.402C192.665 248.402 191.689 247.49 191.689 245.714V240.77H190.249V245.906C190.249 248.418 191.833 249.666 193.849 249.666C195.017 249.666 196.089 249.154 196.649 248.242V249.538H198.105V240.77ZM213.699 249.538H215.139V244.37C215.139 241.858 213.587 240.61 211.587 240.61C210.243 240.61 208.995 241.298 208.483 242.562C207.907 241.25 206.707 240.61 205.267 240.61C204.115 240.61 203.075 241.106 202.499 242.034V240.77H201.043V249.538H202.499V244.706C202.499 242.818 203.507 241.874 204.979 241.874C206.419 241.874 207.379 242.786 207.379 244.578V249.538H208.819V244.706C208.819 242.818 209.827 241.874 211.299 241.874C212.739 241.874 213.699 242.786 213.699 244.578V249.538ZM85.2735 266.122C85.2735 268.842 87.0815 270.682 89.4335 270.682C91.0335 270.682 92.1695 269.866 92.6975 268.89V270.538H94.1695V258.698H92.6975V263.338C92.0895 262.33 90.8255 261.626 89.4495 261.626C87.0815 261.626 85.2735 263.386 85.2735 266.122ZM92.6975 266.138C92.6975 268.202 91.3215 269.402 89.7215 269.402C88.1215 269.402 86.7615 268.186 86.7615 266.122C86.7615 264.058 88.1215 262.89 89.7215 262.89C91.3215 262.89 92.6975 264.106 92.6975 266.138ZM97.11 270.538H98.566V261.77H97.11V270.538ZM97.862 260.346C98.39 260.346 98.822 259.914 98.822 259.354C98.822 258.794 98.39 258.362 97.862 258.362C97.302 258.362 96.87 258.794 96.87 259.354C96.87 259.914 97.302 260.346 97.862 260.346ZM100.983 266.122C100.983 268.842 102.791 270.682 105.127 270.682C106.743 270.682 107.879 269.85 108.407 268.906V270.538H109.879V261.77H108.407V263.37C107.895 262.458 106.775 261.626 105.143 261.626C102.791 261.626 100.983 263.386 100.983 266.122ZM108.407 266.138C108.407 268.202 107.031 269.402 105.431 269.402C103.831 269.402 102.471 268.186 102.471 266.122C102.471 264.058 103.831 262.89 105.431 262.89C107.031 262.89 108.407 264.106 108.407 266.138ZM117.022 266.122C117.022 268.842 118.83 270.682 121.182 270.682C122.782 270.682 123.918 269.866 124.446 268.89V270.538H125.918V258.698H124.446V263.338C123.838 262.33 122.574 261.626 121.198 261.626C118.83 261.626 117.022 263.386 117.022 266.122ZM124.446 266.138C124.446 268.202 123.07 269.402 121.47 269.402C119.87 269.402 118.51 268.186 118.51 266.122C118.51 264.058 119.87 262.89 121.47 262.89C123.07 262.89 124.446 264.106 124.446 266.138ZM132.586 262.858C134.09 262.858 135.37 263.802 135.354 265.514H129.818C129.978 263.802 131.162 262.858 132.586 262.858ZM136.682 267.834H135.114C134.794 268.778 133.962 269.45 132.65 269.45C131.162 269.45 129.914 268.474 129.802 266.698H136.81C136.842 266.394 136.858 266.138 136.858 265.818C136.858 263.418 135.194 261.626 132.65 261.626C130.09 261.626 128.314 263.37 128.314 266.138C128.314 268.922 130.154 270.682 132.65 270.682C134.826 270.682 136.234 269.434 136.682 267.834ZM144.278 270.538H145.734V262.97H147.574V261.77H145.734V261.146C145.734 260.01 146.166 259.53 147.478 259.53V258.314C145.238 258.314 144.278 259.194 144.278 261.146V261.77H143.142V262.97H144.278V270.538ZM153.479 262.858C154.983 262.858 156.263 263.802 156.247 265.514H150.711C150.871 263.802 152.055 262.858 153.479 262.858ZM157.575 267.834H156.007C155.687 268.778 154.855 269.45 153.543 269.45C152.055 269.45 150.807 268.474 150.695 266.698H157.703C157.735 266.394 157.751 266.138 157.751 265.818C157.751 263.418 156.087 261.626 153.543 261.626C150.983 261.626 149.207 263.37 149.207 266.138C149.207 268.922 151.047 270.682 153.543 270.682C155.719 270.682 157.127 269.434 157.575 267.834ZM166.457 268.154C166.393 265.018 161.305 266.154 161.305 264.074C161.305 263.37 161.945 262.858 163.017 262.858C164.185 262.858 164.857 263.498 164.921 264.378H166.377C166.281 262.666 165.001 261.626 163.065 261.626C161.113 261.626 159.849 262.73 159.849 264.074C159.849 267.338 165.033 266.202 165.033 268.154C165.033 268.874 164.393 269.45 163.241 269.45C162.009 269.45 161.257 268.81 161.177 267.962H159.673C159.769 269.562 161.209 270.682 163.257 270.682C165.193 270.682 166.457 269.594 166.457 268.154ZM169.312 268.138C169.312 269.898 170.192 270.538 171.744 270.538H173.056V269.306H171.984C171.088 269.306 170.768 269.002 170.768 268.138V262.97H173.056V261.77H170.768V259.562H169.312V261.77H168.176V262.97H169.312V268.138ZM175.301 270.538H176.757V261.77H175.301V270.538ZM176.053 260.346C176.581 260.346 177.013 259.914 177.013 259.354C177.013 258.794 176.581 258.362 176.053 258.362C175.493 258.362 175.061 258.794 175.061 259.354C175.061 259.914 175.493 260.346 176.053 260.346ZM178.678 261.77L182.118 270.538H183.814L187.254 261.77H185.702L182.982 269.194L180.246 261.77H178.678ZM188.623 266.122C188.623 268.842 190.431 270.682 192.767 270.682C194.383 270.682 195.519 269.85 196.047 268.906V270.538H197.519V261.77H196.047V263.37C195.535 262.458 194.415 261.626 192.783 261.626C190.431 261.626 188.623 263.386 188.623 266.122ZM196.047 266.138C196.047 268.202 194.671 269.402 193.071 269.402C191.471 269.402 190.111 268.186 190.111 266.122C190.111 264.058 191.471 262.89 193.071 262.89C194.671 262.89 196.047 264.106 196.047 266.138ZM200.459 270.538H201.915V258.698H200.459V270.538Z" fill="white"/>
<path d="M118.984 139.208C118.351 131.614 113.428 124.301 102.388 124.301C89.0978 124.301 83.6129 133.09 83.6129 150.67C83.6129 166 87.4102 176.97 102.88 176.97C113.921 176.97 120.39 169.938 120.39 159.742C120.39 149.053 114.061 143.216 105.131 143.216C100.419 143.216 96.2704 145.185 94.2312 148.49C94.3015 138.575 96.4111 134.005 101.826 134.005C105.412 134.005 107.1 135.833 107.803 139.208H118.984ZM102.248 152.71C106.748 152.71 109.069 155.522 109.069 159.812C109.069 164.172 106.467 166.773 102.388 166.773C97.8175 166.773 95.2156 164.101 95.2156 159.601C95.2156 154.96 98.4503 152.71 102.248 152.71ZM127.191 150.319C127.191 165.508 132.324 176.478 146.951 176.478C161.577 176.478 166.711 165.508 166.711 150.319C166.711 135.27 161.577 124.301 146.951 124.301C132.324 124.301 127.191 135.27 127.191 150.319ZM154.897 150.319C154.897 158.476 154.053 165.226 146.951 165.226C139.849 165.226 139.005 158.476 139.005 150.319C139.005 142.443 139.849 135.552 146.951 135.552C154.053 135.552 154.897 142.443 154.897 150.319ZM173.876 159.618C173.876 160.054 173.876 160.491 173.924 160.927H170.869V165.243H174.652C176.737 172.324 182.848 176.931 190.947 176.931C199.045 176.931 205.156 172.421 207.096 165.049H197.978C196.572 167.862 194.002 169.366 190.85 169.366C187.649 169.366 185.078 167.862 183.624 165.243H191.819V160.927H182.363C182.314 160.491 182.314 160.054 182.314 159.618C182.314 159.133 182.314 158.648 182.363 158.211H191.819V153.847H183.721C185.175 151.374 187.697 149.919 190.85 149.919C194.002 149.919 196.572 151.374 197.978 154.186H207.096C205.156 146.815 199.045 142.256 190.947 142.256C182.896 142.256 176.834 146.815 174.7 153.847H170.869V158.211H173.924C173.876 158.648 173.876 159.133 173.876 159.618Z" fill="white"/>
</g>
<defs>
<filter id="filter0_d_1119_3772" x="0" y="0.128418" width="305" height="485.153" filterUnits="userSpaceOnUse" color-interpolation-filters="sRGB">
<feFlood flood-opacity="0" result="BackgroundImageFix"/>
<feColorMatrix in="SourceAlpha" type="matrix" values="0 0 0 0 0 0 0 0 0 0 0 0 0 0 0 0 0 0 127 0" result="hardAlpha"/>
<feOffset dx="8" dy="9"/>
<feGaussianBlur stdDeviation="12.5"/>
<feComposite in2="hardAlpha" operator="out"/>
<feColorMatrix type="matrix" values="0 0 0 0 0 0 0 0 0 0 0 0 0 0 0 0 0 0 0.19 0"/>
<feBlend mode="normal" in2="BackgroundImageFix" result="effect1_dropShadow_1119_3772"/>
<feBlend mode="normal" in="SourceGraphic" in2="effect1_dropShadow_1119_3772" result="shape"/>
</filter>
</defs>
</svg>
