<svg width="305" height="487" viewBox="0 0 305 487" fill="none" xmlns="http://www.w3.org/2000/svg">
<g filter="url(#filter0_d_1119_3785)">
<path d="M17 16.3462H272V324.159H17V16.3462Z" fill="#4A3FCA"/>
<path d="M271.999 323.375H17V448.182C17 449.848 18.9178 450.784 20.231 449.758L33.944 439.05C34.6661 438.486 35.6791 438.484 36.4024 439.047L52.2014 451.328C52.9233 451.889 53.9338 451.889 54.6558 451.328L70.465 439.046C71.1885 438.484 72.2014 438.486 72.9234 439.05L88.6324 451.325C89.3529 451.888 90.3634 451.89 91.0868 451.331L106.986 439.043C107.711 438.483 108.724 438.487 109.444 439.053L125.063 451.321C125.782 451.886 126.793 451.891 127.518 451.334L143.506 439.04C144.233 438.482 145.246 438.488 145.965 439.056L161.494 451.318C162.211 451.885 163.222 451.893 163.948 451.337L180.027 439.037C180.755 438.481 181.768 438.49 182.486 439.059L199.142 452.282L216.548 439.034C217.277 438.479 218.291 438.491 219.007 439.063L234.355 451.312C235.07 451.882 236.081 451.895 236.81 451.343L253.069 439.032C253.8 438.478 254.813 438.492 255.528 439.066L268.748 449.673C270.057 450.723 272 449.791 272 448.113L271.999 323.375Z" fill="#30288C"/>
<rect x="81.0391" y="357.969" width="124" height="45" rx="22.5" stroke="white" stroke-width="2"/>
<path d="M108.096 379.566C108.096 378.484 108.338 377.517 108.821 376.666C109.315 375.805 109.982 375.137 110.823 374.665C111.674 374.181 112.625 373.94 113.675 373.94C114.905 373.94 115.982 374.255 116.906 374.885C117.831 375.516 118.477 376.388 118.845 377.501H116.307C116.055 376.976 115.698 376.582 115.236 376.319C114.784 376.057 114.258 375.925 113.66 375.925C113.019 375.925 112.446 376.078 111.942 376.383C111.448 376.677 111.059 377.097 110.776 377.643C110.502 378.19 110.366 378.831 110.366 379.566C110.366 380.291 110.502 380.932 110.776 381.489C111.059 382.035 111.448 382.461 111.942 382.765C112.446 383.059 113.019 383.207 113.66 383.207C114.258 383.207 114.784 383.075 115.236 382.813C115.698 382.539 116.055 382.14 116.307 381.615H118.845C118.477 382.739 117.831 383.616 116.906 384.247C115.992 384.867 114.915 385.177 113.675 385.177C112.625 385.177 111.674 384.94 110.823 384.467C109.982 383.984 109.315 383.317 108.821 382.466C108.338 381.615 108.096 380.648 108.096 379.566ZM124.606 385.224C123.766 385.224 123.009 385.04 122.337 384.672C121.664 384.294 121.134 383.763 120.745 383.081C120.367 382.398 120.178 381.61 120.178 380.717C120.178 379.823 120.372 379.035 120.761 378.353C121.16 377.67 121.701 377.144 122.384 376.777C123.067 376.398 123.829 376.209 124.669 376.209C125.51 376.209 126.271 376.398 126.954 376.777C127.637 377.144 128.173 377.67 128.562 378.353C128.961 379.035 129.161 379.823 129.161 380.717C129.161 381.61 128.956 382.398 128.546 383.081C128.147 383.763 127.601 384.294 126.907 384.672C126.224 385.04 125.457 385.224 124.606 385.224ZM124.606 383.301C125.005 383.301 125.378 383.207 125.725 383.017C126.082 382.818 126.366 382.524 126.576 382.135C126.786 381.746 126.891 381.273 126.891 380.717C126.891 379.886 126.671 379.251 126.229 378.81C125.799 378.358 125.268 378.132 124.638 378.132C124.007 378.132 123.477 378.358 123.046 378.81C122.626 379.251 122.416 379.886 122.416 380.717C122.416 381.547 122.62 382.187 123.03 382.639C123.45 383.081 123.976 383.301 124.606 383.301ZM141.622 376.225C142.694 376.225 143.555 376.556 144.207 377.218C144.869 377.869 145.2 378.783 145.2 379.96V385.082H142.993V380.259C142.993 379.577 142.82 379.056 142.473 378.699C142.126 378.331 141.654 378.148 141.055 378.148C140.456 378.148 139.978 378.331 139.621 378.699C139.274 379.056 139.101 379.577 139.101 380.259V385.082H136.894V380.259C136.894 379.577 136.721 379.056 136.374 378.699C136.027 378.331 135.555 378.148 134.956 378.148C134.346 378.148 133.863 378.331 133.506 378.699C133.159 379.056 132.986 379.577 132.986 380.259V385.082H130.779V376.351H132.986V377.407C133.269 377.039 133.632 376.75 134.073 376.54C134.525 376.33 135.019 376.225 135.555 376.225C136.237 376.225 136.847 376.372 137.383 376.666C137.919 376.95 138.334 377.36 138.628 377.895C138.911 377.391 139.321 376.987 139.857 376.682C140.403 376.377 140.992 376.225 141.622 376.225ZM149.5 377.612C149.783 377.213 150.172 376.882 150.666 376.619C151.17 376.346 151.743 376.209 152.384 376.209C153.13 376.209 153.802 376.393 154.401 376.761C155.011 377.128 155.489 377.654 155.835 378.337C156.193 379.009 156.371 379.792 156.371 380.685C156.371 381.578 156.193 382.371 155.835 383.065C155.489 383.748 155.011 384.278 154.401 384.657C153.802 385.035 153.13 385.224 152.384 385.224C151.743 385.224 151.176 385.093 150.682 384.83C150.199 384.567 149.805 384.236 149.5 383.837V389.243H147.293V376.351H149.5V377.612ZM154.117 380.685C154.117 380.16 154.007 379.708 153.787 379.33C153.576 378.941 153.293 378.647 152.935 378.447C152.589 378.247 152.211 378.148 151.801 378.148C151.402 378.148 151.023 378.253 150.666 378.463C150.319 378.662 150.036 378.957 149.815 379.345C149.605 379.734 149.5 380.191 149.5 380.717C149.5 381.242 149.605 381.699 149.815 382.088C150.036 382.476 150.319 382.776 150.666 382.986C151.023 383.186 151.402 383.285 151.801 383.285C152.211 383.285 152.589 383.18 152.935 382.97C153.293 382.76 153.576 382.461 153.787 382.072C154.007 381.683 154.117 381.221 154.117 380.685ZM160.181 377.706C160.465 377.244 160.832 376.882 161.284 376.619C161.746 376.356 162.272 376.225 162.86 376.225V378.542H162.277C161.584 378.542 161.058 378.704 160.701 379.03C160.354 379.356 160.181 379.923 160.181 380.732V385.082H157.975V376.351H160.181V377.706ZM163.779 380.685C163.779 379.802 163.952 379.02 164.299 378.337C164.656 377.654 165.134 377.128 165.733 376.761C166.342 376.393 167.02 376.209 167.766 376.209C168.418 376.209 168.985 376.34 169.468 376.603C169.962 376.866 170.356 377.197 170.65 377.596V376.351H172.872V385.082H170.65V383.805C170.367 384.215 169.973 384.557 169.468 384.83C168.974 385.093 168.402 385.224 167.75 385.224C167.015 385.224 166.342 385.035 165.733 384.657C165.134 384.278 164.656 383.748 164.299 383.065C163.952 382.371 163.779 381.578 163.779 380.685ZM170.65 380.717C170.65 380.181 170.545 379.724 170.335 379.345C170.125 378.957 169.841 378.662 169.484 378.463C169.127 378.253 168.743 378.148 168.334 378.148C167.924 378.148 167.546 378.247 167.199 378.447C166.852 378.647 166.568 378.941 166.348 379.33C166.138 379.708 166.033 380.16 166.033 380.685C166.033 381.21 166.138 381.673 166.348 382.072C166.568 382.461 166.852 382.76 167.199 382.97C167.556 383.18 167.934 383.285 168.334 383.285C168.743 383.285 169.127 383.186 169.484 382.986C169.841 382.776 170.125 382.482 170.335 382.103C170.545 381.715 170.65 381.252 170.65 380.717ZM177.234 377.706C177.517 377.244 177.885 376.882 178.337 376.619C178.799 376.356 179.325 376.225 179.913 376.225V378.542H179.33C178.636 378.542 178.111 378.704 177.754 379.03C177.407 379.356 177.234 379.923 177.234 380.732V385.082H175.027V376.351H177.234V377.706Z" fill="white"/>
<path d="M65.4 78.3821C66.3354 78.5814 67.0867 79.0491 67.654 79.7851C68.2214 80.5058 68.505 81.3338 68.505 82.2691C68.505 83.6184 68.0297 84.6918 67.079 85.4891C66.1437 86.2711 64.8327 86.6621 63.146 86.6621H55.625V70.5161H62.893C64.5337 70.5161 65.814 70.8918 66.734 71.6431C67.6694 72.3944 68.137 73.4141 68.137 74.7021C68.137 75.6528 67.884 76.4424 67.378 77.0711C66.8874 77.6998 66.228 78.1368 65.4 78.3821ZM59.558 77.0481H62.134C62.778 77.0481 63.2687 76.9101 63.606 76.6341C63.9587 76.3428 64.135 75.9211 64.135 75.3691C64.135 74.8171 63.9587 74.3954 63.606 74.1041C63.2687 73.8128 62.778 73.6671 62.134 73.6671H59.558V77.0481ZM62.456 83.4881C63.1154 83.4881 63.6214 83.3424 63.974 83.0511C64.342 82.7444 64.526 82.3074 64.526 81.7401C64.526 81.1728 64.3344 80.7281 63.951 80.4061C63.583 80.0841 63.0694 79.9231 62.41 79.9231H59.558V83.4881H62.456ZM75.4092 70.5161V86.6621H71.4762V70.5161H75.4092ZM82.8824 83.6261H88.0344V86.6621H78.9494V70.5161H82.8824V83.6261ZM104.584 70.5161V86.6621H100.651V80.0151H94.5333V86.6621H90.6003V70.5161H94.5333V76.8411H100.651V70.5161H104.584ZM112.047 73.6671V76.9331H117.314V79.9691H112.047V83.5111H118.004V86.6621H108.114V70.5161H118.004V73.6671H112.047ZM132.862 70.5161V73.6671H128.584V86.6621H124.651V73.6671H120.373V70.5161H132.862ZM139.459 73.6671V76.9331H144.726V79.9691H139.459V83.5111H145.416V86.6621H135.526V70.5161H145.416V73.6671H139.459ZM160.272 70.5161C161.974 70.5161 163.461 70.8534 164.734 71.5281C166.007 72.2028 166.988 73.1534 167.678 74.3801C168.383 75.5914 168.736 76.9944 168.736 78.5891C168.736 80.1684 168.383 81.5714 167.678 82.7981C166.988 84.0248 165.999 84.9754 164.711 85.6501C163.438 86.3248 161.959 86.6621 160.272 86.6621H154.223V70.5161H160.272ZM160.019 83.2581C161.506 83.2581 162.664 82.8518 163.492 82.0391C164.32 81.2264 164.734 80.0764 164.734 78.5891C164.734 77.1018 164.32 75.9441 163.492 75.1161C162.664 74.2881 161.506 73.8741 160.019 73.8741H158.156V83.2581H160.019ZM175.488 70.5161V80.1761C175.488 81.1421 175.726 81.8858 176.201 82.4071C176.676 82.9284 177.374 83.1891 178.294 83.1891C179.214 83.1891 179.919 82.9284 180.41 82.4071C180.901 81.8858 181.146 81.1421 181.146 80.1761V70.5161H185.079V80.1531C185.079 81.5944 184.772 82.8134 184.159 83.8101C183.546 84.8068 182.718 85.5581 181.675 86.0641C180.648 86.5701 179.498 86.8231 178.225 86.8231C176.952 86.8231 175.81 86.5778 174.798 86.0871C173.801 85.5811 173.012 84.8298 172.429 83.8331C171.846 82.8211 171.555 81.5944 171.555 80.1531V70.5161H175.488ZM200.836 75.7141C200.836 76.6494 200.621 77.5081 200.192 78.2901C199.763 79.0568 199.103 79.6778 198.214 80.1531C197.325 80.6284 196.221 80.8661 194.902 80.8661H192.464V86.6621H188.531V70.5161H194.902C196.19 70.5161 197.279 70.7384 198.168 71.1831C199.057 71.6278 199.724 72.2411 200.169 73.0231C200.614 73.8051 200.836 74.7021 200.836 75.7141ZM194.603 77.7381C195.354 77.7381 195.914 77.5618 196.282 77.2091C196.65 76.8564 196.834 76.3581 196.834 75.7141C196.834 75.0701 196.65 74.5718 196.282 74.2191C195.914 73.8664 195.354 73.6901 194.603 73.6901H192.464V77.7381H194.603ZM207.506 83.6261H212.658V86.6621H203.573V70.5161H207.506V83.6261ZM222.86 86.8231C221.342 86.8231 219.947 86.4704 218.674 85.7651C217.417 85.0598 216.413 84.0784 215.661 82.8211C214.925 81.5484 214.557 80.1224 214.557 78.5431C214.557 76.9638 214.925 75.5454 215.661 74.2881C216.413 73.0308 217.417 72.0494 218.674 71.3441C219.947 70.6388 221.342 70.2861 222.86 70.2861C224.378 70.2861 225.766 70.6388 227.023 71.3441C228.296 72.0494 229.293 73.0308 230.013 74.2881C230.749 75.5454 231.117 76.9638 231.117 78.5431C231.117 80.1224 230.749 81.5484 230.013 82.8211C229.277 84.0784 228.281 85.0598 227.023 85.7651C225.766 86.4704 224.378 86.8231 222.86 86.8231ZM222.86 83.2351C224.148 83.2351 225.176 82.8058 225.942 81.9471C226.724 81.0884 227.115 79.9538 227.115 78.5431C227.115 77.1171 226.724 75.9824 225.942 75.1391C225.176 74.2804 224.148 73.8511 222.86 73.8511C221.557 73.8511 220.514 74.2728 219.732 75.1161C218.966 75.9594 218.582 77.1018 218.582 78.5431C218.582 79.9691 218.966 81.1114 219.732 81.9701C220.514 82.8134 221.557 83.2351 222.86 83.2351Z" fill="white"/>
<path d="M63.8707 243.422V242.094H66.8787V253.662H65.4067V243.422H63.8707ZM76.3013 246.526C76.5999 246.003 77.0373 245.576 77.6133 245.246C78.1893 244.915 78.8453 244.75 79.5813 244.75C80.3706 244.75 81.0799 244.936 81.7093 245.31C82.3386 245.683 82.8346 246.211 83.1973 246.894C83.5599 247.566 83.7413 248.35 83.7413 249.246C83.7413 250.131 83.5599 250.92 83.1973 251.614C82.8346 252.307 82.3333 252.846 81.6933 253.23C81.0639 253.614 80.3599 253.806 79.5813 253.806C78.8239 253.806 78.1573 253.64 77.5813 253.31C77.0159 252.979 76.5893 252.558 76.3013 252.046V253.662H74.8453V241.822H76.3013V246.526ZM82.2533 249.246C82.2533 248.584 82.1199 248.008 81.8533 247.518C81.5866 247.027 81.2239 246.654 80.7653 246.398C80.3173 246.142 79.8213 246.014 79.2773 246.014C78.7439 246.014 78.2479 246.147 77.7893 246.414C77.3413 246.67 76.9786 247.048 76.7013 247.55C76.4346 248.04 76.3013 248.611 76.3013 249.262C76.3013 249.923 76.4346 250.504 76.7013 251.006C76.9786 251.496 77.3413 251.875 77.7893 252.142C78.2479 252.398 78.7439 252.526 79.2773 252.526C79.8213 252.526 80.3173 252.398 80.7653 252.142C81.2239 251.875 81.5866 251.496 81.8533 251.006C82.1199 250.504 82.2533 249.918 82.2533 249.246ZM86.8898 243.47C86.6124 243.47 86.3778 243.374 86.1858 243.182C85.9938 242.99 85.8978 242.755 85.8978 242.478C85.8978 242.2 85.9938 241.966 86.1858 241.774C86.3778 241.582 86.6124 241.486 86.8898 241.486C87.1564 241.486 87.3804 241.582 87.5618 241.774C87.7538 241.966 87.8498 242.2 87.8498 242.478C87.8498 242.755 87.7538 242.99 87.5618 243.182C87.3804 243.374 87.1564 243.47 86.8898 243.47ZM87.5938 244.894V253.662H86.1378V244.894H87.5938ZM92.0113 241.822V253.662H90.5553V241.822H92.0113ZM99.3248 244.734C99.9861 244.734 100.583 244.878 101.117 245.166C101.65 245.443 102.066 245.864 102.365 246.43C102.674 246.995 102.829 247.683 102.829 248.494V253.662H101.389V248.702C101.389 247.827 101.17 247.16 100.733 246.702C100.295 246.232 99.6981 245.998 98.9408 245.998C98.1728 245.998 97.5595 246.238 97.1008 246.718C96.6528 247.198 96.4288 247.896 96.4288 248.814V253.662H94.9728V241.822H96.4288V246.142C96.7168 245.694 97.1115 245.347 97.6128 245.102C98.1248 244.856 98.6955 244.734 99.3248 244.734ZM113.687 248.942C113.687 249.219 113.671 249.512 113.639 249.822H106.631C106.684 250.686 106.978 251.363 107.511 251.854C108.055 252.334 108.711 252.574 109.479 252.574C110.108 252.574 110.631 252.43 111.047 252.142C111.474 251.843 111.772 251.448 111.943 250.958H113.511C113.276 251.8 112.807 252.488 112.103 253.022C111.399 253.544 110.524 253.806 109.479 253.806C108.647 253.806 107.9 253.619 107.239 253.246C106.588 252.872 106.076 252.344 105.703 251.662C105.33 250.968 105.143 250.168 105.143 249.262C105.143 248.355 105.324 247.56 105.687 246.878C106.05 246.195 106.556 245.672 107.207 245.31C107.868 244.936 108.626 244.75 109.479 244.75C110.311 244.75 111.047 244.931 111.687 245.294C112.327 245.656 112.818 246.158 113.159 246.798C113.511 247.427 113.687 248.142 113.687 248.942ZM112.183 248.638C112.183 248.083 112.06 247.608 111.815 247.214C111.57 246.808 111.234 246.504 110.807 246.302C110.391 246.088 109.927 245.982 109.415 245.982C108.679 245.982 108.05 246.216 107.527 246.686C107.015 247.155 106.722 247.806 106.647 248.638H112.183ZM117.865 246.094V251.262C117.865 251.688 117.956 251.992 118.137 252.174C118.318 252.344 118.633 252.43 119.081 252.43H120.153V253.662H118.841C118.03 253.662 117.422 253.475 117.017 253.102C116.612 252.728 116.409 252.115 116.409 251.262V246.094H115.273V244.894H116.409V242.686H117.865V244.894H120.153V246.094H117.865ZM130.397 248.942C130.397 249.219 130.381 249.512 130.349 249.822H123.341C123.394 250.686 123.688 251.363 124.221 251.854C124.765 252.334 125.421 252.574 126.189 252.574C126.818 252.574 127.341 252.43 127.757 252.142C128.184 251.843 128.482 251.448 128.653 250.958H130.221C129.986 251.8 129.517 252.488 128.813 253.022C128.109 253.544 127.234 253.806 126.189 253.806C125.357 253.806 124.61 253.619 123.949 253.246C123.298 252.872 122.786 252.344 122.413 251.662C122.04 250.968 121.853 250.168 121.853 249.262C121.853 248.355 122.034 247.56 122.397 246.878C122.76 246.195 123.266 245.672 123.917 245.31C124.578 244.936 125.336 244.75 126.189 244.75C127.021 244.75 127.757 244.931 128.397 245.294C129.037 245.656 129.528 246.158 129.869 246.798C130.221 247.427 130.397 248.142 130.397 248.942ZM128.893 248.638C128.893 248.083 128.77 247.608 128.525 247.214C128.28 246.808 127.944 246.504 127.517 246.302C127.101 246.088 126.637 245.982 126.125 245.982C125.389 245.982 124.76 246.216 124.237 246.686C123.725 247.155 123.432 247.806 123.357 248.638H128.893ZM139.001 246.51C139.289 246.008 139.715 245.592 140.281 245.262C140.857 244.92 141.523 244.75 142.281 244.75C143.059 244.75 143.763 244.936 144.393 245.31C145.033 245.683 145.534 246.211 145.897 246.894C146.259 247.566 146.441 248.35 146.441 249.246C146.441 250.131 146.259 250.92 145.897 251.614C145.534 252.307 145.033 252.846 144.393 253.23C143.763 253.614 143.059 253.806 142.281 253.806C141.534 253.806 140.873 253.64 140.297 253.31C139.731 252.968 139.299 252.547 139.001 252.046V257.822H137.545V244.894H139.001V246.51ZM144.953 249.246C144.953 248.584 144.819 248.008 144.553 247.518C144.286 247.027 143.923 246.654 143.465 246.398C143.017 246.142 142.521 246.014 141.977 246.014C141.443 246.014 140.947 246.147 140.489 246.414C140.041 246.67 139.678 247.048 139.401 247.55C139.134 248.04 139.001 248.611 139.001 249.262C139.001 249.923 139.134 250.504 139.401 251.006C139.678 251.496 140.041 251.875 140.489 252.142C140.947 252.398 141.443 252.526 141.977 252.526C142.521 252.526 143.017 252.398 143.465 252.142C143.923 251.875 144.286 251.496 144.553 251.006C144.819 250.504 144.953 249.918 144.953 249.246ZM148.293 249.246C148.293 248.35 148.474 247.566 148.837 246.894C149.2 246.211 149.696 245.683 150.325 245.31C150.965 244.936 151.674 244.75 152.453 244.75C153.221 244.75 153.888 244.915 154.453 245.246C155.018 245.576 155.44 245.992 155.717 246.494V244.894H157.189V253.662H155.717V252.03C155.429 252.542 154.997 252.968 154.421 253.31C153.856 253.64 153.194 253.806 152.437 253.806C151.658 253.806 150.954 253.614 150.325 253.23C149.696 252.846 149.2 252.307 148.837 251.614C148.474 250.92 148.293 250.131 148.293 249.246ZM155.717 249.262C155.717 248.6 155.584 248.024 155.317 247.534C155.05 247.043 154.688 246.67 154.229 246.414C153.781 246.147 153.285 246.014 152.741 246.014C152.197 246.014 151.701 246.142 151.253 246.398C150.805 246.654 150.448 247.027 150.181 247.518C149.914 248.008 149.781 248.584 149.781 249.246C149.781 249.918 149.914 250.504 150.181 251.006C150.448 251.496 150.805 251.875 151.253 252.142C151.701 252.398 152.197 252.526 152.741 252.526C153.285 252.526 153.781 252.398 154.229 252.142C154.688 251.875 155.05 251.496 155.317 251.006C155.584 250.504 155.717 249.923 155.717 249.262ZM161.586 246.318C161.842 245.816 162.204 245.427 162.674 245.15C163.154 244.872 163.735 244.734 164.418 244.734V246.238H164.034C162.402 246.238 161.586 247.123 161.586 248.894V253.662H160.13V244.894H161.586V246.318ZM166.034 249.246C166.034 248.35 166.216 247.566 166.578 246.894C166.941 246.211 167.437 245.683 168.066 245.31C168.706 244.936 169.416 244.75 170.194 244.75C170.962 244.75 171.629 244.915 172.194 245.246C172.76 245.576 173.181 245.992 173.458 246.494V244.894H174.93V253.662H173.458V252.03C173.17 252.542 172.738 252.968 172.162 253.31C171.597 253.64 170.936 253.806 170.178 253.806C169.4 253.806 168.696 253.614 168.066 253.23C167.437 252.846 166.941 252.307 166.578 251.614C166.216 250.92 166.034 250.131 166.034 249.246ZM173.458 249.262C173.458 248.6 173.325 248.024 173.058 247.534C172.792 247.043 172.429 246.67 171.97 246.414C171.522 246.147 171.026 246.014 170.482 246.014C169.938 246.014 169.442 246.142 168.994 246.398C168.546 246.654 168.189 247.027 167.922 247.518C167.656 248.008 167.522 248.584 167.522 249.246C167.522 249.918 167.656 250.504 167.922 251.006C168.189 251.496 168.546 251.875 168.994 252.142C169.442 252.398 169.938 252.526 170.482 252.526C171.026 252.526 171.522 252.398 171.97 252.142C172.429 251.875 172.792 251.496 173.058 251.006C173.325 250.504 173.458 249.923 173.458 249.262ZM182.201 252.494C183.555 251.406 184.617 250.515 185.385 249.822C186.153 249.118 186.798 248.387 187.321 247.63C187.854 246.862 188.121 246.11 188.121 245.374C188.121 244.68 187.95 244.136 187.609 243.742C187.278 243.336 186.739 243.134 185.993 243.134C185.267 243.134 184.702 243.363 184.297 243.822C183.902 244.27 183.689 244.872 183.657 245.63H182.249C182.291 244.435 182.654 243.512 183.337 242.862C184.019 242.211 184.899 241.886 185.977 241.886C187.075 241.886 187.945 242.19 188.585 242.798C189.235 243.406 189.561 244.243 189.561 245.31C189.561 246.195 189.294 247.059 188.761 247.902C188.238 248.734 187.641 249.47 186.969 250.11C186.297 250.739 185.438 251.475 184.393 252.318H189.897V253.534H182.201V252.494ZM196.501 249.246C196.501 248.35 196.683 247.566 197.045 246.894C197.408 246.211 197.904 245.683 198.533 245.31C199.173 244.936 199.888 244.75 200.677 244.75C201.36 244.75 201.995 244.91 202.581 245.23C203.168 245.539 203.616 245.95 203.925 246.462V241.822H205.397V253.662H203.925V252.014C203.637 252.536 203.211 252.968 202.645 253.31C202.08 253.64 201.419 253.806 200.661 253.806C199.883 253.806 199.173 253.614 198.533 253.23C197.904 252.846 197.408 252.307 197.045 251.614C196.683 250.92 196.501 250.131 196.501 249.246ZM203.925 249.262C203.925 248.6 203.792 248.024 203.525 247.534C203.259 247.043 202.896 246.67 202.437 246.414C201.989 246.147 201.493 246.014 200.949 246.014C200.405 246.014 199.909 246.142 199.461 246.398C199.013 246.654 198.656 247.027 198.389 247.518C198.123 248.008 197.989 248.584 197.989 249.246C197.989 249.918 198.123 250.504 198.389 251.006C198.656 251.496 199.013 251.875 199.461 252.142C199.909 252.398 200.405 252.526 200.949 252.526C201.493 252.526 201.989 252.398 202.437 252.142C202.896 251.875 203.259 251.496 203.525 251.006C203.792 250.504 203.925 249.923 203.925 249.262ZM209.09 243.47C208.812 243.47 208.578 243.374 208.386 243.182C208.194 242.99 208.098 242.755 208.098 242.478C208.098 242.2 208.194 241.966 208.386 241.774C208.578 241.582 208.812 241.486 209.09 241.486C209.356 241.486 209.58 241.582 209.762 241.774C209.954 241.966 210.05 242.2 210.05 242.478C210.05 242.755 209.954 242.99 209.762 243.182C209.58 243.374 209.356 243.47 209.09 243.47ZM209.794 244.894V253.662H208.338V244.894H209.794ZM212.211 249.246C212.211 248.35 212.393 247.566 212.755 246.894C213.118 246.211 213.614 245.683 214.243 245.31C214.883 244.936 215.593 244.75 216.371 244.75C217.139 244.75 217.806 244.915 218.371 245.246C218.937 245.576 219.358 245.992 219.635 246.494V244.894H221.107V253.662H219.635V252.03C219.347 252.542 218.915 252.968 218.339 253.31C217.774 253.64 217.113 253.806 216.355 253.806C215.577 253.806 214.873 253.614 214.243 253.23C213.614 252.846 213.118 252.307 212.755 251.614C212.393 250.92 212.211 250.131 212.211 249.246ZM219.635 249.262C219.635 248.6 219.502 248.024 219.235 247.534C218.969 247.043 218.606 246.67 218.147 246.414C217.699 246.147 217.203 246.014 216.659 246.014C216.115 246.014 215.619 246.142 215.171 246.398C214.723 246.654 214.366 247.027 214.099 247.518C213.833 248.008 213.699 248.584 213.699 249.246C213.699 249.918 213.833 250.504 214.099 251.006C214.366 251.496 214.723 251.875 215.171 252.142C215.619 252.398 216.115 252.526 216.659 252.526C217.203 252.526 217.699 252.398 218.147 252.142C218.606 251.875 218.969 251.496 219.235 251.006C219.502 250.504 219.635 249.923 219.635 249.262ZM100.312 270.246C100.312 269.35 100.493 268.566 100.856 267.894C101.218 267.211 101.714 266.683 102.344 266.31C102.984 265.936 103.698 265.75 104.488 265.75C105.17 265.75 105.805 265.91 106.392 266.23C106.978 266.539 107.426 266.95 107.736 267.462V262.822H109.208V274.662H107.736V273.014C107.448 273.536 107.021 273.968 106.456 274.31C105.89 274.64 105.229 274.806 104.472 274.806C103.693 274.806 102.984 274.614 102.344 274.23C101.714 273.846 101.218 273.307 100.856 272.614C100.493 271.92 100.312 271.131 100.312 270.246ZM107.736 270.262C107.736 269.6 107.602 269.024 107.336 268.534C107.069 268.043 106.706 267.67 106.248 267.414C105.8 267.147 105.304 267.014 104.76 267.014C104.216 267.014 103.72 267.142 103.272 267.398C102.824 267.654 102.466 268.027 102.2 268.518C101.933 269.008 101.8 269.584 101.8 270.246C101.8 270.918 101.933 271.504 102.2 272.006C102.466 272.496 102.824 272.875 103.272 273.142C103.72 273.398 104.216 273.526 104.76 273.526C105.304 273.526 105.8 273.398 106.248 273.142C106.706 272.875 107.069 272.496 107.336 272.006C107.602 271.504 107.736 270.923 107.736 270.262ZM120.148 269.942C120.148 270.219 120.132 270.512 120.1 270.822H113.092C113.145 271.686 113.439 272.363 113.972 272.854C114.516 273.334 115.172 273.574 115.94 273.574C116.569 273.574 117.092 273.43 117.508 273.142C117.935 272.843 118.233 272.448 118.404 271.958H119.972C119.737 272.8 119.268 273.488 118.564 274.022C117.86 274.544 116.985 274.806 115.94 274.806C115.108 274.806 114.361 274.619 113.7 274.246C113.049 273.872 112.537 273.344 112.164 272.662C111.791 271.968 111.604 271.168 111.604 270.262C111.604 269.355 111.785 268.56 112.148 267.878C112.511 267.195 113.017 266.672 113.668 266.31C114.329 265.936 115.087 265.75 115.94 265.75C116.772 265.75 117.508 265.931 118.148 266.294C118.788 266.656 119.279 267.158 119.62 267.798C119.972 268.427 120.148 269.142 120.148 269.942ZM118.644 269.638C118.644 269.083 118.521 268.608 118.276 268.214C118.031 267.808 117.695 267.504 117.268 267.302C116.852 267.088 116.388 266.982 115.876 266.982C115.14 266.982 114.511 267.216 113.988 267.686C113.476 268.155 113.183 268.806 113.108 269.638H118.644ZM130.864 267.094H129.024V274.662H127.568V267.094H126.432V265.894H127.568V265.27C127.568 264.288 127.818 263.574 128.32 263.126C128.832 262.667 129.648 262.438 130.768 262.438V263.654C130.128 263.654 129.674 263.782 129.408 264.038C129.152 264.283 129.024 264.694 129.024 265.27V265.894H130.864V267.094ZM141.041 269.942C141.041 270.219 141.025 270.512 140.993 270.822H133.985C134.039 271.686 134.332 272.363 134.865 272.854C135.409 273.334 136.065 273.574 136.833 273.574C137.463 273.574 137.985 273.43 138.401 273.142C138.828 272.843 139.127 272.448 139.297 271.958H140.865C140.631 272.8 140.161 273.488 139.457 274.022C138.753 274.544 137.879 274.806 136.833 274.806C136.001 274.806 135.255 274.619 134.593 274.246C133.943 273.872 133.431 273.344 133.057 272.662C132.684 271.968 132.497 271.168 132.497 270.262C132.497 269.355 132.679 268.56 133.041 267.878C133.404 267.195 133.911 266.672 134.561 266.31C135.223 265.936 135.98 265.75 136.833 265.75C137.665 265.75 138.401 265.931 139.041 266.294C139.681 266.656 140.172 267.158 140.513 267.798C140.865 268.427 141.041 269.142 141.041 269.942ZM139.537 269.638C139.537 269.083 139.415 268.608 139.169 268.214C138.924 267.808 138.588 267.504 138.161 267.302C137.745 267.088 137.281 266.982 136.769 266.982C136.033 266.982 135.404 267.216 134.881 267.686C134.369 268.155 134.076 268.806 134.001 269.638H139.537ZM146.547 274.806C145.875 274.806 145.272 274.694 144.739 274.47C144.206 274.235 143.784 273.915 143.475 273.51C143.166 273.094 142.995 272.619 142.963 272.086H144.467C144.51 272.523 144.712 272.88 145.075 273.158C145.448 273.435 145.934 273.574 146.531 273.574C147.086 273.574 147.523 273.451 147.843 273.206C148.163 272.96 148.323 272.651 148.323 272.278C148.323 271.894 148.152 271.611 147.811 271.43C147.47 271.238 146.942 271.051 146.227 270.87C145.576 270.699 145.043 270.528 144.627 270.358C144.222 270.176 143.87 269.915 143.571 269.574C143.283 269.222 143.139 268.763 143.139 268.198C143.139 267.75 143.272 267.339 143.539 266.966C143.806 266.592 144.184 266.299 144.675 266.086C145.166 265.862 145.726 265.75 146.355 265.75C147.326 265.75 148.11 265.995 148.707 266.486C149.304 266.976 149.624 267.648 149.667 268.502H148.211C148.179 268.043 147.992 267.675 147.651 267.398C147.32 267.12 146.872 266.982 146.307 266.982C145.784 266.982 145.368 267.094 145.059 267.318C144.75 267.542 144.595 267.835 144.595 268.198C144.595 268.486 144.686 268.726 144.867 268.918C145.059 269.099 145.294 269.248 145.571 269.366C145.859 269.472 146.254 269.595 146.755 269.734C147.384 269.904 147.896 270.075 148.291 270.246C148.686 270.406 149.022 270.651 149.299 270.982C149.587 271.312 149.736 271.744 149.747 272.278C149.747 272.758 149.614 273.19 149.347 273.574C149.08 273.958 148.702 274.262 148.211 274.486C147.731 274.699 147.176 274.806 146.547 274.806ZM154.058 267.094V272.262C154.058 272.688 154.149 272.992 154.33 273.174C154.512 273.344 154.826 273.43 155.274 273.43H156.346V274.662H155.034C154.224 274.662 153.616 274.475 153.21 274.102C152.805 273.728 152.602 273.115 152.602 272.262V267.094H151.466V265.894H152.602V263.686H154.058V265.894H156.346V267.094H154.058ZM159.343 264.47C159.065 264.47 158.831 264.374 158.639 264.182C158.447 263.99 158.351 263.755 158.351 263.478C158.351 263.2 158.447 262.966 158.639 262.774C158.831 262.582 159.065 262.486 159.343 262.486C159.609 262.486 159.833 262.582 160.015 262.774C160.207 262.966 160.303 263.2 160.303 263.478C160.303 263.755 160.207 263.99 160.015 264.182C159.833 264.374 159.609 264.47 159.343 264.47ZM160.047 265.894V274.662H158.591V265.894H160.047ZM166.272 273.318L168.992 265.894H170.544L167.104 274.662H165.408L161.968 265.894H163.536L166.272 273.318ZM171.913 270.246C171.913 269.35 172.094 268.566 172.457 267.894C172.82 267.211 173.316 266.683 173.945 266.31C174.585 265.936 175.294 265.75 176.073 265.75C176.841 265.75 177.508 265.915 178.073 266.246C178.638 266.576 179.06 266.992 179.337 267.494V265.894H180.809V274.662H179.337V273.03C179.049 273.542 178.617 273.968 178.041 274.31C177.476 274.64 176.814 274.806 176.057 274.806C175.278 274.806 174.574 274.614 173.945 274.23C173.316 273.846 172.82 273.307 172.457 272.614C172.094 271.92 171.913 271.131 171.913 270.246ZM179.337 270.262C179.337 269.6 179.204 269.024 178.937 268.534C178.67 268.043 178.308 267.67 177.849 267.414C177.401 267.147 176.905 267.014 176.361 267.014C175.817 267.014 175.321 267.142 174.873 267.398C174.425 267.654 174.068 268.027 173.801 268.518C173.534 269.008 173.401 269.584 173.401 270.246C173.401 270.918 173.534 271.504 173.801 272.006C174.068 272.496 174.425 272.875 174.873 273.142C175.321 273.398 175.817 273.526 176.361 273.526C176.905 273.526 177.401 273.398 177.849 273.142C178.308 272.875 178.67 272.496 178.937 272.006C179.204 271.504 179.337 270.923 179.337 270.262ZM185.205 262.822V274.662H183.749V262.822H185.205Z" fill="white"/>
<path d="M76.4783 136.717V125.587H95.8683V176.688H83.4083V136.717H76.4783ZM102.797 136.717V125.587H122.187V176.688H109.727V136.717H102.797ZM130.375 150.437C130.375 142.411 131.915 136.087 134.995 131.467C138.122 126.847 143.138 124.537 150.045 124.537C156.952 124.537 161.945 126.847 165.025 131.467C168.152 136.087 169.715 142.411 169.715 150.437C169.715 158.557 168.152 164.927 165.025 169.547C161.945 174.167 156.952 176.477 150.045 176.477C143.138 176.477 138.122 174.167 134.995 169.547C131.915 164.927 130.375 158.557 130.375 150.437ZM157.955 150.437C157.955 145.724 157.442 142.107 156.415 139.587C155.388 137.021 153.265 135.737 150.045 135.737C146.825 135.737 144.702 137.021 143.675 139.587C142.648 142.107 142.135 145.724 142.135 150.437C142.135 153.611 142.322 156.247 142.695 158.347C143.068 160.401 143.815 162.081 144.935 163.387C146.102 164.647 147.805 165.277 150.045 165.277C152.285 165.277 153.965 164.647 155.085 163.387C156.252 162.081 157.022 160.401 157.395 158.347C157.768 156.247 157.955 153.611 157.955 150.437ZM193.841 169.364C195.425 169.364 196.832 168.992 198.061 168.248C199.289 167.505 200.259 166.438 200.971 165.047H210.089C209.119 168.733 207.195 171.643 204.317 173.777C201.439 175.879 197.98 176.93 193.938 176.93C189.929 176.93 186.469 175.879 183.559 173.777C180.681 171.676 178.709 168.83 177.642 165.241H173.859V160.925H176.915C176.882 160.634 176.866 160.197 176.866 159.615C176.866 159.001 176.882 158.532 176.915 158.209H173.859V153.844H177.691C178.758 150.287 180.73 147.474 183.608 145.405C186.518 143.303 189.961 142.252 193.938 142.252C197.98 142.252 201.439 143.319 204.317 145.453C207.195 147.587 209.119 150.497 210.089 154.183H200.971C200.259 152.793 199.289 151.742 198.061 151.031C196.832 150.287 195.425 149.915 193.841 149.915C192.289 149.915 190.899 150.255 189.67 150.934C188.441 151.613 187.455 152.583 186.712 153.844H194.811V158.209H185.354C185.321 158.5 185.305 158.969 185.305 159.615C185.305 160.197 185.321 160.634 185.354 160.925H194.811V165.241H186.615C187.358 166.567 188.344 167.586 189.573 168.297C190.834 169.008 192.257 169.364 193.841 169.364Z" fill="white"/>
</g>
<defs>
<filter id="filter0_d_1119_3785" x="0" y="0.346191" width="305" height="485.936" filterUnits="userSpaceOnUse" color-interpolation-filters="sRGB">
<feFlood flood-opacity="0" result="BackgroundImageFix"/>
<feColorMatrix in="SourceAlpha" type="matrix" values="0 0 0 0 0 0 0 0 0 0 0 0 0 0 0 0 0 0 127 0" result="hardAlpha"/>
<feOffset dx="8" dy="9"/>
<feGaussianBlur stdDeviation="12.5"/>
<feComposite in2="hardAlpha" operator="out"/>
<feColorMatrix type="matrix" values="0 0 0 0 0 0 0 0 0 0 0 0 0 0 0 0 0 0 0.19 0"/>
<feBlend mode="normal" in2="BackgroundImageFix" result="effect1_dropShadow_1119_3785"/>
<feBlend mode="normal" in="SourceGraphic" in2="effect1_dropShadow_1119_3785" result="shape"/>
</filter>
</defs>
</svg>
