<svg width="305" height="486" viewBox="0 0 305 486" fill="none" xmlns="http://www.w3.org/2000/svg">
<g filter="url(#filter0_d_1119_3794)">
<path d="M17 16.9082H272V323.939H17V16.9082Z" fill="#4A3FCA"/>
<path d="M271.999 323.25H17V447.2C17 448.863 18.9117 449.799 20.2258 448.78L33.9492 438.136C34.6693 437.577 35.6759 437.576 36.3972 438.133L52.2066 450.339C52.9265 450.894 53.9306 450.894 54.6506 450.339L70.4702 438.133C71.1917 437.576 72.1982 437.577 72.9182 438.136L88.6376 450.335C89.356 450.893 90.3602 450.896 91.0816 450.342L106.991 438.129C107.714 437.575 108.721 437.579 109.439 438.139L125.068 450.332C125.785 450.892 126.79 450.897 127.512 450.345L143.512 438.127C144.236 437.573 145.243 437.58 145.96 438.142L161.499 450.329C162.214 450.89 163.219 450.898 163.943 450.348L180.033 438.124C180.758 437.572 181.765 437.581 182.481 438.145L199.142 451.282L216.553 438.121C217.281 437.571 218.288 437.583 219.002 438.149L234.36 450.323C235.073 450.888 236.078 450.9 236.805 450.354L253.074 438.118C253.803 437.57 254.81 437.584 255.523 438.152L268.754 448.695C270.064 449.739 272 448.806 272 447.131L271.999 323.25Z" fill="#30288C"/>
<rect x="80.875" y="358.532" width="124" height="45" rx="22.5" stroke="white" stroke-width="2"/>
<path d="M107.932 380.129C107.932 379.046 108.174 378.08 108.657 377.229C109.151 376.367 109.818 375.7 110.659 375.227C111.51 374.744 112.461 374.502 113.511 374.502C114.741 374.502 115.818 374.817 116.742 375.448C117.667 376.078 118.313 376.95 118.681 378.064H116.143C115.891 377.539 115.534 377.145 115.072 376.882C114.62 376.619 114.094 376.488 113.496 376.488C112.855 376.488 112.282 376.64 111.778 376.945C111.284 377.239 110.895 377.659 110.611 378.206C110.338 378.752 110.202 379.393 110.202 380.129C110.202 380.853 110.338 381.494 110.611 382.051C110.895 382.598 111.284 383.023 111.778 383.328C112.282 383.622 112.855 383.769 113.496 383.769C114.094 383.769 114.62 383.638 115.072 383.375C115.534 383.102 115.891 382.703 116.143 382.177H118.681C118.313 383.302 117.667 384.179 116.742 384.809C115.828 385.429 114.751 385.739 113.511 385.739C112.461 385.739 111.51 385.503 110.659 385.03C109.818 384.547 109.151 383.879 108.657 383.028C108.174 382.177 107.932 381.211 107.932 380.129ZM124.442 385.786C123.602 385.786 122.845 385.603 122.173 385.235C121.5 384.857 120.97 384.326 120.581 383.643C120.203 382.96 120.014 382.172 120.014 381.279C120.014 380.386 120.208 379.598 120.597 378.915C120.996 378.232 121.537 377.707 122.22 377.339C122.903 376.961 123.665 376.772 124.505 376.772C125.346 376.772 126.107 376.961 126.79 377.339C127.473 377.707 128.009 378.232 128.398 378.915C128.797 379.598 128.997 380.386 128.997 381.279C128.997 382.172 128.792 382.96 128.382 383.643C127.983 384.326 127.436 384.857 126.743 385.235C126.06 385.603 125.293 385.786 124.442 385.786ZM124.442 383.864C124.841 383.864 125.214 383.769 125.561 383.58C125.918 383.38 126.202 383.086 126.412 382.697C126.622 382.309 126.727 381.836 126.727 381.279C126.727 380.449 126.507 379.813 126.065 379.372C125.635 378.92 125.104 378.694 124.474 378.694C123.843 378.694 123.313 378.92 122.882 379.372C122.462 379.813 122.251 380.449 122.251 381.279C122.251 382.109 122.456 382.75 122.866 383.202C123.286 383.643 123.812 383.864 124.442 383.864ZM141.458 376.787C142.53 376.787 143.391 377.118 144.043 377.78C144.705 378.432 145.036 379.346 145.036 380.523V385.645H142.829V380.822C142.829 380.139 142.656 379.619 142.309 379.262C141.962 378.894 141.49 378.71 140.891 378.71C140.292 378.71 139.814 378.894 139.457 379.262C139.11 379.619 138.936 380.139 138.936 380.822V385.645H136.73V380.822C136.73 380.139 136.557 379.619 136.21 379.262C135.863 378.894 135.39 378.71 134.792 378.71C134.182 378.71 133.699 378.894 133.342 379.262C132.995 379.619 132.822 380.139 132.822 380.822V385.645H130.615V376.913H132.822V377.969C133.105 377.602 133.468 377.313 133.909 377.103C134.361 376.892 134.855 376.787 135.39 376.787C136.073 376.787 136.683 376.935 137.219 377.229C137.754 377.512 138.17 377.922 138.464 378.458C138.747 377.954 139.157 377.549 139.693 377.244C140.239 376.94 140.828 376.787 141.458 376.787ZM149.336 378.174C149.619 377.775 150.008 377.444 150.502 377.181C151.006 376.908 151.579 376.772 152.22 376.772C152.966 376.772 153.638 376.956 154.237 377.323C154.846 377.691 155.325 378.216 155.671 378.899C156.028 379.572 156.207 380.354 156.207 381.247C156.207 382.141 156.028 382.934 155.671 383.627C155.325 384.31 154.846 384.841 154.237 385.219C153.638 385.597 152.966 385.786 152.22 385.786C151.579 385.786 151.012 385.655 150.518 385.392C150.034 385.13 149.64 384.799 149.336 384.399V389.805H147.129V376.913H149.336V378.174ZM153.953 381.247C153.953 380.722 153.843 380.27 153.622 379.892C153.412 379.503 153.129 379.209 152.771 379.01C152.425 378.81 152.046 378.71 151.637 378.71C151.237 378.71 150.859 378.815 150.502 379.025C150.155 379.225 149.872 379.519 149.651 379.908C149.441 380.297 149.336 380.754 149.336 381.279C149.336 381.804 149.441 382.261 149.651 382.65C149.872 383.039 150.155 383.338 150.502 383.548C150.859 383.748 151.237 383.848 151.637 383.848C152.046 383.848 152.425 383.743 152.771 383.533C153.129 383.323 153.412 383.023 153.622 382.634C153.843 382.246 153.953 381.783 153.953 381.247ZM160.017 378.269C160.301 377.807 160.668 377.444 161.12 377.181C161.582 376.919 162.108 376.787 162.696 376.787V379.104H162.113C161.419 379.104 160.894 379.267 160.537 379.593C160.19 379.918 160.017 380.486 160.017 381.295V385.645H157.81V376.913H160.017V378.269ZM163.615 381.247C163.615 380.365 163.788 379.582 164.135 378.899C164.492 378.216 164.97 377.691 165.569 377.323C166.178 376.956 166.856 376.772 167.602 376.772C168.254 376.772 168.821 376.903 169.304 377.166C169.798 377.428 170.192 377.759 170.486 378.159V376.913H172.708V385.645H170.486V384.368C170.202 384.778 169.808 385.119 169.304 385.392C168.81 385.655 168.238 385.786 167.586 385.786C166.851 385.786 166.178 385.597 165.569 385.219C164.97 384.841 164.492 384.31 164.135 383.627C163.788 382.934 163.615 382.141 163.615 381.247ZM170.486 381.279C170.486 380.743 170.381 380.286 170.171 379.908C169.961 379.519 169.677 379.225 169.32 379.025C168.963 378.815 168.579 378.71 168.169 378.71C167.76 378.71 167.381 378.81 167.035 379.01C166.688 379.209 166.404 379.503 166.184 379.892C165.974 380.27 165.868 380.722 165.868 381.247C165.868 381.773 165.974 382.235 166.184 382.634C166.404 383.023 166.688 383.323 167.035 383.533C167.392 383.743 167.77 383.848 168.169 383.848C168.579 383.848 168.963 383.748 169.32 383.548C169.677 383.338 169.961 383.044 170.171 382.666C170.381 382.277 170.486 381.815 170.486 381.279ZM177.07 378.269C177.353 377.807 177.721 377.444 178.173 377.181C178.635 376.919 179.16 376.787 179.749 376.787V379.104H179.166C178.472 379.104 177.947 379.267 177.59 379.593C177.243 379.918 177.07 380.486 177.07 381.295V385.645H174.863V376.913H177.07V378.269Z" fill="white"/>
<path d="M116.11 77.8491C116.11 78.9064 115.867 79.8771 115.382 80.7611C114.897 81.6278 114.151 82.3298 113.146 82.8671C112.141 83.4044 110.893 83.6731 109.402 83.6731H106.646V90.2251H102.2V71.9731H109.402C110.858 71.9731 112.089 72.2244 113.094 72.7271C114.099 73.2298 114.853 73.9231 115.356 74.8071C115.859 75.6911 116.11 76.7051 116.11 77.8491ZM109.064 80.1371C109.913 80.1371 110.546 79.9378 110.962 79.5391C111.378 79.1404 111.586 78.5771 111.586 77.8491C111.586 77.1211 111.378 76.5578 110.962 76.1591C110.546 75.7604 109.913 75.5611 109.064 75.5611H106.646V80.1371H109.064ZM130.567 87.0011H123.755L122.663 90.2251H118.009L124.613 71.9731H129.761L136.365 90.2251H131.659L130.567 87.0011ZM129.423 83.5691L127.161 76.8871L124.925 83.5691H129.423ZM145.759 90.4071C144.424 90.4071 143.228 90.1904 142.171 89.7571C141.113 89.3238 140.264 88.6824 139.623 87.8331C138.999 86.9838 138.669 85.9611 138.635 84.7651H143.367C143.436 85.4411 143.67 85.9611 144.069 86.3251C144.467 86.6718 144.987 86.8451 145.629 86.8451C146.287 86.8451 146.807 86.6978 147.189 86.4031C147.57 86.0911 147.761 85.6664 147.761 85.1291C147.761 84.6784 147.605 84.3058 147.293 84.0111C146.998 83.7164 146.625 83.4738 146.175 83.2831C145.741 83.0924 145.117 82.8758 144.303 82.6331C143.124 82.2691 142.162 81.9051 141.417 81.5411C140.671 81.1771 140.03 80.6398 139.493 79.9291C138.955 79.2184 138.687 78.2911 138.687 77.1471C138.687 75.4484 139.302 74.1224 140.533 73.1691C141.763 72.1984 143.367 71.7131 145.343 71.7131C147.353 71.7131 148.974 72.1984 150.205 73.1691C151.435 74.1224 152.094 75.4571 152.181 77.1731H147.371C147.336 76.5838 147.119 76.1244 146.721 75.7951C146.322 75.4484 145.811 75.2751 145.187 75.2751C144.649 75.2751 144.216 75.4224 143.887 75.7171C143.557 75.9944 143.393 76.4018 143.393 76.9391C143.393 77.5284 143.67 77.9878 144.225 78.3171C144.779 78.6464 145.646 79.0018 146.825 79.3831C148.003 79.7818 148.957 80.1631 149.685 80.5271C150.43 80.8911 151.071 81.4198 151.609 82.1131C152.146 82.8064 152.415 83.6991 152.415 84.7911C152.415 85.8311 152.146 86.7758 151.609 87.6251C151.089 88.4744 150.326 89.1504 149.321 89.6531C148.315 90.1558 147.128 90.4071 145.759 90.4071ZM162.535 90.4071C161.2 90.4071 160.004 90.1904 158.947 89.7571C157.889 89.3238 157.04 88.6824 156.399 87.8331C155.775 86.9838 155.445 85.9611 155.411 84.7651H160.143C160.212 85.4411 160.446 85.9611 160.845 86.3251C161.243 86.6718 161.763 86.8451 162.405 86.8451C163.063 86.8451 163.583 86.6978 163.965 86.4031C164.346 86.0911 164.537 85.6664 164.537 85.1291C164.537 84.6784 164.381 84.3058 164.069 84.0111C163.774 83.7164 163.401 83.4738 162.951 83.2831C162.517 83.0924 161.893 82.8758 161.079 82.6331C159.9 82.2691 158.938 81.9051 158.193 81.5411C157.447 81.1771 156.806 80.6398 156.269 79.9291C155.731 79.2184 155.463 78.2911 155.463 77.1471C155.463 75.4484 156.078 74.1224 157.309 73.1691C158.539 72.1984 160.143 71.7131 162.119 71.7131C164.129 71.7131 165.75 72.1984 166.981 73.1691C168.211 74.1224 168.87 75.4571 168.957 77.1731H164.147C164.112 76.5838 163.895 76.1244 163.497 75.7951C163.098 75.4484 162.587 75.2751 161.963 75.2751C161.425 75.2751 160.992 75.4224 160.663 75.7171C160.333 75.9944 160.169 76.4018 160.169 76.9391C160.169 77.5284 160.446 77.9878 161.001 78.3171C161.555 78.6464 162.422 79.0018 163.601 79.3831C164.779 79.7818 165.733 80.1631 166.461 80.5271C167.206 80.8911 167.847 81.4198 168.385 82.1131C168.922 82.8064 169.191 83.6991 169.191 84.7911C169.191 85.8311 168.922 86.7758 168.385 87.6251C167.865 88.4744 167.102 89.1504 166.097 89.6531C165.091 90.1558 163.904 90.4071 162.535 90.4071ZM177.153 75.5351V79.2271H183.107V82.6591H177.153V86.6631H183.887V90.2251H172.707V71.9731H183.887V75.5351H177.153Z" fill="white"/>
<path d="M58.8572 243.203V241.875H61.8652V253.443H60.3932V243.203H58.8572ZM71.2879 246.307C71.5865 245.785 72.0239 245.358 72.5999 245.027C73.1759 244.697 73.8319 244.531 74.5679 244.531C75.3572 244.531 76.0665 244.718 76.6959 245.091C77.3252 245.465 77.8212 245.993 78.1839 246.675C78.5465 247.347 78.7279 248.131 78.7279 249.027C78.7279 249.913 78.5465 250.702 78.1839 251.395C77.8212 252.089 77.3199 252.627 76.6799 253.011C76.0505 253.395 75.3465 253.587 74.5679 253.587C73.8105 253.587 73.1439 253.422 72.5679 253.091C72.0025 252.761 71.5759 252.339 71.2879 251.827V253.443H69.8319V241.603H71.2879V246.307ZM77.2399 249.027C77.2399 248.366 77.1065 247.79 76.8399 247.299C76.5732 246.809 76.2105 246.435 75.7519 246.179C75.3039 245.923 74.8079 245.795 74.2639 245.795C73.7305 245.795 73.2345 245.929 72.7759 246.195C72.3279 246.451 71.9652 246.83 71.6879 247.331C71.4212 247.822 71.2879 248.393 71.2879 249.043C71.2879 249.705 71.4212 250.286 71.6879 250.787C71.9652 251.278 72.3279 251.657 72.7759 251.923C73.2345 252.179 73.7305 252.307 74.2639 252.307C74.8079 252.307 75.3039 252.179 75.7519 251.923C76.2105 251.657 76.5732 251.278 76.8399 250.787C77.1065 250.286 77.2399 249.699 77.2399 249.027ZM81.8764 243.251C81.599 243.251 81.3644 243.155 81.1724 242.963C80.9804 242.771 80.8844 242.537 80.8844 242.259C80.8844 241.982 80.9804 241.747 81.1724 241.555C81.3644 241.363 81.599 241.267 81.8764 241.267C82.143 241.267 82.367 241.363 82.5484 241.555C82.7404 241.747 82.8364 241.982 82.8364 242.259C82.8364 242.537 82.7404 242.771 82.5484 242.963C82.367 243.155 82.143 243.251 81.8764 243.251ZM82.5804 244.675V253.443H81.1244V244.675H82.5804ZM86.9979 241.603V253.443H85.5419V241.603H86.9979ZM94.3114 244.515C94.9727 244.515 95.57 244.659 96.1034 244.947C96.6367 245.225 97.0527 245.646 97.3514 246.211C97.6607 246.777 97.8154 247.465 97.8154 248.275V253.443H96.3754V248.483C96.3754 247.609 96.1567 246.942 95.7194 246.483C95.282 246.014 94.6847 245.779 93.9274 245.779C93.1594 245.779 92.546 246.019 92.0874 246.499C91.6394 246.979 91.4154 247.678 91.4154 248.595V253.443H89.9594V241.603H91.4154V245.923C91.7034 245.475 92.098 245.129 92.5994 244.883C93.1114 244.638 93.682 244.515 94.3114 244.515ZM108.674 248.723C108.674 249.001 108.658 249.294 108.626 249.603H101.618C101.671 250.467 101.964 251.145 102.498 251.635C103.042 252.115 103.698 252.355 104.466 252.355C105.095 252.355 105.618 252.211 106.034 251.923C106.46 251.625 106.759 251.23 106.93 250.739H108.498C108.263 251.582 107.794 252.27 107.09 252.803C106.386 253.326 105.511 253.587 104.466 253.587C103.634 253.587 102.887 253.401 102.226 253.027C101.575 252.654 101.063 252.126 100.69 251.443C100.316 250.75 100.13 249.95 100.13 249.043C100.13 248.137 100.311 247.342 100.674 246.659C101.036 245.977 101.543 245.454 102.194 245.091C102.855 244.718 103.612 244.531 104.466 244.531C105.298 244.531 106.034 244.713 106.674 245.075C107.314 245.438 107.804 245.939 108.146 246.579C108.498 247.209 108.674 247.923 108.674 248.723ZM107.17 248.419C107.17 247.865 107.047 247.39 106.802 246.995C106.556 246.59 106.22 246.286 105.794 246.083C105.378 245.87 104.914 245.763 104.402 245.763C103.666 245.763 103.036 245.998 102.514 246.467C102.002 246.937 101.708 247.587 101.634 248.419H107.17ZM112.852 245.875V251.043C112.852 251.47 112.942 251.774 113.124 251.955C113.305 252.126 113.62 252.211 114.068 252.211H115.14V253.443H113.828C113.017 253.443 112.409 253.257 112.004 252.883C111.598 252.51 111.396 251.897 111.396 251.043V245.875H110.26V244.675H111.396V242.467H112.852V244.675H115.14V245.875H112.852ZM125.384 248.723C125.384 249.001 125.368 249.294 125.336 249.603H118.328C118.381 250.467 118.674 251.145 119.208 251.635C119.752 252.115 120.408 252.355 121.176 252.355C121.805 252.355 122.328 252.211 122.744 251.923C123.17 251.625 123.469 251.23 123.64 250.739H125.208C124.973 251.582 124.504 252.27 123.8 252.803C123.096 253.326 122.221 253.587 121.176 253.587C120.344 253.587 119.597 253.401 118.936 253.027C118.285 252.654 117.773 252.126 117.4 251.443C117.026 250.75 116.84 249.95 116.84 249.043C116.84 248.137 117.021 247.342 117.384 246.659C117.746 245.977 118.253 245.454 118.904 245.091C119.565 244.718 120.322 244.531 121.176 244.531C122.008 244.531 122.744 244.713 123.384 245.075C124.024 245.438 124.514 245.939 124.856 246.579C125.208 247.209 125.384 247.923 125.384 248.723ZM123.88 248.419C123.88 247.865 123.757 247.39 123.512 246.995C123.266 246.59 122.93 246.286 122.504 246.083C122.088 245.87 121.624 245.763 121.112 245.763C120.376 245.763 119.746 245.998 119.224 246.467C118.712 246.937 118.418 247.587 118.344 248.419H123.88ZM133.987 246.291C134.275 245.79 134.702 245.374 135.267 245.043C135.843 244.702 136.51 244.531 137.267 244.531C138.046 244.531 138.75 244.718 139.379 245.091C140.019 245.465 140.521 245.993 140.883 246.675C141.246 247.347 141.427 248.131 141.427 249.027C141.427 249.913 141.246 250.702 140.883 251.395C140.521 252.089 140.019 252.627 139.379 253.011C138.75 253.395 138.046 253.587 137.267 253.587C136.521 253.587 135.859 253.422 135.283 253.091C134.718 252.75 134.286 252.329 133.987 251.827V257.603H132.531V244.675H133.987V246.291ZM139.939 249.027C139.939 248.366 139.806 247.79 139.539 247.299C139.273 246.809 138.91 246.435 138.451 246.179C138.003 245.923 137.507 245.795 136.963 245.795C136.43 245.795 135.934 245.929 135.475 246.195C135.027 246.451 134.665 246.83 134.387 247.331C134.121 247.822 133.987 248.393 133.987 249.043C133.987 249.705 134.121 250.286 134.387 250.787C134.665 251.278 135.027 251.657 135.475 251.923C135.934 252.179 136.43 252.307 136.963 252.307C137.507 252.307 138.003 252.179 138.451 251.923C138.91 251.657 139.273 251.278 139.539 250.787C139.806 250.286 139.939 249.699 139.939 249.027ZM143.28 249.027C143.28 248.131 143.461 247.347 143.824 246.675C144.186 245.993 144.682 245.465 145.312 245.091C145.952 244.718 146.661 244.531 147.44 244.531C148.208 244.531 148.874 244.697 149.44 245.027C150.005 245.358 150.426 245.774 150.704 246.275V244.675H152.176V253.443H150.704V251.811C150.416 252.323 149.984 252.75 149.408 253.091C148.842 253.422 148.181 253.587 147.424 253.587C146.645 253.587 145.941 253.395 145.312 253.011C144.682 252.627 144.186 252.089 143.824 251.395C143.461 250.702 143.28 249.913 143.28 249.027ZM150.704 249.043C150.704 248.382 150.57 247.806 150.304 247.315C150.037 246.825 149.674 246.451 149.216 246.195C148.768 245.929 148.272 245.795 147.728 245.795C147.184 245.795 146.688 245.923 146.24 246.179C145.792 246.435 145.434 246.809 145.168 247.299C144.901 247.79 144.768 248.366 144.768 249.027C144.768 249.699 144.901 250.286 145.168 250.787C145.434 251.278 145.792 251.657 146.24 251.923C146.688 252.179 147.184 252.307 147.728 252.307C148.272 252.307 148.768 252.179 149.216 251.923C149.674 251.657 150.037 251.278 150.304 250.787C150.57 250.286 150.704 249.705 150.704 249.043ZM156.572 246.099C156.828 245.598 157.191 245.209 157.66 244.931C158.14 244.654 158.722 244.515 159.404 244.515V246.019H159.02C157.388 246.019 156.572 246.905 156.572 248.675V253.443H155.116V244.675H156.572V246.099ZM161.021 249.027C161.021 248.131 161.202 247.347 161.565 246.675C161.928 245.993 162.424 245.465 163.053 245.091C163.693 244.718 164.402 244.531 165.181 244.531C165.949 244.531 166.616 244.697 167.181 245.027C167.746 245.358 168.168 245.774 168.445 246.275V244.675H169.917V253.443H168.445V251.811C168.157 252.323 167.725 252.75 167.149 253.091C166.584 253.422 165.922 253.587 165.165 253.587C164.386 253.587 163.682 253.395 163.053 253.011C162.424 252.627 161.928 252.089 161.565 251.395C161.202 250.702 161.021 249.913 161.021 249.027ZM168.445 249.043C168.445 248.382 168.312 247.806 168.045 247.315C167.778 246.825 167.416 246.451 166.957 246.195C166.509 245.929 166.013 245.795 165.469 245.795C164.925 245.795 164.429 245.923 163.981 246.179C163.533 246.435 163.176 246.809 162.909 247.299C162.642 247.79 162.509 248.366 162.509 249.027C162.509 249.699 162.642 250.286 162.909 250.787C163.176 251.278 163.533 251.657 163.981 251.923C164.429 252.179 164.925 252.307 165.469 252.307C166.013 252.307 166.509 252.179 166.957 251.923C167.416 251.657 167.778 251.278 168.045 250.787C168.312 250.286 168.445 249.705 168.445 249.043ZM177.011 250.867V249.763L182.627 241.987H184.371V249.603H185.971V250.867H184.371V253.443H182.931V250.867H177.011ZM182.995 243.507L178.691 249.603H182.995V243.507ZM192.347 249.027C192.347 248.131 192.529 247.347 192.891 246.675C193.254 245.993 193.75 245.465 194.379 245.091C195.019 244.718 195.734 244.531 196.523 244.531C197.206 244.531 197.841 244.691 198.427 245.011C199.014 245.321 199.462 245.731 199.771 246.243V241.603H201.243V253.443H199.771V251.795C199.483 252.318 199.057 252.75 198.491 253.091C197.926 253.422 197.265 253.587 196.507 253.587C195.729 253.587 195.019 253.395 194.379 253.011C193.75 252.627 193.254 252.089 192.891 251.395C192.529 250.702 192.347 249.913 192.347 249.027ZM199.771 249.043C199.771 248.382 199.638 247.806 199.371 247.315C199.105 246.825 198.742 246.451 198.283 246.195C197.835 245.929 197.339 245.795 196.795 245.795C196.251 245.795 195.755 245.923 195.307 246.179C194.859 246.435 194.502 246.809 194.235 247.299C193.969 247.79 193.835 248.366 193.835 249.027C193.835 249.699 193.969 250.286 194.235 250.787C194.502 251.278 194.859 251.657 195.307 251.923C195.755 252.179 196.251 252.307 196.795 252.307C197.339 252.307 197.835 252.179 198.283 251.923C198.742 251.657 199.105 251.278 199.371 250.787C199.638 250.286 199.771 249.705 199.771 249.043ZM204.936 243.251C204.658 243.251 204.424 243.155 204.232 242.963C204.04 242.771 203.944 242.537 203.944 242.259C203.944 241.982 204.04 241.747 204.232 241.555C204.424 241.363 204.658 241.267 204.936 241.267C205.202 241.267 205.426 241.363 205.608 241.555C205.8 241.747 205.896 241.982 205.896 242.259C205.896 242.537 205.8 242.771 205.608 242.963C205.426 243.155 205.202 243.251 204.936 243.251ZM205.64 244.675V253.443H204.184V244.675H205.64ZM208.057 249.027C208.057 248.131 208.239 247.347 208.601 246.675C208.964 245.993 209.46 245.465 210.089 245.091C210.729 244.718 211.439 244.531 212.217 244.531C212.985 244.531 213.652 244.697 214.217 245.027C214.783 245.358 215.204 245.774 215.481 246.275V244.675H216.953V253.443H215.481V251.811C215.193 252.323 214.761 252.75 214.185 253.091C213.62 253.422 212.959 253.587 212.201 253.587C211.423 253.587 210.719 253.395 210.089 253.011C209.46 252.627 208.964 252.089 208.601 251.395C208.239 250.702 208.057 249.913 208.057 249.027ZM215.481 249.043C215.481 248.382 215.348 247.806 215.081 247.315C214.815 246.825 214.452 246.451 213.993 246.195C213.545 245.929 213.049 245.795 212.505 245.795C211.961 245.795 211.465 245.923 211.017 246.179C210.569 246.435 210.212 246.809 209.945 247.299C209.679 247.79 209.545 248.366 209.545 249.027C209.545 249.699 209.679 250.286 209.945 250.787C210.212 251.278 210.569 251.657 211.017 251.923C211.465 252.179 211.961 252.307 212.505 252.307C213.049 252.307 213.545 252.179 213.993 251.923C214.452 251.657 214.815 251.278 215.081 250.787C215.348 250.286 215.481 249.705 215.481 249.043ZM222.998 253.587C222.326 253.587 221.723 253.475 221.19 253.251C220.656 253.017 220.235 252.697 219.926 252.291C219.616 251.875 219.446 251.401 219.414 250.867H220.918C220.96 251.305 221.163 251.662 221.526 251.939C221.899 252.217 222.384 252.355 222.982 252.355C223.536 252.355 223.974 252.233 224.294 251.987C224.614 251.742 224.774 251.433 224.774 251.059C224.774 250.675 224.603 250.393 224.262 250.211C223.92 250.019 223.392 249.833 222.678 249.651C222.027 249.481 221.494 249.31 221.078 249.139C220.672 248.958 220.32 248.697 220.022 248.355C219.734 248.003 219.59 247.545 219.59 246.979C219.59 246.531 219.723 246.121 219.99 245.747C220.256 245.374 220.635 245.081 221.126 244.867C221.616 244.643 222.176 244.531 222.806 244.531C223.776 244.531 224.56 244.777 225.158 245.267C225.755 245.758 226.075 246.43 226.118 247.283H224.662C224.63 246.825 224.443 246.457 224.102 246.179C223.771 245.902 223.323 245.763 222.758 245.763C222.235 245.763 221.819 245.875 221.51 246.099C221.2 246.323 221.046 246.617 221.046 246.979C221.046 247.267 221.136 247.507 221.318 247.699C221.51 247.881 221.744 248.03 222.022 248.147C222.31 248.254 222.704 248.377 223.206 248.515C223.835 248.686 224.347 248.857 224.742 249.027C225.136 249.187 225.472 249.433 225.75 249.763C226.038 250.094 226.187 250.526 226.198 251.059C226.198 251.539 226.064 251.971 225.798 252.355C225.531 252.739 225.152 253.043 224.662 253.267C224.182 253.481 223.627 253.587 222.998 253.587ZM100.148 270.027C100.148 269.131 100.329 268.347 100.692 267.675C101.054 266.993 101.55 266.465 102.18 266.091C102.82 265.718 103.534 265.531 104.324 265.531C105.006 265.531 105.641 265.691 106.228 266.011C106.814 266.321 107.262 266.731 107.572 267.243V262.603H109.044V274.443H107.572V272.795C107.284 273.318 106.857 273.75 106.292 274.091C105.726 274.422 105.065 274.587 104.308 274.587C103.529 274.587 102.82 274.395 102.18 274.011C101.55 273.627 101.054 273.089 100.692 272.395C100.329 271.702 100.148 270.913 100.148 270.027ZM107.572 270.043C107.572 269.382 107.438 268.806 107.172 268.315C106.905 267.825 106.542 267.451 106.084 267.195C105.636 266.929 105.14 266.795 104.596 266.795C104.052 266.795 103.556 266.923 103.108 267.179C102.66 267.435 102.302 267.809 102.036 268.299C101.769 268.79 101.636 269.366 101.636 270.027C101.636 270.699 101.769 271.286 102.036 271.787C102.302 272.278 102.66 272.657 103.108 272.923C103.556 273.179 104.052 273.307 104.596 273.307C105.14 273.307 105.636 273.179 106.084 272.923C106.542 272.657 106.905 272.278 107.172 271.787C107.438 271.286 107.572 270.705 107.572 270.043ZM119.984 269.723C119.984 270.001 119.968 270.294 119.936 270.603H112.928C112.981 271.467 113.275 272.145 113.808 272.635C114.352 273.115 115.008 273.355 115.776 273.355C116.405 273.355 116.928 273.211 117.344 272.923C117.771 272.625 118.069 272.23 118.24 271.739H119.808C119.573 272.582 119.104 273.27 118.4 273.803C117.696 274.326 116.821 274.587 115.776 274.587C114.944 274.587 114.197 274.401 113.536 274.027C112.885 273.654 112.373 273.126 112 272.443C111.627 271.75 111.44 270.95 111.44 270.043C111.44 269.137 111.621 268.342 111.984 267.659C112.347 266.977 112.853 266.454 113.504 266.091C114.165 265.718 114.923 265.531 115.776 265.531C116.608 265.531 117.344 265.713 117.984 266.075C118.624 266.438 119.115 266.939 119.456 267.579C119.808 268.209 119.984 268.923 119.984 269.723ZM118.48 269.419C118.48 268.865 118.357 268.39 118.112 267.995C117.867 267.59 117.531 267.286 117.104 267.083C116.688 266.87 116.224 266.763 115.712 266.763C114.976 266.763 114.347 266.998 113.824 267.467C113.312 267.937 113.019 268.587 112.944 269.419H118.48ZM130.7 266.875H128.86V274.443H127.404V266.875H126.268V265.675H127.404V265.051C127.404 264.07 127.654 263.355 128.156 262.907C128.668 262.449 129.484 262.219 130.604 262.219V263.435C129.964 263.435 129.51 263.563 129.244 263.819C128.988 264.065 128.86 264.475 128.86 265.051V265.675H130.7V266.875ZM140.877 269.723C140.877 270.001 140.861 270.294 140.829 270.603H133.821C133.874 271.467 134.168 272.145 134.701 272.635C135.245 273.115 135.901 273.355 136.669 273.355C137.298 273.355 137.821 273.211 138.237 272.923C138.664 272.625 138.962 272.23 139.133 271.739H140.701C140.466 272.582 139.997 273.27 139.293 273.803C138.589 274.326 137.714 274.587 136.669 274.587C135.837 274.587 135.09 274.401 134.429 274.027C133.778 273.654 133.266 273.126 132.893 272.443C132.52 271.75 132.333 270.95 132.333 270.043C132.333 269.137 132.514 268.342 132.877 267.659C133.24 266.977 133.746 266.454 134.397 266.091C135.058 265.718 135.816 265.531 136.669 265.531C137.501 265.531 138.237 265.713 138.877 266.075C139.517 266.438 140.008 266.939 140.349 267.579C140.701 268.209 140.877 268.923 140.877 269.723ZM139.373 269.419C139.373 268.865 139.25 268.39 139.005 267.995C138.76 267.59 138.424 267.286 137.997 267.083C137.581 266.87 137.117 266.763 136.605 266.763C135.869 266.763 135.24 266.998 134.717 267.467C134.205 267.937 133.912 268.587 133.837 269.419H139.373ZM146.383 274.587C145.711 274.587 145.108 274.475 144.575 274.251C144.042 274.017 143.62 273.697 143.311 273.291C143.002 272.875 142.831 272.401 142.799 271.867H144.303C144.346 272.305 144.548 272.662 144.911 272.939C145.284 273.217 145.77 273.355 146.367 273.355C146.922 273.355 147.359 273.233 147.679 272.987C147.999 272.742 148.159 272.433 148.159 272.059C148.159 271.675 147.988 271.393 147.647 271.211C147.306 271.019 146.778 270.833 146.063 270.651C145.412 270.481 144.879 270.31 144.463 270.139C144.058 269.958 143.706 269.697 143.407 269.355C143.119 269.003 142.975 268.545 142.975 267.979C142.975 267.531 143.108 267.121 143.375 266.747C143.642 266.374 144.02 266.081 144.511 265.867C145.002 265.643 145.562 265.531 146.191 265.531C147.162 265.531 147.946 265.777 148.543 266.267C149.14 266.758 149.46 267.43 149.503 268.283H148.047C148.015 267.825 147.828 267.457 147.487 267.179C147.156 266.902 146.708 266.763 146.143 266.763C145.62 266.763 145.204 266.875 144.895 267.099C144.586 267.323 144.431 267.617 144.431 267.979C144.431 268.267 144.522 268.507 144.703 268.699C144.895 268.881 145.13 269.03 145.407 269.147C145.695 269.254 146.09 269.377 146.591 269.515C147.22 269.686 147.732 269.857 148.127 270.027C148.522 270.187 148.858 270.433 149.135 270.763C149.423 271.094 149.572 271.526 149.583 272.059C149.583 272.539 149.45 272.971 149.183 273.355C148.916 273.739 148.538 274.043 148.047 274.267C147.567 274.481 147.012 274.587 146.383 274.587ZM153.894 266.875V272.043C153.894 272.47 153.985 272.774 154.166 272.955C154.348 273.126 154.662 273.211 155.11 273.211H156.182V274.443H154.87C154.06 274.443 153.452 274.257 153.046 273.883C152.641 273.51 152.438 272.897 152.438 272.043V266.875H151.302V265.675H152.438V263.467H153.894V265.675H156.182V266.875H153.894ZM159.179 264.251C158.901 264.251 158.667 264.155 158.475 263.963C158.283 263.771 158.187 263.537 158.187 263.259C158.187 262.982 158.283 262.747 158.475 262.555C158.667 262.363 158.901 262.267 159.179 262.267C159.445 262.267 159.669 262.363 159.851 262.555C160.043 262.747 160.139 262.982 160.139 263.259C160.139 263.537 160.043 263.771 159.851 263.963C159.669 264.155 159.445 264.251 159.179 264.251ZM159.883 265.675V274.443H158.427V265.675H159.883ZM166.108 273.099L168.828 265.675H170.38L166.94 274.443H165.244L161.804 265.675H163.372L166.108 273.099ZM171.749 270.027C171.749 269.131 171.93 268.347 172.293 267.675C172.655 266.993 173.151 266.465 173.781 266.091C174.421 265.718 175.13 265.531 175.909 265.531C176.677 265.531 177.343 265.697 177.909 266.027C178.474 266.358 178.895 266.774 179.173 267.275V265.675H180.645V274.443H179.173V272.811C178.885 273.323 178.453 273.75 177.877 274.091C177.311 274.422 176.65 274.587 175.893 274.587C175.114 274.587 174.41 274.395 173.781 274.011C173.151 273.627 172.655 273.089 172.293 272.395C171.93 271.702 171.749 270.913 171.749 270.027ZM179.173 270.043C179.173 269.382 179.039 268.806 178.773 268.315C178.506 267.825 178.143 267.451 177.685 267.195C177.237 266.929 176.741 266.795 176.197 266.795C175.653 266.795 175.157 266.923 174.709 267.179C174.261 267.435 173.903 267.809 173.637 268.299C173.37 268.79 173.237 269.366 173.237 270.027C173.237 270.699 173.37 271.286 173.637 271.787C173.903 272.278 174.261 272.657 174.709 272.923C175.157 273.179 175.653 273.307 176.197 273.307C176.741 273.307 177.237 273.179 177.685 272.923C178.143 272.657 178.506 272.278 178.773 271.787C179.039 271.286 179.173 270.705 179.173 270.043ZM185.041 262.603V274.443H183.585V262.603H185.041Z" fill="white"/>
<path d="M62.2861 167.66C63.8727 166.4 64.5961 165.817 64.4561 165.91C69.0294 162.13 72.6227 159.027 75.2361 156.6C77.8961 154.174 80.1361 151.63 81.9561 148.97C83.7761 146.31 84.6861 143.72 84.6861 141.2C84.6861 139.287 84.2427 137.794 83.3561 136.72C82.4694 135.647 81.1394 135.11 79.3661 135.11C77.5927 135.11 76.1927 135.787 75.1661 137.14C74.1861 138.447 73.6961 140.314 73.6961 142.74H62.1461C62.2394 138.774 63.0794 135.46 64.6661 132.8C66.2994 130.14 68.4227 128.18 71.0361 126.92C73.6961 125.66 76.6361 125.03 79.8561 125.03C85.4094 125.03 89.5861 126.454 92.3861 129.3C95.2327 132.147 96.6561 135.857 96.6561 140.43C96.6561 145.424 94.9527 150.067 91.5461 154.36C88.1394 158.607 83.7994 162.76 78.5261 166.82H97.4261V176.55H62.2861V167.66ZM103.116 140.57C103.303 135.577 104.936 131.727 108.016 129.02C111.096 126.314 115.273 124.96 120.546 124.96C124.046 124.96 127.033 125.567 129.506 126.78C132.026 127.994 133.916 129.65 135.176 131.75C136.483 133.85 137.136 136.207 137.136 138.82C137.136 141.9 136.366 144.42 134.826 146.38C133.286 148.294 131.49 149.6 129.436 150.3V150.58C132.096 151.467 134.196 152.937 135.736 154.99C137.276 157.044 138.046 159.68 138.046 162.9C138.046 165.794 137.37 168.36 136.016 170.6C134.71 172.794 132.773 174.52 130.206 175.78C127.686 177.04 124.676 177.67 121.176 177.67C115.576 177.67 111.096 176.294 107.736 173.54C104.423 170.787 102.673 166.634 102.486 161.08H114.106C114.153 163.134 114.736 164.767 115.856 165.98C116.976 167.147 118.61 167.73 120.756 167.73C122.576 167.73 123.976 167.217 124.956 166.19C125.983 165.117 126.496 163.717 126.496 161.99C126.496 159.75 125.773 158.14 124.326 157.16C122.926 156.134 120.663 155.62 117.536 155.62H115.296V145.89H117.536C119.916 145.89 121.83 145.494 123.276 144.7C124.77 143.86 125.516 142.39 125.516 140.29C125.516 138.61 125.05 137.304 124.116 136.37C123.183 135.437 121.9 134.97 120.266 134.97C118.493 134.97 117.163 135.507 116.276 136.58C115.436 137.654 114.946 138.984 114.806 140.57H103.116ZM145.079 151C145.079 142.974 146.619 136.65 149.699 132.03C152.826 127.41 157.842 125.1 164.749 125.1C171.656 125.1 176.649 127.41 179.729 132.03C182.856 136.65 184.419 142.974 184.419 151C184.419 159.12 182.856 165.49 179.729 170.11C176.649 174.73 171.656 177.04 164.749 177.04C157.842 177.04 152.826 174.73 149.699 170.11C146.619 165.49 145.079 159.12 145.079 151ZM172.659 151C172.659 146.287 172.146 142.67 171.119 140.15C170.092 137.584 167.969 136.3 164.749 136.3C161.529 136.3 159.406 137.584 158.379 140.15C157.352 142.67 156.839 146.287 156.839 151C156.839 154.174 157.026 156.81 157.399 158.91C157.772 160.964 158.519 162.644 159.639 163.95C160.806 165.21 162.509 165.84 164.749 165.84C166.989 165.84 168.669 165.21 169.789 163.95C170.956 162.644 171.726 160.964 172.099 158.91C172.472 156.81 172.659 154.174 172.659 151ZM208.545 169.927C210.13 169.927 211.536 169.555 212.765 168.811C213.993 168.068 214.963 167.001 215.675 165.61H224.793C223.823 169.296 221.899 172.206 219.021 174.34C216.144 176.442 212.684 177.493 208.642 177.493C204.633 177.493 201.173 176.442 198.263 174.34C195.386 172.239 193.413 169.393 192.346 165.804H188.563V161.488H191.619C191.586 161.197 191.57 160.76 191.57 160.178C191.57 159.564 191.586 159.095 191.619 158.772H188.563V154.407H192.395C193.462 150.85 195.434 148.037 198.312 145.968C201.222 143.866 204.665 142.815 208.642 142.815C212.684 142.815 216.144 143.882 219.021 146.016C221.899 148.15 223.823 151.06 224.793 154.746H215.675C214.963 153.356 213.993 152.305 212.765 151.594C211.536 150.85 210.13 150.478 208.545 150.478C206.993 150.478 205.603 150.818 204.374 151.497C203.146 152.176 202.159 153.146 201.416 154.407H209.515V158.772H200.058C200.025 159.063 200.009 159.532 200.009 160.178C200.009 160.76 200.025 161.197 200.058 161.488H209.515V165.804H201.319C202.062 167.13 203.049 168.149 204.277 168.86C205.538 169.571 206.961 169.927 208.545 169.927Z" fill="white"/>
</g>
<defs>
<filter id="filter0_d_1119_3794" x="0" y="0.908203" width="305" height="484.374" filterUnits="userSpaceOnUse" color-interpolation-filters="sRGB">
<feFlood flood-opacity="0" result="BackgroundImageFix"/>
<feColorMatrix in="SourceAlpha" type="matrix" values="0 0 0 0 0 0 0 0 0 0 0 0 0 0 0 0 0 0 127 0" result="hardAlpha"/>
<feOffset dx="8" dy="9"/>
<feGaussianBlur stdDeviation="12.5"/>
<feComposite in2="hardAlpha" operator="out"/>
<feColorMatrix type="matrix" values="0 0 0 0 0 0 0 0 0 0 0 0 0 0 0 0 0 0 0.19 0"/>
<feBlend mode="normal" in2="BackgroundImageFix" result="effect1_dropShadow_1119_3794"/>
<feBlend mode="normal" in="SourceGraphic" in2="effect1_dropShadow_1119_3794" result="shape"/>
</filter>
</defs>
</svg>
