<svg width="108" height="111" viewBox="0 0 108 111" fill="none" xmlns="http://www.w3.org/2000/svg">
<rect x="1" y="1" width="105.867" height="109" rx="25" stroke="white" stroke-width="2"/>
<path d="M28.2967 35V27.26H42.7567V71H34.1167V35H28.2967ZM51.175 38.78C51.375 34.78 52.775 31.7 55.375 29.54C58.015 27.34 61.475 26.24 65.755 26.24C68.675 26.24 71.175 26.76 73.255 27.8C75.335 28.8 76.895 30.18 77.935 31.94C79.015 33.66 79.555 35.62 79.555 37.82C79.555 40.34 78.895 42.48 77.575 44.24C76.295 45.96 74.755 47.12 72.955 47.72V47.96C75.275 48.68 77.075 49.96 78.355 51.8C79.675 53.64 80.335 56 80.335 58.88C80.335 61.28 79.775 63.42 78.655 65.3C77.575 67.18 75.955 68.66 73.795 69.74C71.675 70.78 69.115 71.3 66.115 71.3C61.595 71.3 57.915 70.16 55.075 67.88C52.235 65.6 50.735 62.24 50.575 57.8H58.735C58.815 59.76 59.475 61.34 60.715 62.54C61.995 63.7 63.735 64.28 65.935 64.28C67.975 64.28 69.535 63.72 70.615 62.6C71.735 61.44 72.295 59.96 72.295 58.16C72.295 55.76 71.535 54.04 70.015 53C68.495 51.96 66.135 51.44 62.935 51.44H61.195V44.54H62.935C68.615 44.54 71.455 42.64 71.455 38.84C71.455 37.12 70.935 35.78 69.895 34.82C68.895 33.86 67.435 33.38 65.515 33.38C63.635 33.38 62.175 33.9 61.135 34.94C60.135 35.94 59.555 37.22 59.395 38.78H51.175ZM48.87 82.53V89.88C48.87 90.9 48.575 91.695 47.985 92.265C47.395 92.825 46.605 93.105 45.615 93.105C44.615 93.105 43.805 92.815 43.185 92.235C42.575 91.655 42.27 90.845 42.27 89.805H44.37C44.38 90.255 44.485 90.605 44.685 90.855C44.895 91.105 45.195 91.23 45.585 91.23C45.965 91.23 46.255 91.11 46.455 90.87C46.655 90.63 46.755 90.3 46.755 89.88V82.53H48.87ZM53.3897 82.53V89.01C53.3897 89.72 53.5747 90.265 53.9447 90.645C54.3147 91.015 54.8347 91.2 55.5047 91.2C56.1847 91.2 56.7097 91.015 57.0797 90.645C57.4497 90.265 57.6347 89.72 57.6347 89.01V82.53H59.7497V88.995C59.7497 89.885 59.5547 90.64 59.1647 91.26C58.7847 91.87 58.2697 92.33 57.6197 92.64C56.9797 92.95 56.2647 93.105 55.4747 93.105C54.6947 93.105 53.9847 92.95 53.3447 92.64C52.7147 92.33 52.2147 91.87 51.8447 91.26C51.4747 90.64 51.2897 89.885 51.2897 88.995V82.53H53.3897ZM70.7337 93H68.6337L63.8787 85.815V93H61.7787V82.515H63.8787L68.6337 89.715V82.515H70.7337V93Z" fill="white"/>
</svg>
