<svg width="108" height="111" viewBox="0 0 108 111" fill="none" xmlns="http://www.w3.org/2000/svg">
<rect x="1" y="1" width="106" height="109" rx="25" stroke="white" stroke-width="2"/>
<path d="M41.4546 71H50.0946V27.26H35.6346V35H41.4546V71ZM63.1929 71H71.8329V27.26H57.3729V35H63.1929V71ZM47.003 89.88C47.003 90.705 46.613 91.23 45.833 91.23C45.038 91.23 44.633 90.69 44.618 89.805H42.518C42.518 91.92 43.898 93.105 45.863 93.105C47.798 93.105 49.118 91.95 49.118 89.88V82.53H47.003V89.88ZM51.5377 88.995C51.5377 91.755 53.4277 93.105 55.7227 93.105C58.0177 93.105 59.9977 91.755 59.9977 88.995V82.53H57.8827V89.01C57.8827 90.45 57.1027 91.2 55.7527 91.2C54.4177 91.2 53.6377 90.45 53.6377 89.01V82.53H51.5377V88.995ZM68.8817 82.515V89.715L64.1267 82.515H62.0267V93H64.1267V85.815L68.8817 93H70.9817V82.515H68.8817Z" fill="white"/>
</svg>
