<svg width="108" height="111" viewBox="0 0 108 111" fill="none" xmlns="http://www.w3.org/2000/svg">
<rect x="1" y="1" width="106" height="109" rx="25" stroke="white" stroke-width="2"/>
<path d="M29.2772 35V27.26H43.7372V71H35.0972V35H29.2772ZM54.6755 61.52C58.5155 58.32 61.5755 55.66 63.8555 53.54C66.1355 51.38 68.0355 49.14 69.5555 46.82C71.0755 44.5 71.8355 42.22 71.8355 39.98C71.8355 37.94 71.3555 36.34 70.3955 35.18C69.4355 34.02 67.9555 33.44 65.9555 33.44C63.9555 33.44 62.4155 34.12 61.3355 35.48C60.2555 36.8 59.6955 38.62 59.6555 40.94H51.4955C51.6555 36.14 53.0755 32.5 55.7555 30.02C58.4755 27.54 61.9155 26.3 66.0755 26.3C70.6355 26.3 74.1355 27.52 76.5755 29.96C79.0155 32.36 80.2355 35.54 80.2355 39.5C80.2355 42.62 79.3955 45.6 77.7155 48.44C76.0355 51.28 74.1155 53.76 71.9555 55.88C69.7955 57.96 66.9755 60.48 63.4955 63.44H81.1955V70.4H51.5555V64.16L54.6755 61.52ZM49.118 82.53V89.88C49.118 90.9 48.823 91.695 48.233 92.265C47.643 92.825 46.853 93.105 45.863 93.105C44.863 93.105 44.053 92.815 43.433 92.235C42.823 91.655 42.518 90.845 42.518 89.805H44.618C44.628 90.255 44.733 90.605 44.933 90.855C45.143 91.105 45.443 91.23 45.833 91.23C46.213 91.23 46.503 91.11 46.703 90.87C46.903 90.63 47.003 90.3 47.003 89.88V82.53H49.118ZM53.6377 82.53V89.01C53.6377 89.72 53.8227 90.265 54.1927 90.645C54.5627 91.015 55.0827 91.2 55.7527 91.2C56.4327 91.2 56.9577 91.015 57.3277 90.645C57.6977 90.265 57.8827 89.72 57.8827 89.01V82.53H59.9977V88.995C59.9977 89.885 59.8027 90.64 59.4127 91.26C59.0327 91.87 58.5177 92.33 57.8677 92.64C57.2277 92.95 56.5127 93.105 55.7227 93.105C54.9427 93.105 54.2327 92.95 53.5927 92.64C52.9627 92.33 52.4627 91.87 52.0927 91.26C51.7227 90.64 51.5377 89.885 51.5377 88.995V82.53H53.6377ZM70.9817 93H68.8817L64.1267 85.815V93H62.0267V82.515H64.1267L68.8817 89.715V82.515H70.9817V93Z" fill="white"/>
</svg>
