<svg width="108" height="111" viewBox="0 0 108 111" fill="none" xmlns="http://www.w3.org/2000/svg">
<rect x="1" y="1" width="106" height="109" rx="25" stroke="white" stroke-width="2"/>
<path d="M27.1092 35V27.26H41.5692V71H32.9292V35H27.1092ZM49.8675 48.56C49.8675 41.64 51.1075 36.22 53.5875 32.3C56.1075 28.38 60.2675 26.42 66.0675 26.42C71.8675 26.42 76.0075 28.38 78.4875 32.3C81.0075 36.22 82.2675 41.64 82.2675 48.56C82.2675 55.52 81.0075 60.98 78.4875 64.94C76.0075 68.9 71.8675 70.88 66.0675 70.88C60.2675 70.88 56.1075 68.9 53.5875 64.94C51.1075 60.98 49.8675 55.52 49.8675 48.56ZM73.9875 48.56C73.9875 45.6 73.7875 43.12 73.3875 41.12C73.0275 39.08 72.2675 37.42 71.1075 36.14C69.9875 34.86 68.3075 34.22 66.0675 34.22C63.8275 34.22 62.1275 34.86 60.9675 36.14C59.8475 37.42 59.0875 39.08 58.6875 41.12C58.3275 43.12 58.1475 45.6 58.1475 48.56C58.1475 51.6 58.3275 54.16 58.6875 56.24C59.0475 58.28 59.8075 59.94 60.9675 61.22C62.1275 62.46 63.8275 63.08 66.0675 63.08C68.3075 63.08 70.0075 62.46 71.1675 61.22C72.3275 59.94 73.0875 58.28 73.4475 56.24C73.8075 54.16 73.9875 51.6 73.9875 48.56ZM49.118 82.53V89.88C49.118 90.9 48.823 91.695 48.233 92.265C47.643 92.825 46.853 93.105 45.863 93.105C44.863 93.105 44.053 92.815 43.433 92.235C42.823 91.655 42.518 90.845 42.518 89.805H44.618C44.628 90.255 44.733 90.605 44.933 90.855C45.143 91.105 45.443 91.23 45.833 91.23C46.213 91.23 46.503 91.11 46.703 90.87C46.903 90.63 47.003 90.3 47.003 89.88V82.53H49.118ZM53.6377 82.53V89.01C53.6377 89.72 53.8227 90.265 54.1927 90.645C54.5627 91.015 55.0827 91.2 55.7527 91.2C56.4327 91.2 56.9577 91.015 57.3277 90.645C57.6977 90.265 57.8827 89.72 57.8827 89.01V82.53H59.9977V88.995C59.9977 89.885 59.8027 90.64 59.4127 91.26C59.0327 91.87 58.5177 92.33 57.8677 92.64C57.2277 92.95 56.5127 93.105 55.7227 93.105C54.9427 93.105 54.2327 92.95 53.5927 92.64C52.9627 92.33 52.4627 91.87 52.0927 91.26C51.7227 90.64 51.5377 89.885 51.5377 88.995V82.53H53.6377ZM70.9817 93H68.8817L64.1267 85.815V93H62.0267V82.515H64.1267L68.8817 89.715V82.515H70.9817V93Z" fill="white"/>
</svg>
