<svg width="108" height="111" viewBox="0 0 108 111" fill="none" xmlns="http://www.w3.org/2000/svg">
<rect x="1" y="1" width="106" height="109" rx="25" fill="white" stroke="white" stroke-width="2"/>
<path d="M20.8769 50.13H24.9689V63H28.0489V50.13H32.1409V47.644H20.8769V50.13ZM46.1581 56.906C46.1581 53.056 43.4081 50.614 39.8881 50.614C36.3681 50.614 33.6181 53.056 33.6181 56.906C33.6181 60.734 36.2801 63.198 39.8001 63.198C43.3421 63.198 46.1581 60.734 46.1581 56.906ZM36.7421 56.906C36.7421 54.464 38.2161 53.298 39.8441 53.298C41.4721 53.298 42.9901 54.464 42.9901 56.906C42.9901 59.326 41.4281 60.514 39.8001 60.514C38.1501 60.514 36.7421 59.326 36.7421 56.906ZM47.6254 56.862C47.6254 60.668 50.0894 63.198 53.1914 63.198C55.1054 63.198 56.4694 62.318 57.1954 61.196V63H60.3194V46.72H57.1954V52.506C56.3594 51.362 54.8194 50.614 53.2134 50.614C50.0894 50.614 47.6254 53.056 47.6254 56.862ZM57.2174 56.906C57.2174 59.216 55.6774 60.492 53.9834 60.492C52.3334 60.492 50.7714 59.172 50.7714 56.862C50.7714 54.552 52.3334 53.32 53.9834 53.32C55.6774 53.32 57.2174 54.596 57.2174 56.906ZM75.0976 56.906C75.0976 53.056 72.3476 50.614 68.8276 50.614C65.3076 50.614 62.5576 53.056 62.5576 56.906C62.5576 60.734 65.2196 63.198 68.7396 63.198C72.2816 63.198 75.0976 60.734 75.0976 56.906ZM65.6816 56.906C65.6816 54.464 67.1556 53.298 68.7836 53.298C70.4116 53.298 71.9296 54.464 71.9296 56.906C71.9296 59.326 70.3676 60.514 68.7396 60.514C67.0896 60.514 65.6816 59.326 65.6816 56.906ZM86.8169 59.524C86.7289 55.058 79.9749 56.444 79.9749 54.222C79.9749 53.518 80.5689 53.056 81.7129 53.056C82.9229 53.056 83.6709 53.694 83.7589 54.64H86.7069C86.5309 52.22 84.7489 50.614 81.8009 50.614C78.7869 50.614 76.9829 52.242 76.9829 54.266C76.9829 58.732 83.8689 57.346 83.8689 59.524C83.8689 60.228 83.2089 60.778 81.9989 60.778C80.7669 60.778 79.9089 60.074 79.7989 59.15H76.6969C76.8289 61.416 78.9629 63.198 82.0209 63.198C84.9909 63.198 86.8169 61.614 86.8169 59.524Z" fill="#A92227"/>
</svg>
