<svg width="340" height="73" viewBox="0 0 340 73" fill="none" xmlns="http://www.w3.org/2000/svg">
<rect x="0.648148" y="1.12544" width="338.548" height="70.6481" rx="16.2037" stroke="white" stroke-width="1.2963"/>
<path d="M133.822 30.7109H138.148V44.318H141.405V30.7109H145.731V28.0825H133.822V30.7109ZM160.551 37.875C160.551 33.8045 157.644 31.2226 153.922 31.2226C150.2 31.2226 147.293 33.8045 147.293 37.875C147.293 41.9222 150.107 44.5273 153.829 44.5273C157.574 44.5273 160.551 41.9222 160.551 37.875ZM150.596 37.875C150.596 35.2931 152.154 34.0603 153.875 34.0603C155.597 34.0603 157.202 35.2931 157.202 37.875C157.202 40.4336 155.55 41.6896 153.829 41.6896C152.084 41.6896 150.596 40.4336 150.596 37.875ZM162.102 37.8285C162.102 41.8524 164.708 44.5273 167.987 44.5273C170.011 44.5273 171.453 43.5969 172.221 42.4107V44.318H175.523V27.1056H172.221V33.223C171.337 32.0135 169.708 31.2226 168.01 31.2226C164.708 31.2226 162.102 33.8045 162.102 37.8285ZM172.244 37.875C172.244 40.3173 170.616 41.6664 168.825 41.6664C167.08 41.6664 165.429 40.2708 165.429 37.8285C165.429 35.3862 167.08 34.0836 168.825 34.0836C170.616 34.0836 172.244 35.4327 172.244 37.875ZM191.148 37.875C191.148 33.8045 188.24 31.2226 184.519 31.2226C180.797 31.2226 177.89 33.8045 177.89 37.875C177.89 41.9222 180.704 44.5273 184.426 44.5273C188.171 44.5273 191.148 41.9222 191.148 37.875ZM181.193 37.875C181.193 35.2931 182.751 34.0603 184.472 34.0603C186.194 34.0603 187.799 35.2931 187.799 37.875C187.799 40.4336 186.147 41.6896 184.426 41.6896C182.681 41.6896 181.193 40.4336 181.193 37.875ZM203.538 40.6429C203.445 35.9211 196.305 37.3865 196.305 35.0373C196.305 34.2929 196.933 33.8045 198.142 33.8045C199.421 33.8045 200.212 34.479 200.305 35.4792H203.422C203.236 32.9206 201.352 31.2226 198.235 31.2226C195.049 31.2226 193.141 32.9439 193.141 35.0838C193.141 39.8056 200.422 38.3402 200.422 40.6429C200.422 41.3872 199.724 41.9687 198.445 41.9687C197.142 41.9687 196.235 41.2244 196.119 40.2475H192.839C192.978 42.6433 195.235 44.5273 198.468 44.5273C201.608 44.5273 203.538 42.8526 203.538 40.6429Z" fill="white"/>
</svg>
